%TF.GenerationSoftware,KiCad,Pcbnew,(6.0.10)*%
%TF.CreationDate,2023-04-28T14:23:09-06:00*%
%TF.ProjectId,H2O-Esquem_tico_2023ver3-KiCad,48324f2d-4573-4717-9565-6de17469636f,rev?*%
%TF.SameCoordinates,Original*%
%TF.FileFunction,Soldermask,Bot*%
%TF.FilePolarity,Negative*%
%FSLAX46Y46*%
G04 Gerber Fmt 4.6, Leading zero omitted, Abs format (unit mm)*
G04 Created by KiCad (PCBNEW (6.0.10)) date 2023-04-28 14:23:09*
%MOMM*%
%LPD*%
G01*
G04 APERTURE LIST*
%ADD10R,1.800000X1.800000*%
%ADD11C,1.800000*%
%ADD12R,1.350000X1.350000*%
%ADD13O,1.350000X1.350000*%
%ADD14O,1.800000X1.600000*%
%ADD15R,2.600000X2.600000*%
%ADD16C,2.600000*%
G04 APERTURE END LIST*
D10*
%TO.C,U2*%
X150695000Y-96050000D03*
D11*
X153235000Y-96050000D03*
X155775000Y-96050000D03*
X158315000Y-96050000D03*
X160855000Y-96050000D03*
X163395000Y-96050000D03*
X165935000Y-96050000D03*
X165935000Y-88430000D03*
X163395000Y-88430000D03*
X160855000Y-88430000D03*
X158315000Y-88430000D03*
X155775000Y-88430000D03*
X153235000Y-88430000D03*
X150695000Y-88430000D03*
%TD*%
D12*
%TO.C,J1*%
X99060000Y-66009833D03*
D13*
X101060000Y-66009833D03*
%TD*%
D11*
%TO.C,ESP8266_lolin1*%
X134620000Y-72390000D03*
X132080000Y-72390000D03*
X129540000Y-72390000D03*
X127000000Y-72390000D03*
X124460000Y-72390000D03*
X121920000Y-72390000D03*
X119380000Y-72390000D03*
X116840000Y-72390000D03*
X114300000Y-72390000D03*
X111760000Y-72390000D03*
X109220000Y-72390000D03*
X106680000Y-72390000D03*
X104140000Y-72390000D03*
X101600000Y-72390000D03*
X99060000Y-72390000D03*
X99060000Y-100330000D03*
X101600000Y-100330000D03*
X104140000Y-100330000D03*
X106680000Y-100330000D03*
X109220000Y-100330000D03*
X111760000Y-100330000D03*
X114300000Y-100330000D03*
X116840000Y-100330000D03*
X119380000Y-100330000D03*
X121920000Y-100330000D03*
X124460000Y-100330000D03*
X127000000Y-100330000D03*
X129540000Y-100330000D03*
X132080000Y-100330000D03*
X134620000Y-100330000D03*
%TD*%
%TO.C,1K8*%
X158320000Y-71930000D03*
D14*
X148160000Y-71930000D03*
%TD*%
D15*
%TO.C,J8*%
X172710000Y-69175000D03*
D16*
X172710000Y-72675000D03*
X172710000Y-76175000D03*
%TD*%
M02*
