%TF.GenerationSoftware,KiCad,Pcbnew,(6.0.10)*%
%TF.CreationDate,2023-04-28T14:23:14-06:00*%
%TF.ProjectId,H2O-Esquem_tico_2023ver3-KiCad,48324f2d-4573-4717-9565-6de17469636f,rev?*%
%TF.SameCoordinates,Original*%
%TF.FileFunction,Drillmap*%
%TF.FilePolarity,Positive*%
%FSLAX45Y45*%
G04 Gerber Fmt 4.5, Leading zero omitted, Abs format (unit mm)*
G04 Created by KiCad (PCBNEW (6.0.10)) date 2023-04-28 14:23:14*
%MOMM*%
%LPD*%
G01*
G04 APERTURE LIST*
%ADD10C,0.200000*%
%ADD11C,0.080000*%
%ADD12C,0.130000*%
G04 APERTURE END LIST*
D10*
D11*
X9866000Y-6560983D02*
X9946000Y-6640983D01*
X9946000Y-6560983D02*
X9866000Y-6640983D01*
X9866000Y-7199000D02*
X9946000Y-7279000D01*
X9946000Y-7199000D02*
X9866000Y-7279000D01*
X9866000Y-9993000D02*
X9946000Y-10073000D01*
X9946000Y-9993000D02*
X9866000Y-10073000D01*
X10066000Y-6560983D02*
X10146000Y-6640983D01*
X10146000Y-6560983D02*
X10066000Y-6640983D01*
X10120000Y-7199000D02*
X10200000Y-7279000D01*
X10200000Y-7199000D02*
X10120000Y-7279000D01*
X10120000Y-9993000D02*
X10200000Y-10073000D01*
X10200000Y-9993000D02*
X10120000Y-10073000D01*
X10374000Y-7199000D02*
X10454000Y-7279000D01*
X10454000Y-7199000D02*
X10374000Y-7279000D01*
X10374000Y-9993000D02*
X10454000Y-10073000D01*
X10454000Y-9993000D02*
X10374000Y-10073000D01*
X10628000Y-7199000D02*
X10708000Y-7279000D01*
X10708000Y-7199000D02*
X10628000Y-7279000D01*
X10628000Y-9993000D02*
X10708000Y-10073000D01*
X10708000Y-9993000D02*
X10628000Y-10073000D01*
X10882000Y-7199000D02*
X10962000Y-7279000D01*
X10962000Y-7199000D02*
X10882000Y-7279000D01*
X10882000Y-9993000D02*
X10962000Y-10073000D01*
X10962000Y-9993000D02*
X10882000Y-10073000D01*
X11136000Y-7199000D02*
X11216000Y-7279000D01*
X11216000Y-7199000D02*
X11136000Y-7279000D01*
X11136000Y-9993000D02*
X11216000Y-10073000D01*
X11216000Y-9993000D02*
X11136000Y-10073000D01*
X11390000Y-7199000D02*
X11470000Y-7279000D01*
X11470000Y-7199000D02*
X11390000Y-7279000D01*
X11390000Y-9993000D02*
X11470000Y-10073000D01*
X11470000Y-9993000D02*
X11390000Y-10073000D01*
X11644000Y-7199000D02*
X11724000Y-7279000D01*
X11724000Y-7199000D02*
X11644000Y-7279000D01*
X11644000Y-9993000D02*
X11724000Y-10073000D01*
X11724000Y-9993000D02*
X11644000Y-10073000D01*
X11898000Y-7199000D02*
X11978000Y-7279000D01*
X11978000Y-7199000D02*
X11898000Y-7279000D01*
X11898000Y-9993000D02*
X11978000Y-10073000D01*
X11978000Y-9993000D02*
X11898000Y-10073000D01*
X12152000Y-7199000D02*
X12232000Y-7279000D01*
X12232000Y-7199000D02*
X12152000Y-7279000D01*
X12152000Y-9993000D02*
X12232000Y-10073000D01*
X12232000Y-9993000D02*
X12152000Y-10073000D01*
X12406000Y-7199000D02*
X12486000Y-7279000D01*
X12486000Y-7199000D02*
X12406000Y-7279000D01*
X12406000Y-9993000D02*
X12486000Y-10073000D01*
X12486000Y-9993000D02*
X12406000Y-10073000D01*
X12660000Y-7199000D02*
X12740000Y-7279000D01*
X12740000Y-7199000D02*
X12660000Y-7279000D01*
X12660000Y-9993000D02*
X12740000Y-10073000D01*
X12740000Y-9993000D02*
X12660000Y-10073000D01*
X12914000Y-7199000D02*
X12994000Y-7279000D01*
X12994000Y-7199000D02*
X12914000Y-7279000D01*
X12914000Y-9993000D02*
X12994000Y-10073000D01*
X12994000Y-9993000D02*
X12914000Y-10073000D01*
X13168000Y-7199000D02*
X13248000Y-7279000D01*
X13248000Y-7199000D02*
X13168000Y-7279000D01*
X13168000Y-9993000D02*
X13248000Y-10073000D01*
X13248000Y-9993000D02*
X13168000Y-10073000D01*
X13422000Y-7199000D02*
X13502000Y-7279000D01*
X13502000Y-7199000D02*
X13422000Y-7279000D01*
X13422000Y-9993000D02*
X13502000Y-10073000D01*
X13502000Y-9993000D02*
X13422000Y-10073000D01*
X14776000Y-7153000D02*
X14856000Y-7233000D01*
X14856000Y-7153000D02*
X14776000Y-7233000D01*
X15029500Y-8803000D02*
X15109500Y-8883000D01*
X15109500Y-8803000D02*
X15029500Y-8883000D01*
X15029500Y-9565000D02*
X15109500Y-9645000D01*
X15109500Y-9565000D02*
X15029500Y-9645000D01*
X15283500Y-8803000D02*
X15363500Y-8883000D01*
X15363500Y-8803000D02*
X15283500Y-8883000D01*
X15283500Y-9565000D02*
X15363500Y-9645000D01*
X15363500Y-9565000D02*
X15283500Y-9645000D01*
X15537500Y-8803000D02*
X15617500Y-8883000D01*
X15617500Y-8803000D02*
X15537500Y-8883000D01*
X15537500Y-9565000D02*
X15617500Y-9645000D01*
X15617500Y-9565000D02*
X15537500Y-9645000D01*
X15791500Y-8803000D02*
X15871500Y-8883000D01*
X15871500Y-8803000D02*
X15791500Y-8883000D01*
X15791500Y-9565000D02*
X15871500Y-9645000D01*
X15871500Y-9565000D02*
X15791500Y-9645000D01*
X15792000Y-7153000D02*
X15872000Y-7233000D01*
X15872000Y-7153000D02*
X15792000Y-7233000D01*
X16045500Y-8803000D02*
X16125500Y-8883000D01*
X16125500Y-8803000D02*
X16045500Y-8883000D01*
X16045500Y-9565000D02*
X16125500Y-9645000D01*
X16125500Y-9565000D02*
X16045500Y-9645000D01*
X16299500Y-8803000D02*
X16379500Y-8883000D01*
X16379500Y-8803000D02*
X16299500Y-8883000D01*
X16299500Y-9565000D02*
X16379500Y-9645000D01*
X16379500Y-9565000D02*
X16299500Y-9645000D01*
X16553500Y-8803000D02*
X16633500Y-8883000D01*
X16633500Y-8803000D02*
X16553500Y-8883000D01*
X16553500Y-9565000D02*
X16633500Y-9645000D01*
X16633500Y-9565000D02*
X16553500Y-9645000D01*
D12*
X17336000Y-6917500D02*
G75*
G03*
X17336000Y-6917500I-65000J0D01*
G01*
X17336000Y-7267500D02*
G75*
G03*
X17336000Y-7267500I-65000J0D01*
G01*
X17336000Y-7617500D02*
G75*
G03*
X17336000Y-7617500I-65000J0D01*
G01*
D10*
X257619Y-310476D02*
X257619Y-110476D01*
X305238Y-110476D01*
X333810Y-120000D01*
X352857Y-139048D01*
X362381Y-158095D01*
X371905Y-196190D01*
X371905Y-224762D01*
X362381Y-262857D01*
X352857Y-281905D01*
X333810Y-300952D01*
X305238Y-310476D01*
X257619Y-310476D01*
X457619Y-310476D02*
X457619Y-177143D01*
X457619Y-215238D02*
X467143Y-196190D01*
X476667Y-186667D01*
X495714Y-177143D01*
X514762Y-177143D01*
X581429Y-310476D02*
X581429Y-177143D01*
X581429Y-110476D02*
X571905Y-120000D01*
X581429Y-129524D01*
X590952Y-120000D01*
X581429Y-110476D01*
X581429Y-129524D01*
X705238Y-310476D02*
X686190Y-300952D01*
X676667Y-281905D01*
X676667Y-110476D01*
X810000Y-310476D02*
X790952Y-300952D01*
X781428Y-281905D01*
X781428Y-110476D01*
X1038571Y-310476D02*
X1038571Y-110476D01*
X1105238Y-253333D01*
X1171905Y-110476D01*
X1171905Y-310476D01*
X1352857Y-310476D02*
X1352857Y-205714D01*
X1343333Y-186667D01*
X1324286Y-177143D01*
X1286190Y-177143D01*
X1267143Y-186667D01*
X1352857Y-300952D02*
X1333810Y-310476D01*
X1286190Y-310476D01*
X1267143Y-300952D01*
X1257619Y-281905D01*
X1257619Y-262857D01*
X1267143Y-243809D01*
X1286190Y-234286D01*
X1333810Y-234286D01*
X1352857Y-224762D01*
X1448095Y-177143D02*
X1448095Y-377143D01*
X1448095Y-186667D02*
X1467143Y-177143D01*
X1505238Y-177143D01*
X1524286Y-186667D01*
X1533809Y-196190D01*
X1543333Y-215238D01*
X1543333Y-272381D01*
X1533809Y-291429D01*
X1524286Y-300952D01*
X1505238Y-310476D01*
X1467143Y-310476D01*
X1448095Y-300952D01*
X1629048Y-291429D02*
X1638571Y-300952D01*
X1629048Y-310476D01*
X1619524Y-300952D01*
X1629048Y-291429D01*
X1629048Y-310476D01*
X1629048Y-186667D02*
X1638571Y-196190D01*
X1629048Y-205714D01*
X1619524Y-196190D01*
X1629048Y-186667D01*
X1629048Y-205714D01*
D11*
X-80000Y-600000D02*
X0Y-680000D01*
X0Y-600000D02*
X-80000Y-680000D01*
D10*
X295714Y-530476D02*
X314762Y-530476D01*
X333810Y-540000D01*
X343333Y-549524D01*
X352857Y-568571D01*
X362381Y-606667D01*
X362381Y-654286D01*
X352857Y-692381D01*
X343333Y-711428D01*
X333810Y-720952D01*
X314762Y-730476D01*
X295714Y-730476D01*
X276667Y-720952D01*
X267143Y-711428D01*
X257619Y-692381D01*
X248095Y-654286D01*
X248095Y-606667D01*
X257619Y-568571D01*
X267143Y-549524D01*
X276667Y-540000D01*
X295714Y-530476D01*
X448095Y-711428D02*
X457619Y-720952D01*
X448095Y-730476D01*
X438571Y-720952D01*
X448095Y-711428D01*
X448095Y-730476D01*
X571905Y-616190D02*
X552857Y-606667D01*
X543333Y-597143D01*
X533810Y-578095D01*
X533810Y-568571D01*
X543333Y-549524D01*
X552857Y-540000D01*
X571905Y-530476D01*
X610000Y-530476D01*
X629048Y-540000D01*
X638571Y-549524D01*
X648095Y-568571D01*
X648095Y-578095D01*
X638571Y-597143D01*
X629048Y-606667D01*
X610000Y-616190D01*
X571905Y-616190D01*
X552857Y-625714D01*
X543333Y-635238D01*
X533810Y-654286D01*
X533810Y-692381D01*
X543333Y-711428D01*
X552857Y-720952D01*
X571905Y-730476D01*
X610000Y-730476D01*
X629048Y-720952D01*
X638571Y-711428D01*
X648095Y-692381D01*
X648095Y-654286D01*
X638571Y-635238D01*
X629048Y-625714D01*
X610000Y-616190D01*
X771905Y-530476D02*
X790952Y-530476D01*
X810000Y-540000D01*
X819524Y-549524D01*
X829048Y-568571D01*
X838571Y-606667D01*
X838571Y-654286D01*
X829048Y-692381D01*
X819524Y-711428D01*
X810000Y-720952D01*
X790952Y-730476D01*
X771905Y-730476D01*
X752857Y-720952D01*
X743333Y-711428D01*
X733809Y-692381D01*
X724286Y-654286D01*
X724286Y-606667D01*
X733809Y-568571D01*
X743333Y-549524D01*
X752857Y-540000D01*
X771905Y-530476D01*
X962381Y-530476D02*
X981428Y-530476D01*
X1000476Y-540000D01*
X1010000Y-549524D01*
X1019524Y-568571D01*
X1029048Y-606667D01*
X1029048Y-654286D01*
X1019524Y-692381D01*
X1010000Y-711428D01*
X1000476Y-720952D01*
X981428Y-730476D01*
X962381Y-730476D01*
X943333Y-720952D01*
X933809Y-711428D01*
X924286Y-692381D01*
X914762Y-654286D01*
X914762Y-606667D01*
X924286Y-568571D01*
X933809Y-549524D01*
X943333Y-540000D01*
X962381Y-530476D01*
X1114762Y-730476D02*
X1114762Y-597143D01*
X1114762Y-616190D02*
X1124286Y-606667D01*
X1143333Y-597143D01*
X1171905Y-597143D01*
X1190952Y-606667D01*
X1200476Y-625714D01*
X1200476Y-730476D01*
X1200476Y-625714D02*
X1210000Y-606667D01*
X1229048Y-597143D01*
X1257619Y-597143D01*
X1276667Y-606667D01*
X1286190Y-625714D01*
X1286190Y-730476D01*
X1381429Y-730476D02*
X1381429Y-597143D01*
X1381429Y-616190D02*
X1390952Y-606667D01*
X1410000Y-597143D01*
X1438571Y-597143D01*
X1457619Y-606667D01*
X1467143Y-625714D01*
X1467143Y-730476D01*
X1467143Y-625714D02*
X1476667Y-606667D01*
X1495714Y-597143D01*
X1524286Y-597143D01*
X1543333Y-606667D01*
X1552857Y-625714D01*
X1552857Y-730476D01*
X1943333Y-520952D02*
X1771905Y-778095D01*
X2200476Y-530476D02*
X2219524Y-530476D01*
X2238571Y-540000D01*
X2248095Y-549524D01*
X2257619Y-568571D01*
X2267143Y-606667D01*
X2267143Y-654286D01*
X2257619Y-692381D01*
X2248095Y-711428D01*
X2238571Y-720952D01*
X2219524Y-730476D01*
X2200476Y-730476D01*
X2181429Y-720952D01*
X2171905Y-711428D01*
X2162381Y-692381D01*
X2152857Y-654286D01*
X2152857Y-606667D01*
X2162381Y-568571D01*
X2171905Y-549524D01*
X2181429Y-540000D01*
X2200476Y-530476D01*
X2352857Y-711428D02*
X2362381Y-720952D01*
X2352857Y-730476D01*
X2343333Y-720952D01*
X2352857Y-711428D01*
X2352857Y-730476D01*
X2486190Y-530476D02*
X2505238Y-530476D01*
X2524286Y-540000D01*
X2533810Y-549524D01*
X2543333Y-568571D01*
X2552857Y-606667D01*
X2552857Y-654286D01*
X2543333Y-692381D01*
X2533810Y-711428D01*
X2524286Y-720952D01*
X2505238Y-730476D01*
X2486190Y-730476D01*
X2467143Y-720952D01*
X2457619Y-711428D01*
X2448095Y-692381D01*
X2438571Y-654286D01*
X2438571Y-606667D01*
X2448095Y-568571D01*
X2457619Y-549524D01*
X2467143Y-540000D01*
X2486190Y-530476D01*
X2619524Y-530476D02*
X2743333Y-530476D01*
X2676667Y-606667D01*
X2705238Y-606667D01*
X2724286Y-616190D01*
X2733810Y-625714D01*
X2743333Y-644762D01*
X2743333Y-692381D01*
X2733810Y-711428D01*
X2724286Y-720952D01*
X2705238Y-730476D01*
X2648095Y-730476D01*
X2629048Y-720952D01*
X2619524Y-711428D01*
X2933809Y-730476D02*
X2819524Y-730476D01*
X2876667Y-730476D02*
X2876667Y-530476D01*
X2857619Y-559048D01*
X2838571Y-578095D01*
X2819524Y-587619D01*
X3114762Y-530476D02*
X3019524Y-530476D01*
X3010000Y-625714D01*
X3019524Y-616190D01*
X3038571Y-606667D01*
X3086190Y-606667D01*
X3105238Y-616190D01*
X3114762Y-625714D01*
X3124286Y-644762D01*
X3124286Y-692381D01*
X3114762Y-711428D01*
X3105238Y-720952D01*
X3086190Y-730476D01*
X3038571Y-730476D01*
X3019524Y-720952D01*
X3010000Y-711428D01*
X3200476Y-530476D02*
X3200476Y-568571D01*
X3276667Y-530476D02*
X3276667Y-568571D01*
X3571905Y-806667D02*
X3562381Y-797143D01*
X3543333Y-768571D01*
X3533809Y-749524D01*
X3524286Y-720952D01*
X3514762Y-673333D01*
X3514762Y-635238D01*
X3524286Y-587619D01*
X3533809Y-559048D01*
X3543333Y-540000D01*
X3562381Y-511428D01*
X3571905Y-501905D01*
X3733809Y-597143D02*
X3733809Y-730476D01*
X3686190Y-520952D02*
X3638571Y-663810D01*
X3762381Y-663810D01*
X3867143Y-616190D02*
X3848095Y-606667D01*
X3838571Y-597143D01*
X3829048Y-578095D01*
X3829048Y-568571D01*
X3838571Y-549524D01*
X3848095Y-540000D01*
X3867143Y-530476D01*
X3905238Y-530476D01*
X3924286Y-540000D01*
X3933809Y-549524D01*
X3943333Y-568571D01*
X3943333Y-578095D01*
X3933809Y-597143D01*
X3924286Y-606667D01*
X3905238Y-616190D01*
X3867143Y-616190D01*
X3848095Y-625714D01*
X3838571Y-635238D01*
X3829048Y-654286D01*
X3829048Y-692381D01*
X3838571Y-711428D01*
X3848095Y-720952D01*
X3867143Y-730476D01*
X3905238Y-730476D01*
X3924286Y-720952D01*
X3933809Y-711428D01*
X3943333Y-692381D01*
X3943333Y-654286D01*
X3933809Y-635238D01*
X3924286Y-625714D01*
X3905238Y-616190D01*
X4181428Y-730476D02*
X4181428Y-530476D01*
X4267143Y-730476D02*
X4267143Y-625714D01*
X4257619Y-606667D01*
X4238571Y-597143D01*
X4210000Y-597143D01*
X4190952Y-606667D01*
X4181428Y-616190D01*
X4390952Y-730476D02*
X4371905Y-720952D01*
X4362381Y-711428D01*
X4352857Y-692381D01*
X4352857Y-635238D01*
X4362381Y-616190D01*
X4371905Y-606667D01*
X4390952Y-597143D01*
X4419524Y-597143D01*
X4438571Y-606667D01*
X4448095Y-616190D01*
X4457619Y-635238D01*
X4457619Y-692381D01*
X4448095Y-711428D01*
X4438571Y-720952D01*
X4419524Y-730476D01*
X4390952Y-730476D01*
X4571905Y-730476D02*
X4552857Y-720952D01*
X4543333Y-701905D01*
X4543333Y-530476D01*
X4724286Y-720952D02*
X4705238Y-730476D01*
X4667143Y-730476D01*
X4648095Y-720952D01*
X4638571Y-701905D01*
X4638571Y-625714D01*
X4648095Y-606667D01*
X4667143Y-597143D01*
X4705238Y-597143D01*
X4724286Y-606667D01*
X4733810Y-625714D01*
X4733810Y-644762D01*
X4638571Y-663810D01*
X4810000Y-720952D02*
X4829048Y-730476D01*
X4867143Y-730476D01*
X4886190Y-720952D01*
X4895714Y-701905D01*
X4895714Y-692381D01*
X4886190Y-673333D01*
X4867143Y-663810D01*
X4838571Y-663810D01*
X4819524Y-654286D01*
X4810000Y-635238D01*
X4810000Y-625714D01*
X4819524Y-606667D01*
X4838571Y-597143D01*
X4867143Y-597143D01*
X4886190Y-606667D01*
X4962381Y-806667D02*
X4971905Y-797143D01*
X4990952Y-768571D01*
X5000476Y-749524D01*
X5010000Y-720952D01*
X5019524Y-673333D01*
X5019524Y-635238D01*
X5010000Y-587619D01*
X5000476Y-559048D01*
X4990952Y-540000D01*
X4971905Y-511428D01*
X4962381Y-501905D01*
D12*
X0Y-904000D02*
G75*
G03*
X0Y-904000I-65000J0D01*
G01*
D10*
X362381Y-994476D02*
X248095Y-994476D01*
X305238Y-994476D02*
X305238Y-794476D01*
X286190Y-823048D01*
X267143Y-842095D01*
X248095Y-851619D01*
X448095Y-975428D02*
X457619Y-984952D01*
X448095Y-994476D01*
X438571Y-984952D01*
X448095Y-975428D01*
X448095Y-994476D01*
X524286Y-794476D02*
X648095Y-794476D01*
X581429Y-870667D01*
X610000Y-870667D01*
X629048Y-880190D01*
X638571Y-889714D01*
X648095Y-908762D01*
X648095Y-956381D01*
X638571Y-975428D01*
X629048Y-984952D01*
X610000Y-994476D01*
X552857Y-994476D01*
X533810Y-984952D01*
X524286Y-975428D01*
X771905Y-794476D02*
X790952Y-794476D01*
X810000Y-804000D01*
X819524Y-813524D01*
X829048Y-832571D01*
X838571Y-870667D01*
X838571Y-918286D01*
X829048Y-956381D01*
X819524Y-975428D01*
X810000Y-984952D01*
X790952Y-994476D01*
X771905Y-994476D01*
X752857Y-984952D01*
X743333Y-975428D01*
X733809Y-956381D01*
X724286Y-918286D01*
X724286Y-870667D01*
X733809Y-832571D01*
X743333Y-813524D01*
X752857Y-804000D01*
X771905Y-794476D01*
X962381Y-794476D02*
X981428Y-794476D01*
X1000476Y-804000D01*
X1010000Y-813524D01*
X1019524Y-832571D01*
X1029048Y-870667D01*
X1029048Y-918286D01*
X1019524Y-956381D01*
X1010000Y-975428D01*
X1000476Y-984952D01*
X981428Y-994476D01*
X962381Y-994476D01*
X943333Y-984952D01*
X933809Y-975428D01*
X924286Y-956381D01*
X914762Y-918286D01*
X914762Y-870667D01*
X924286Y-832571D01*
X933809Y-813524D01*
X943333Y-804000D01*
X962381Y-794476D01*
X1114762Y-994476D02*
X1114762Y-861143D01*
X1114762Y-880190D02*
X1124286Y-870667D01*
X1143333Y-861143D01*
X1171905Y-861143D01*
X1190952Y-870667D01*
X1200476Y-889714D01*
X1200476Y-994476D01*
X1200476Y-889714D02*
X1210000Y-870667D01*
X1229048Y-861143D01*
X1257619Y-861143D01*
X1276667Y-870667D01*
X1286190Y-889714D01*
X1286190Y-994476D01*
X1381429Y-994476D02*
X1381429Y-861143D01*
X1381429Y-880190D02*
X1390952Y-870667D01*
X1410000Y-861143D01*
X1438571Y-861143D01*
X1457619Y-870667D01*
X1467143Y-889714D01*
X1467143Y-994476D01*
X1467143Y-889714D02*
X1476667Y-870667D01*
X1495714Y-861143D01*
X1524286Y-861143D01*
X1543333Y-870667D01*
X1552857Y-889714D01*
X1552857Y-994476D01*
X1943333Y-784952D02*
X1771905Y-1042095D01*
X2200476Y-794476D02*
X2219524Y-794476D01*
X2238571Y-804000D01*
X2248095Y-813524D01*
X2257619Y-832571D01*
X2267143Y-870667D01*
X2267143Y-918286D01*
X2257619Y-956381D01*
X2248095Y-975428D01*
X2238571Y-984952D01*
X2219524Y-994476D01*
X2200476Y-994476D01*
X2181429Y-984952D01*
X2171905Y-975428D01*
X2162381Y-956381D01*
X2152857Y-918286D01*
X2152857Y-870667D01*
X2162381Y-832571D01*
X2171905Y-813524D01*
X2181429Y-804000D01*
X2200476Y-794476D01*
X2352857Y-975428D02*
X2362381Y-984952D01*
X2352857Y-994476D01*
X2343333Y-984952D01*
X2352857Y-975428D01*
X2352857Y-994476D01*
X2486190Y-794476D02*
X2505238Y-794476D01*
X2524286Y-804000D01*
X2533810Y-813524D01*
X2543333Y-832571D01*
X2552857Y-870667D01*
X2552857Y-918286D01*
X2543333Y-956381D01*
X2533810Y-975428D01*
X2524286Y-984952D01*
X2505238Y-994476D01*
X2486190Y-994476D01*
X2467143Y-984952D01*
X2457619Y-975428D01*
X2448095Y-956381D01*
X2438571Y-918286D01*
X2438571Y-870667D01*
X2448095Y-832571D01*
X2457619Y-813524D01*
X2467143Y-804000D01*
X2486190Y-794476D01*
X2733810Y-794476D02*
X2638571Y-794476D01*
X2629048Y-889714D01*
X2638571Y-880190D01*
X2657619Y-870667D01*
X2705238Y-870667D01*
X2724286Y-880190D01*
X2733810Y-889714D01*
X2743333Y-908762D01*
X2743333Y-956381D01*
X2733810Y-975428D01*
X2724286Y-984952D01*
X2705238Y-994476D01*
X2657619Y-994476D01*
X2638571Y-984952D01*
X2629048Y-975428D01*
X2933809Y-994476D02*
X2819524Y-994476D01*
X2876667Y-994476D02*
X2876667Y-794476D01*
X2857619Y-823048D01*
X2838571Y-842095D01*
X2819524Y-851619D01*
X3010000Y-813524D02*
X3019524Y-804000D01*
X3038571Y-794476D01*
X3086190Y-794476D01*
X3105238Y-804000D01*
X3114762Y-813524D01*
X3124286Y-832571D01*
X3124286Y-851619D01*
X3114762Y-880190D01*
X3000476Y-994476D01*
X3124286Y-994476D01*
X3200476Y-794476D02*
X3200476Y-832571D01*
X3276667Y-794476D02*
X3276667Y-832571D01*
X3571905Y-1070667D02*
X3562381Y-1061143D01*
X3543333Y-1032571D01*
X3533809Y-1013524D01*
X3524286Y-984952D01*
X3514762Y-937333D01*
X3514762Y-899238D01*
X3524286Y-851619D01*
X3533809Y-823048D01*
X3543333Y-804000D01*
X3562381Y-775428D01*
X3571905Y-765905D01*
X3629048Y-794476D02*
X3752857Y-794476D01*
X3686190Y-870667D01*
X3714762Y-870667D01*
X3733809Y-880190D01*
X3743333Y-889714D01*
X3752857Y-908762D01*
X3752857Y-956381D01*
X3743333Y-975428D01*
X3733809Y-984952D01*
X3714762Y-994476D01*
X3657619Y-994476D01*
X3638571Y-984952D01*
X3629048Y-975428D01*
X3990952Y-994476D02*
X3990952Y-794476D01*
X4076667Y-994476D02*
X4076667Y-889714D01*
X4067143Y-870667D01*
X4048095Y-861143D01*
X4019524Y-861143D01*
X4000476Y-870667D01*
X3990952Y-880190D01*
X4200476Y-994476D02*
X4181428Y-984952D01*
X4171905Y-975428D01*
X4162381Y-956381D01*
X4162381Y-899238D01*
X4171905Y-880190D01*
X4181428Y-870667D01*
X4200476Y-861143D01*
X4229048Y-861143D01*
X4248095Y-870667D01*
X4257619Y-880190D01*
X4267143Y-899238D01*
X4267143Y-956381D01*
X4257619Y-975428D01*
X4248095Y-984952D01*
X4229048Y-994476D01*
X4200476Y-994476D01*
X4381429Y-994476D02*
X4362381Y-984952D01*
X4352857Y-965905D01*
X4352857Y-794476D01*
X4533810Y-984952D02*
X4514762Y-994476D01*
X4476667Y-994476D01*
X4457619Y-984952D01*
X4448095Y-965905D01*
X4448095Y-889714D01*
X4457619Y-870667D01*
X4476667Y-861143D01*
X4514762Y-861143D01*
X4533810Y-870667D01*
X4543333Y-889714D01*
X4543333Y-908762D01*
X4448095Y-927809D01*
X4619524Y-984952D02*
X4638571Y-994476D01*
X4676667Y-994476D01*
X4695714Y-984952D01*
X4705238Y-965905D01*
X4705238Y-956381D01*
X4695714Y-937333D01*
X4676667Y-927809D01*
X4648095Y-927809D01*
X4629048Y-918286D01*
X4619524Y-899238D01*
X4619524Y-889714D01*
X4629048Y-870667D01*
X4648095Y-861143D01*
X4676667Y-861143D01*
X4695714Y-870667D01*
X4771905Y-1070667D02*
X4781429Y-1061143D01*
X4800476Y-1032571D01*
X4810000Y-1013524D01*
X4819524Y-984952D01*
X4829048Y-937333D01*
X4829048Y-899238D01*
X4819524Y-851619D01*
X4810000Y-823048D01*
X4800476Y-804000D01*
X4781429Y-775428D01*
X4771905Y-765905D01*
M02*
