%TF.GenerationSoftware,KiCad,Pcbnew,(6.0.10)*%
%TF.CreationDate,2023-04-28T14:23:09-06:00*%
%TF.ProjectId,H2O-Esquem_tico_2023ver3-KiCad,48324f2d-4573-4717-9565-6de17469636f,rev?*%
%TF.SameCoordinates,Original*%
%TF.FileFunction,Copper,L2,Bot*%
%TF.FilePolarity,Positive*%
%FSLAX46Y46*%
G04 Gerber Fmt 4.6, Leading zero omitted, Abs format (unit mm)*
G04 Created by KiCad (PCBNEW (6.0.10)) date 2023-04-28 14:23:09*
%MOMM*%
%LPD*%
G01*
G04 APERTURE LIST*
%TA.AperFunction,ComponentPad*%
%ADD10R,1.800000X1.800000*%
%TD*%
%TA.AperFunction,ComponentPad*%
%ADD11C,1.800000*%
%TD*%
%TA.AperFunction,ComponentPad*%
%ADD12R,1.350000X1.350000*%
%TD*%
%TA.AperFunction,ComponentPad*%
%ADD13O,1.350000X1.350000*%
%TD*%
%TA.AperFunction,ComponentPad*%
%ADD14O,1.800000X1.600000*%
%TD*%
%TA.AperFunction,ComponentPad*%
%ADD15R,2.600000X2.600000*%
%TD*%
%TA.AperFunction,ComponentPad*%
%ADD16C,2.600000*%
%TD*%
%TA.AperFunction,Conductor*%
%ADD17C,0.500000*%
%TD*%
G04 APERTURE END LIST*
D10*
%TO.P,U2,1*%
%TO.N,Net-(1K8-Pad2)*%
X150695000Y-96050000D03*
D11*
%TO.P,U2,2,-*%
%TO.N,Net-(J8-Pad2)*%
X153235000Y-96050000D03*
%TO.P,U2,3,+*%
%TO.N,Net-(ESP8266_lolin1-Pad25)*%
X155775000Y-96050000D03*
%TO.P,U2,4,V+*%
%TO.N,Net-(ESP8266_lolin1-Pad15)*%
X158315000Y-96050000D03*
%TO.P,U2,5*%
%TO.N,N/C*%
X160855000Y-96050000D03*
%TO.P,U2,6*%
X163395000Y-96050000D03*
%TO.P,U2,7*%
X165935000Y-96050000D03*
%TO.P,U2,8*%
X165935000Y-88430000D03*
%TO.P,U2,9*%
X163395000Y-88430000D03*
%TO.P,U2,10*%
X160855000Y-88430000D03*
%TO.P,U2,11,V-*%
%TO.N,Net-(1K8-Pad1)*%
X158315000Y-88430000D03*
%TO.P,U2,12*%
%TO.N,N/C*%
X155775000Y-88430000D03*
%TO.P,U2,13*%
X153235000Y-88430000D03*
%TO.P,U2,14*%
X150695000Y-88430000D03*
%TD*%
D12*
%TO.P,J1,1,VBUS*%
%TO.N,Net-(ESP8266_lolin1-Pad15)*%
X99060000Y-66009833D03*
D13*
%TO.P,J1,4,GND*%
%TO.N,Net-(1K8-Pad1)*%
X101060000Y-66009833D03*
%TD*%
D11*
%TO.P,ESP8266_lolin1,1,A0(ADC0)*%
%TO.N,unconnected-(ESP8266_lolin1-Pad1)*%
X134620000Y-72390000D03*
%TO.P,ESP8266_lolin1,2,RSV*%
%TO.N,unconnected-(ESP8266_lolin1-Pad2)*%
X132080000Y-72390000D03*
%TO.P,ESP8266_lolin1,3,RSV*%
%TO.N,unconnected-(ESP8266_lolin1-Pad3)*%
X129540000Y-72390000D03*
%TO.P,ESP8266_lolin1,4,SD3(GPIO10)*%
%TO.N,unconnected-(ESP8266_lolin1-Pad4)*%
X127000000Y-72390000D03*
%TO.P,ESP8266_lolin1,5,SD2(GPIO9)*%
%TO.N,unconnected-(ESP8266_lolin1-Pad5)*%
X124460000Y-72390000D03*
%TO.P,ESP8266_lolin1,6,SD1(MOSI)*%
%TO.N,unconnected-(ESP8266_lolin1-Pad6)*%
X121920000Y-72390000D03*
%TO.P,ESP8266_lolin1,7,CMD(CS)*%
%TO.N,unconnected-(ESP8266_lolin1-Pad7)*%
X119380000Y-72390000D03*
%TO.P,ESP8266_lolin1,8,SDO(MISO)*%
%TO.N,unconnected-(ESP8266_lolin1-Pad8)*%
X116840000Y-72390000D03*
%TO.P,ESP8266_lolin1,9,CLK(SCLK)*%
%TO.N,unconnected-(ESP8266_lolin1-Pad9)*%
X114300000Y-72390000D03*
%TO.P,ESP8266_lolin1,10,GND*%
%TO.N,unconnected-(ESP8266_lolin1-Pad10)*%
X111760000Y-72390000D03*
%TO.P,ESP8266_lolin1,11,3.3V*%
%TO.N,unconnected-(ESP8266_lolin1-Pad11)*%
X109220000Y-72390000D03*
%TO.P,ESP8266_lolin1,12,EN*%
%TO.N,unconnected-(ESP8266_lolin1-Pad12)*%
X106680000Y-72390000D03*
%TO.P,ESP8266_lolin1,13,RST*%
%TO.N,unconnected-(ESP8266_lolin1-Pad13)*%
X104140000Y-72390000D03*
%TO.P,ESP8266_lolin1,14,GND*%
%TO.N,Net-(1K8-Pad1)*%
X101600000Y-72390000D03*
%TO.P,ESP8266_lolin1,15,VIN*%
%TO.N,Net-(ESP8266_lolin1-Pad15)*%
X99060000Y-72390000D03*
%TO.P,ESP8266_lolin1,16,3.3V*%
%TO.N,unconnected-(ESP8266_lolin1-Pad16)*%
X99060000Y-100330000D03*
%TO.P,ESP8266_lolin1,17,GND*%
%TO.N,unconnected-(ESP8266_lolin1-Pad17)*%
X101600000Y-100330000D03*
%TO.P,ESP8266_lolin1,18,TX(GPIO1)*%
%TO.N,unconnected-(ESP8266_lolin1-Pad18)*%
X104140000Y-100330000D03*
%TO.P,ESP8266_lolin1,19,RX(DPIO3)*%
%TO.N,unconnected-(ESP8266_lolin1-Pad19)*%
X106680000Y-100330000D03*
%TO.P,ESP8266_lolin1,20,D8(GPIO15)*%
%TO.N,unconnected-(ESP8266_lolin1-Pad20)*%
X109220000Y-100330000D03*
%TO.P,ESP8266_lolin1,21,D7(GPIO13)*%
%TO.N,unconnected-(ESP8266_lolin1-Pad21)*%
X111760000Y-100330000D03*
%TO.P,ESP8266_lolin1,22,D6(GPIO12)*%
%TO.N,unconnected-(ESP8266_lolin1-Pad22)*%
X114300000Y-100330000D03*
%TO.P,ESP8266_lolin1,23,D5(GPIO14)*%
%TO.N,unconnected-(ESP8266_lolin1-Pad23)*%
X116840000Y-100330000D03*
%TO.P,ESP8266_lolin1,24,GND*%
%TO.N,unconnected-(ESP8266_lolin1-Pad24)*%
X119380000Y-100330000D03*
%TO.P,ESP8266_lolin1,25,3.3V*%
%TO.N,Net-(ESP8266_lolin1-Pad25)*%
X121920000Y-100330000D03*
%TO.P,ESP8266_lolin1,26,D4(GPIO2)*%
%TO.N,Net-(1K8-Pad2)*%
X124460000Y-100330000D03*
%TO.P,ESP8266_lolin1,27,D3(GPIO0)*%
%TO.N,unconnected-(ESP8266_lolin1-Pad27)*%
X127000000Y-100330000D03*
%TO.P,ESP8266_lolin1,28,D2(GPIO4)*%
%TO.N,unconnected-(ESP8266_lolin1-Pad28)*%
X129540000Y-100330000D03*
%TO.P,ESP8266_lolin1,29,D1(GPIO5)*%
%TO.N,unconnected-(ESP8266_lolin1-Pad29)*%
X132080000Y-100330000D03*
%TO.P,ESP8266_lolin1,30,D0(GPIO16)*%
%TO.N,unconnected-(ESP8266_lolin1-Pad30)*%
X134620000Y-100330000D03*
%TD*%
%TO.P,1K8,1*%
%TO.N,Net-(1K8-Pad1)*%
X158320000Y-71930000D03*
D14*
%TO.P,1K8,2*%
%TO.N,Net-(1K8-Pad2)*%
X148160000Y-71930000D03*
%TD*%
D15*
%TO.P,J8,1,Pin_1*%
%TO.N,Net-(ESP8266_lolin1-Pad15)*%
X172710000Y-69175000D03*
D16*
%TO.P,J8,2,Pin_2*%
%TO.N,Net-(J8-Pad2)*%
X172710000Y-72675000D03*
%TO.P,J8,3,Pin_3*%
%TO.N,Net-(1K8-Pad1)*%
X172710000Y-76175000D03*
%TD*%
D17*
%TO.N,Net-(1K8-Pad1)*%
X165100000Y-71120000D02*
X165100000Y-76200000D01*
X158315000Y-88430000D02*
X158315000Y-82985000D01*
X156210000Y-68580000D02*
X157480000Y-68580000D01*
X168910000Y-80010000D02*
X171450000Y-80010000D01*
X101600000Y-68580000D02*
X101600000Y-72390000D01*
X102839833Y-66009833D02*
X105410000Y-68580000D01*
X172710000Y-78750000D02*
X172710000Y-76175000D01*
X162560000Y-68580000D02*
X165100000Y-71120000D01*
X171450000Y-80010000D02*
X172710000Y-78750000D01*
X162560000Y-68580000D02*
X156210000Y-68580000D01*
X101060000Y-68040000D02*
X101600000Y-68580000D01*
X158315000Y-82985000D02*
X165100000Y-76200000D01*
X158320000Y-69420000D02*
X157480000Y-68580000D01*
X165100000Y-76200000D02*
X168910000Y-80010000D01*
X105410000Y-68580000D02*
X156210000Y-68580000D01*
X101060000Y-66009833D02*
X102839833Y-66009833D01*
X158320000Y-71930000D02*
X158320000Y-69420000D01*
X101060000Y-66009833D02*
X101060000Y-68040000D01*
%TO.N,Net-(1K8-Pad2)*%
X144780000Y-75310000D02*
X148160000Y-71930000D01*
X124460000Y-100330000D02*
X124460000Y-101678075D01*
X150695000Y-100765000D02*
X150695000Y-96050000D01*
X144780000Y-93980000D02*
X144780000Y-75310000D01*
X124460000Y-101678075D02*
X125532386Y-102750461D01*
X148709539Y-102750461D02*
X150695000Y-100765000D01*
X146850000Y-96050000D02*
X144780000Y-93980000D01*
X150695000Y-96050000D02*
X146850000Y-96050000D01*
X125532386Y-102750461D02*
X148709539Y-102750461D01*
%TO.N,Net-(ESP8266_lolin1-Pad15)*%
X172720000Y-64770000D02*
X171450000Y-63500000D01*
X182880000Y-104140000D02*
X185420000Y-101600000D01*
X99849545Y-63500000D02*
X99060000Y-64289545D01*
X182880000Y-63500000D02*
X99849545Y-63500000D01*
X158315000Y-96050000D02*
X158315000Y-102435000D01*
X99060000Y-64289545D02*
X99060000Y-66009833D01*
X172710000Y-69175000D02*
X172710000Y-66050000D01*
X160020000Y-104140000D02*
X182880000Y-104140000D01*
X185420000Y-101600000D02*
X185420000Y-66040000D01*
X172720000Y-66040000D02*
X172720000Y-64770000D01*
X99060000Y-66009833D02*
X99060000Y-72390000D01*
X172710000Y-66050000D02*
X172720000Y-66040000D01*
X185420000Y-66040000D02*
X182880000Y-63500000D01*
X158315000Y-102435000D02*
X160020000Y-104140000D01*
%TO.N,Net-(ESP8266_lolin1-Pad25)*%
X155775000Y-96050000D02*
X155775000Y-102379305D01*
X121920000Y-101600000D02*
X124460000Y-104140000D01*
X154045323Y-104108982D02*
X154014305Y-104140000D01*
X155775000Y-102379305D02*
X154045323Y-104108982D01*
X154014305Y-104140000D02*
X149860000Y-104140000D01*
X124460000Y-104140000D02*
X149860000Y-104140000D01*
X121920000Y-100330000D02*
X121920000Y-101600000D01*
%TO.N,Net-(J8-Pad2)*%
X175545000Y-72675000D02*
X172710000Y-72675000D01*
X175260000Y-93980000D02*
X177800000Y-91440000D01*
X177800000Y-74930000D02*
X175545000Y-72675000D01*
X177800000Y-91440000D02*
X177800000Y-74930000D01*
X153235000Y-96050000D02*
X155305000Y-93980000D01*
X155305000Y-93980000D02*
X175260000Y-93980000D01*
%TD*%
%TA.AperFunction,NonConductor*%
G36*
X100219532Y-67029190D02*
G01*
X100276368Y-67071737D01*
X100301179Y-67138257D01*
X100301500Y-67147246D01*
X100301500Y-67972930D01*
X100300067Y-67991880D01*
X100296801Y-68013349D01*
X100297394Y-68020641D01*
X100297394Y-68020644D01*
X100301085Y-68066018D01*
X100301500Y-68076233D01*
X100301500Y-68084293D01*
X100301925Y-68087937D01*
X100304789Y-68112507D01*
X100305222Y-68116882D01*
X100310115Y-68177032D01*
X100311140Y-68189637D01*
X100313396Y-68196601D01*
X100314587Y-68202560D01*
X100315971Y-68208415D01*
X100316818Y-68215681D01*
X100341735Y-68284327D01*
X100343152Y-68288455D01*
X100365649Y-68357899D01*
X100369445Y-68364154D01*
X100371951Y-68369628D01*
X100374670Y-68375058D01*
X100377167Y-68381937D01*
X100381180Y-68388057D01*
X100381180Y-68388058D01*
X100417186Y-68442976D01*
X100419523Y-68446680D01*
X100457405Y-68509107D01*
X100461121Y-68513315D01*
X100461122Y-68513316D01*
X100464803Y-68517484D01*
X100464776Y-68517508D01*
X100467429Y-68520500D01*
X100470132Y-68523733D01*
X100474144Y-68529852D01*
X100479456Y-68534884D01*
X100530383Y-68583128D01*
X100532825Y-68585506D01*
X100804595Y-68857276D01*
X100838621Y-68919588D01*
X100841500Y-68946371D01*
X100841500Y-71135127D01*
X100821498Y-71203248D01*
X100791154Y-71235886D01*
X100661655Y-71333117D01*
X100658083Y-71336855D01*
X100540797Y-71459588D01*
X100501639Y-71500564D01*
X100434306Y-71599271D01*
X100379397Y-71644271D01*
X100308872Y-71652442D01*
X100245125Y-71621188D01*
X100224428Y-71596705D01*
X100182571Y-71532004D01*
X100179764Y-71527665D01*
X100142190Y-71486371D01*
X100077418Y-71415188D01*
X100023887Y-71356358D01*
X100019836Y-71353159D01*
X100019832Y-71353155D01*
X99866408Y-71231989D01*
X99825345Y-71174072D01*
X99818500Y-71133107D01*
X99818500Y-67283959D01*
X99838502Y-67215838D01*
X99892158Y-67169345D01*
X99900270Y-67165977D01*
X99973297Y-67138600D01*
X99981705Y-67135448D01*
X100098261Y-67048094D01*
X100100166Y-67050636D01*
X100148717Y-67024125D01*
X100219532Y-67029190D01*
G37*
%TD.AperFunction*%
%TA.AperFunction,NonConductor*%
G36*
X171151750Y-64278502D02*
G01*
X171172724Y-64295405D01*
X171924595Y-65047276D01*
X171958621Y-65109588D01*
X171961500Y-65136371D01*
X171961500Y-65902380D01*
X171957889Y-65932328D01*
X171952192Y-65955610D01*
X171951500Y-65966764D01*
X171951464Y-65966762D01*
X171951225Y-65970755D01*
X171950851Y-65974947D01*
X171949360Y-65982115D01*
X171949946Y-66003777D01*
X171951454Y-66059521D01*
X171951500Y-66062928D01*
X171951500Y-67240500D01*
X171931498Y-67308621D01*
X171877842Y-67355114D01*
X171825500Y-67366500D01*
X171361866Y-67366500D01*
X171299684Y-67373255D01*
X171163295Y-67424385D01*
X171046739Y-67511739D01*
X170959385Y-67628295D01*
X170908255Y-67764684D01*
X170901500Y-67826866D01*
X170901500Y-70523134D01*
X170908255Y-70585316D01*
X170959385Y-70721705D01*
X171046739Y-70838261D01*
X171163295Y-70925615D01*
X171299684Y-70976745D01*
X171361866Y-70983500D01*
X171569409Y-70983500D01*
X171637530Y-71003502D01*
X171684023Y-71057158D01*
X171694127Y-71127432D01*
X171664633Y-71192012D01*
X171638494Y-71214872D01*
X171609881Y-71233631D01*
X171609876Y-71233635D01*
X171605968Y-71236197D01*
X171569443Y-71268797D01*
X171425495Y-71397276D01*
X171405426Y-71415188D01*
X171330866Y-71504837D01*
X171252329Y-71599268D01*
X171233544Y-71621854D01*
X171094096Y-71851656D01*
X171092287Y-71855970D01*
X171092285Y-71855974D01*
X171015257Y-72039667D01*
X170990148Y-72099545D01*
X170923981Y-72360077D01*
X170897050Y-72627526D01*
X170897274Y-72632192D01*
X170897274Y-72632197D01*
X170903429Y-72760318D01*
X170909947Y-72896019D01*
X170962388Y-73159656D01*
X171053220Y-73412646D01*
X171055432Y-73416762D01*
X171055433Y-73416765D01*
X171119556Y-73536103D01*
X171180450Y-73649431D01*
X171183241Y-73653168D01*
X171183245Y-73653175D01*
X171272797Y-73773099D01*
X171341281Y-73864810D01*
X171344590Y-73868090D01*
X171344595Y-73868096D01*
X171528863Y-74050762D01*
X171532180Y-74054050D01*
X171535942Y-74056808D01*
X171535945Y-74056811D01*
X171648299Y-74139192D01*
X171748954Y-74212995D01*
X171753089Y-74215171D01*
X171753093Y-74215173D01*
X171941762Y-74314437D01*
X171992734Y-74363856D01*
X172008897Y-74432989D01*
X171985118Y-74499885D01*
X171935846Y-74540371D01*
X171830763Y-74588815D01*
X171826854Y-74591378D01*
X171609881Y-74733631D01*
X171609876Y-74733635D01*
X171605968Y-74736197D01*
X171505697Y-74825693D01*
X171423698Y-74898880D01*
X171405426Y-74915188D01*
X171233544Y-75121854D01*
X171231121Y-75125847D01*
X171112565Y-75321221D01*
X171094096Y-75351656D01*
X170990148Y-75599545D01*
X170923981Y-75860077D01*
X170897050Y-76127526D01*
X170909947Y-76396019D01*
X170962388Y-76659656D01*
X171053220Y-76912646D01*
X171180450Y-77149431D01*
X171183241Y-77153168D01*
X171183245Y-77153175D01*
X171264887Y-77262506D01*
X171341281Y-77364810D01*
X171344590Y-77368090D01*
X171344595Y-77368096D01*
X171528863Y-77550762D01*
X171532180Y-77554050D01*
X171535942Y-77556808D01*
X171535945Y-77556811D01*
X171648299Y-77639192D01*
X171748954Y-77712995D01*
X171753090Y-77715171D01*
X171753093Y-77715173D01*
X171808804Y-77744484D01*
X171884169Y-77784136D01*
X171935140Y-77833554D01*
X171951500Y-77895643D01*
X171951500Y-78383629D01*
X171931498Y-78451750D01*
X171914595Y-78472724D01*
X171172724Y-79214595D01*
X171110412Y-79248621D01*
X171083629Y-79251500D01*
X169276371Y-79251500D01*
X169208250Y-79231498D01*
X169187276Y-79214595D01*
X165895405Y-75922724D01*
X165861379Y-75860412D01*
X165858500Y-75833629D01*
X165858500Y-71187063D01*
X165859933Y-71168114D01*
X165862097Y-71153886D01*
X165863198Y-71146651D01*
X165862097Y-71133107D01*
X165858915Y-71093991D01*
X165858500Y-71083777D01*
X165858500Y-71075707D01*
X165858078Y-71072087D01*
X165858077Y-71072069D01*
X165855208Y-71047461D01*
X165854775Y-71043086D01*
X165853328Y-71025288D01*
X165849899Y-70983131D01*
X165849454Y-70977661D01*
X165849453Y-70977658D01*
X165848860Y-70970363D01*
X165846604Y-70963399D01*
X165845413Y-70957440D01*
X165844029Y-70951585D01*
X165843182Y-70944319D01*
X165818265Y-70875673D01*
X165816848Y-70871545D01*
X165796607Y-70809064D01*
X165796606Y-70809062D01*
X165794351Y-70802101D01*
X165790555Y-70795846D01*
X165788049Y-70790372D01*
X165785330Y-70784942D01*
X165782833Y-70778063D01*
X165742809Y-70717016D01*
X165740472Y-70713312D01*
X165705509Y-70655693D01*
X165705505Y-70655688D01*
X165702595Y-70650892D01*
X165695197Y-70642516D01*
X165695223Y-70642493D01*
X165692574Y-70639503D01*
X165689866Y-70636264D01*
X165685856Y-70630148D01*
X165680549Y-70625121D01*
X165680546Y-70625117D01*
X165629617Y-70576872D01*
X165627175Y-70574494D01*
X163143770Y-68091089D01*
X163131384Y-68076677D01*
X163122851Y-68065082D01*
X163122846Y-68065077D01*
X163118508Y-68059182D01*
X163112930Y-68054443D01*
X163112927Y-68054440D01*
X163078232Y-68024965D01*
X163070716Y-68018035D01*
X163065021Y-68012340D01*
X163057153Y-68006115D01*
X163042749Y-67994719D01*
X163039345Y-67991928D01*
X162989297Y-67949409D01*
X162989295Y-67949408D01*
X162983715Y-67944667D01*
X162977199Y-67941339D01*
X162972150Y-67937972D01*
X162967021Y-67934805D01*
X162961284Y-67930266D01*
X162895125Y-67899345D01*
X162891225Y-67897439D01*
X162826192Y-67864231D01*
X162819084Y-67862492D01*
X162813441Y-67860393D01*
X162807678Y-67858476D01*
X162801050Y-67855378D01*
X162729583Y-67840513D01*
X162725299Y-67839543D01*
X162654390Y-67822192D01*
X162648788Y-67821844D01*
X162648785Y-67821844D01*
X162643236Y-67821500D01*
X162643238Y-67821464D01*
X162639245Y-67821225D01*
X162635053Y-67820851D01*
X162627885Y-67819360D01*
X162567225Y-67821001D01*
X162550479Y-67821454D01*
X162547072Y-67821500D01*
X157567941Y-67821500D01*
X157556740Y-67821001D01*
X157555050Y-67820850D01*
X157547885Y-67819360D01*
X157476767Y-67821284D01*
X157470479Y-67821454D01*
X157467072Y-67821500D01*
X105776371Y-67821500D01*
X105708250Y-67801498D01*
X105687276Y-67784595D01*
X103423603Y-65520922D01*
X103411217Y-65506510D01*
X103402684Y-65494915D01*
X103402679Y-65494910D01*
X103398341Y-65489015D01*
X103392763Y-65484276D01*
X103392760Y-65484273D01*
X103358065Y-65454798D01*
X103350549Y-65447868D01*
X103344854Y-65442173D01*
X103338713Y-65437315D01*
X103322582Y-65424552D01*
X103319178Y-65421761D01*
X103269130Y-65379242D01*
X103269128Y-65379241D01*
X103263548Y-65374500D01*
X103257032Y-65371172D01*
X103251983Y-65367805D01*
X103246854Y-65364638D01*
X103241117Y-65360099D01*
X103174958Y-65329178D01*
X103171058Y-65327272D01*
X103106025Y-65294064D01*
X103098917Y-65292325D01*
X103093274Y-65290226D01*
X103087511Y-65288309D01*
X103080883Y-65285211D01*
X103071706Y-65283302D01*
X103009421Y-65270347D01*
X103005132Y-65269376D01*
X102934223Y-65252025D01*
X102928621Y-65251677D01*
X102928618Y-65251677D01*
X102923069Y-65251333D01*
X102923071Y-65251297D01*
X102919078Y-65251058D01*
X102914886Y-65250684D01*
X102907718Y-65249193D01*
X102841508Y-65250984D01*
X102830312Y-65251287D01*
X102826905Y-65251333D01*
X102031811Y-65251333D01*
X101963690Y-65231331D01*
X101943560Y-65214221D01*
X101943280Y-65214524D01*
X101787796Y-65070796D01*
X101787793Y-65070794D01*
X101783556Y-65066877D01*
X101599599Y-64950809D01*
X101397572Y-64870209D01*
X101184239Y-64827774D01*
X101178464Y-64827698D01*
X101178460Y-64827698D01*
X101069419Y-64826271D01*
X100966746Y-64824927D01*
X100961049Y-64825906D01*
X100961048Y-64825906D01*
X100758065Y-64860785D01*
X100758062Y-64860786D01*
X100752375Y-64861763D01*
X100548307Y-64937047D01*
X100361376Y-65048260D01*
X100357032Y-65052070D01*
X100339592Y-65067364D01*
X100275188Y-65097241D01*
X100204855Y-65087555D01*
X100155689Y-65048198D01*
X100153522Y-65045306D01*
X100098261Y-64971572D01*
X99981705Y-64884218D01*
X99927139Y-64863762D01*
X99900270Y-64853689D01*
X99843506Y-64811047D01*
X99818806Y-64744485D01*
X99818500Y-64735707D01*
X99818500Y-64655916D01*
X99838502Y-64587795D01*
X99855405Y-64566821D01*
X100126821Y-64295405D01*
X100189133Y-64261379D01*
X100215916Y-64258500D01*
X171083629Y-64258500D01*
X171151750Y-64278502D01*
G37*
%TD.AperFunction*%
%TA.AperFunction,NonConductor*%
G36*
X162486225Y-94758502D02*
G01*
X162532718Y-94812158D01*
X162542822Y-94882432D01*
X162513328Y-94947012D01*
X162493757Y-94965260D01*
X162456655Y-94993117D01*
X162296639Y-95160564D01*
X162229306Y-95259271D01*
X162174397Y-95304271D01*
X162103872Y-95312442D01*
X162040125Y-95281188D01*
X162019428Y-95256705D01*
X161977571Y-95192004D01*
X161974764Y-95187665D01*
X161954596Y-95165500D01*
X161843481Y-95043387D01*
X161818887Y-95016358D01*
X161814836Y-95013159D01*
X161814832Y-95013155D01*
X161777354Y-94983557D01*
X161751806Y-94963381D01*
X161710744Y-94905466D01*
X161707512Y-94834543D01*
X161743137Y-94773131D01*
X161806308Y-94740728D01*
X161829899Y-94738500D01*
X162418104Y-94738500D01*
X162486225Y-94758502D01*
G37*
%TD.AperFunction*%
%TA.AperFunction,NonConductor*%
G36*
X159946225Y-94758502D02*
G01*
X159992718Y-94812158D01*
X160002822Y-94882432D01*
X159973328Y-94947012D01*
X159953757Y-94965260D01*
X159916655Y-94993117D01*
X159756639Y-95160564D01*
X159689306Y-95259271D01*
X159634397Y-95304271D01*
X159563872Y-95312442D01*
X159500125Y-95281188D01*
X159479428Y-95256705D01*
X159437571Y-95192004D01*
X159434764Y-95187665D01*
X159414596Y-95165500D01*
X159303481Y-95043387D01*
X159278887Y-95016358D01*
X159274836Y-95013159D01*
X159274832Y-95013155D01*
X159237354Y-94983557D01*
X159211806Y-94963381D01*
X159170744Y-94905466D01*
X159167512Y-94834543D01*
X159203137Y-94773131D01*
X159266308Y-94740728D01*
X159289899Y-94738500D01*
X159878104Y-94738500D01*
X159946225Y-94758502D01*
G37*
%TD.AperFunction*%
%TA.AperFunction,NonConductor*%
G36*
X165026225Y-94758502D02*
G01*
X165072718Y-94812158D01*
X165082822Y-94882432D01*
X165053328Y-94947012D01*
X165033757Y-94965260D01*
X164996655Y-94993117D01*
X164836639Y-95160564D01*
X164769306Y-95259271D01*
X164714397Y-95304271D01*
X164643872Y-95312442D01*
X164580125Y-95281188D01*
X164559428Y-95256705D01*
X164517571Y-95192004D01*
X164514764Y-95187665D01*
X164494596Y-95165500D01*
X164383481Y-95043387D01*
X164358887Y-95016358D01*
X164354836Y-95013159D01*
X164354832Y-95013155D01*
X164317354Y-94983557D01*
X164291806Y-94963381D01*
X164250744Y-94905466D01*
X164247512Y-94834543D01*
X164283137Y-94773131D01*
X164346308Y-94740728D01*
X164369899Y-94738500D01*
X164958104Y-94738500D01*
X165026225Y-94758502D01*
G37*
%TD.AperFunction*%
%TA.AperFunction,NonConductor*%
G36*
X157406225Y-94758502D02*
G01*
X157452718Y-94812158D01*
X157462822Y-94882432D01*
X157433328Y-94947012D01*
X157413757Y-94965260D01*
X157376655Y-94993117D01*
X157216639Y-95160564D01*
X157149306Y-95259271D01*
X157094397Y-95304271D01*
X157023872Y-95312442D01*
X156960125Y-95281188D01*
X156939428Y-95256705D01*
X156897571Y-95192004D01*
X156894764Y-95187665D01*
X156874596Y-95165500D01*
X156763481Y-95043387D01*
X156738887Y-95016358D01*
X156734836Y-95013159D01*
X156734832Y-95013155D01*
X156697354Y-94983557D01*
X156671806Y-94963381D01*
X156630744Y-94905466D01*
X156627512Y-94834543D01*
X156663137Y-94773131D01*
X156726308Y-94740728D01*
X156749899Y-94738500D01*
X157338104Y-94738500D01*
X157406225Y-94758502D01*
G37*
%TD.AperFunction*%
%TA.AperFunction,NonConductor*%
G36*
X123276622Y-101102553D02*
G01*
X123296715Y-101127536D01*
X123316800Y-101160313D01*
X123316804Y-101160318D01*
X123319501Y-101164719D01*
X123471147Y-101339784D01*
X123648517Y-101487039D01*
X123649349Y-101487730D01*
X123649206Y-101487902D01*
X123692101Y-101541570D01*
X123701500Y-101589321D01*
X123701500Y-101611005D01*
X123700067Y-101629955D01*
X123697989Y-101643616D01*
X123696801Y-101651424D01*
X123697394Y-101658716D01*
X123697394Y-101658719D01*
X123701085Y-101704093D01*
X123701500Y-101714308D01*
X123701500Y-101722368D01*
X123701925Y-101726012D01*
X123704789Y-101750582D01*
X123705222Y-101754957D01*
X123706414Y-101769604D01*
X123711140Y-101827712D01*
X123713396Y-101834676D01*
X123714587Y-101840635D01*
X123715971Y-101846490D01*
X123716818Y-101853756D01*
X123741735Y-101922402D01*
X123743152Y-101926530D01*
X123763091Y-101988077D01*
X123765649Y-101995974D01*
X123769445Y-102002229D01*
X123771951Y-102007703D01*
X123774670Y-102013133D01*
X123777167Y-102020012D01*
X123781180Y-102026132D01*
X123781180Y-102026133D01*
X123799684Y-102054356D01*
X123820307Y-102122291D01*
X123800927Y-102190592D01*
X123747698Y-102237572D01*
X123677519Y-102248317D01*
X123612672Y-102219414D01*
X123605217Y-102212536D01*
X122906434Y-101513753D01*
X122872408Y-101451441D01*
X122877473Y-101380626D01*
X122906589Y-101335407D01*
X122992642Y-101249653D01*
X122996303Y-101246005D01*
X122999319Y-101241808D01*
X122999326Y-101241800D01*
X123086960Y-101119844D01*
X123142954Y-101076196D01*
X123213658Y-101069750D01*
X123276622Y-101102553D01*
G37*
%TD.AperFunction*%
%TA.AperFunction,NonConductor*%
G36*
X154591622Y-96822553D02*
G01*
X154611715Y-96847536D01*
X154631800Y-96880313D01*
X154631806Y-96880321D01*
X154634501Y-96884719D01*
X154786147Y-97059784D01*
X154963517Y-97207039D01*
X154964349Y-97207730D01*
X154964206Y-97207902D01*
X155007101Y-97261570D01*
X155016500Y-97309321D01*
X155016500Y-102012934D01*
X154996498Y-102081055D01*
X154979595Y-102102029D01*
X153737029Y-103344595D01*
X153674717Y-103378621D01*
X153647934Y-103381500D01*
X149455371Y-103381500D01*
X149387250Y-103361498D01*
X149340757Y-103307842D01*
X149330653Y-103237568D01*
X149360147Y-103172988D01*
X149366276Y-103166405D01*
X151183911Y-101348770D01*
X151198323Y-101336384D01*
X151209918Y-101327851D01*
X151209923Y-101327846D01*
X151215818Y-101323508D01*
X151220557Y-101317930D01*
X151220560Y-101317927D01*
X151250035Y-101283232D01*
X151256965Y-101275716D01*
X151262660Y-101270021D01*
X151267518Y-101263880D01*
X151280281Y-101247749D01*
X151283072Y-101244345D01*
X151325591Y-101194297D01*
X151325592Y-101194295D01*
X151330333Y-101188715D01*
X151333661Y-101182199D01*
X151337028Y-101177150D01*
X151340195Y-101172021D01*
X151344734Y-101166284D01*
X151375655Y-101100125D01*
X151377561Y-101096225D01*
X151410769Y-101031192D01*
X151412508Y-101024083D01*
X151414604Y-101018449D01*
X151416523Y-101012679D01*
X151419622Y-101006050D01*
X151427696Y-100967237D01*
X151434490Y-100934571D01*
X151435461Y-100930282D01*
X151451473Y-100864844D01*
X151452808Y-100859390D01*
X151453500Y-100848236D01*
X151453535Y-100848238D01*
X151453775Y-100844266D01*
X151454152Y-100840045D01*
X151455641Y-100832885D01*
X151453546Y-100755458D01*
X151453500Y-100752050D01*
X151453500Y-97584500D01*
X151473502Y-97516379D01*
X151527158Y-97469886D01*
X151579500Y-97458500D01*
X151643134Y-97458500D01*
X151705316Y-97451745D01*
X151841705Y-97400615D01*
X151958261Y-97313261D01*
X152045615Y-97196705D01*
X152070180Y-97131178D01*
X152112822Y-97074414D01*
X152179383Y-97049714D01*
X152248732Y-97064921D01*
X152268647Y-97078464D01*
X152400942Y-97188297D01*
X152424349Y-97207730D01*
X152624322Y-97324584D01*
X152840694Y-97407209D01*
X152845760Y-97408240D01*
X152845761Y-97408240D01*
X152898846Y-97419040D01*
X153067656Y-97453385D01*
X153197089Y-97458131D01*
X153293949Y-97461683D01*
X153293953Y-97461683D01*
X153299113Y-97461872D01*
X153304233Y-97461216D01*
X153304235Y-97461216D01*
X153378166Y-97451745D01*
X153528847Y-97432442D01*
X153533795Y-97430957D01*
X153533802Y-97430956D01*
X153745747Y-97367369D01*
X153750690Y-97365886D01*
X153831236Y-97326427D01*
X153954049Y-97266262D01*
X153954052Y-97266260D01*
X153958684Y-97263991D01*
X154147243Y-97129494D01*
X154311303Y-96966005D01*
X154314319Y-96961808D01*
X154314326Y-96961800D01*
X154401960Y-96839844D01*
X154457954Y-96796196D01*
X154528658Y-96789750D01*
X154591622Y-96822553D01*
G37*
%TD.AperFunction*%
%TA.AperFunction,NonConductor*%
G36*
X182581750Y-64278502D02*
G01*
X182602724Y-64295405D01*
X184624595Y-66317276D01*
X184658621Y-66379588D01*
X184661500Y-66406371D01*
X184661500Y-101233629D01*
X184641498Y-101301750D01*
X184624595Y-101322724D01*
X182602724Y-103344595D01*
X182540412Y-103378621D01*
X182513629Y-103381500D01*
X160386371Y-103381500D01*
X160318250Y-103361498D01*
X160297276Y-103344595D01*
X159110405Y-102157724D01*
X159076379Y-102095412D01*
X159073500Y-102068629D01*
X159073500Y-97304052D01*
X159093502Y-97235931D01*
X159126332Y-97201473D01*
X159223039Y-97132493D01*
X159223042Y-97132491D01*
X159227243Y-97129494D01*
X159391303Y-96966005D01*
X159394319Y-96961808D01*
X159394326Y-96961800D01*
X159481960Y-96839844D01*
X159537954Y-96796196D01*
X159608658Y-96789750D01*
X159671622Y-96822553D01*
X159691715Y-96847536D01*
X159711800Y-96880313D01*
X159711806Y-96880321D01*
X159714501Y-96884719D01*
X159866147Y-97059784D01*
X160044349Y-97207730D01*
X160244322Y-97324584D01*
X160460694Y-97407209D01*
X160465760Y-97408240D01*
X160465761Y-97408240D01*
X160518846Y-97419040D01*
X160687656Y-97453385D01*
X160817089Y-97458131D01*
X160913949Y-97461683D01*
X160913953Y-97461683D01*
X160919113Y-97461872D01*
X160924233Y-97461216D01*
X160924235Y-97461216D01*
X160998166Y-97451745D01*
X161148847Y-97432442D01*
X161153795Y-97430957D01*
X161153802Y-97430956D01*
X161365747Y-97367369D01*
X161370690Y-97365886D01*
X161451236Y-97326427D01*
X161574049Y-97266262D01*
X161574052Y-97266260D01*
X161578684Y-97263991D01*
X161767243Y-97129494D01*
X161931303Y-96966005D01*
X161934319Y-96961808D01*
X161934326Y-96961800D01*
X162021960Y-96839844D01*
X162077954Y-96796196D01*
X162148658Y-96789750D01*
X162211622Y-96822553D01*
X162231715Y-96847536D01*
X162251800Y-96880313D01*
X162251806Y-96880321D01*
X162254501Y-96884719D01*
X162406147Y-97059784D01*
X162584349Y-97207730D01*
X162784322Y-97324584D01*
X163000694Y-97407209D01*
X163005760Y-97408240D01*
X163005761Y-97408240D01*
X163058846Y-97419040D01*
X163227656Y-97453385D01*
X163357089Y-97458131D01*
X163453949Y-97461683D01*
X163453953Y-97461683D01*
X163459113Y-97461872D01*
X163464233Y-97461216D01*
X163464235Y-97461216D01*
X163538166Y-97451745D01*
X163688847Y-97432442D01*
X163693795Y-97430957D01*
X163693802Y-97430956D01*
X163905747Y-97367369D01*
X163910690Y-97365886D01*
X163991236Y-97326427D01*
X164114049Y-97266262D01*
X164114052Y-97266260D01*
X164118684Y-97263991D01*
X164307243Y-97129494D01*
X164471303Y-96966005D01*
X164474319Y-96961808D01*
X164474326Y-96961800D01*
X164561960Y-96839844D01*
X164617954Y-96796196D01*
X164688658Y-96789750D01*
X164751622Y-96822553D01*
X164771715Y-96847536D01*
X164791800Y-96880313D01*
X164791806Y-96880321D01*
X164794501Y-96884719D01*
X164946147Y-97059784D01*
X165124349Y-97207730D01*
X165324322Y-97324584D01*
X165540694Y-97407209D01*
X165545760Y-97408240D01*
X165545761Y-97408240D01*
X165598846Y-97419040D01*
X165767656Y-97453385D01*
X165897089Y-97458131D01*
X165993949Y-97461683D01*
X165993953Y-97461683D01*
X165999113Y-97461872D01*
X166004233Y-97461216D01*
X166004235Y-97461216D01*
X166078166Y-97451745D01*
X166228847Y-97432442D01*
X166233795Y-97430957D01*
X166233802Y-97430956D01*
X166445747Y-97367369D01*
X166450690Y-97365886D01*
X166531236Y-97326427D01*
X166654049Y-97266262D01*
X166654052Y-97266260D01*
X166658684Y-97263991D01*
X166847243Y-97129494D01*
X167011303Y-96966005D01*
X167146458Y-96777917D01*
X167150889Y-96768953D01*
X167246784Y-96574922D01*
X167246785Y-96574920D01*
X167249078Y-96570280D01*
X167316408Y-96348671D01*
X167346640Y-96119041D01*
X167348327Y-96050000D01*
X167342032Y-95973434D01*
X167329773Y-95824318D01*
X167329772Y-95824312D01*
X167329349Y-95819167D01*
X167272925Y-95594533D01*
X167270866Y-95589797D01*
X167182630Y-95386868D01*
X167182628Y-95386865D01*
X167180570Y-95382131D01*
X167054764Y-95187665D01*
X167034596Y-95165500D01*
X166923481Y-95043387D01*
X166898887Y-95016358D01*
X166894836Y-95013159D01*
X166894832Y-95013155D01*
X166857354Y-94983557D01*
X166831806Y-94963381D01*
X166790744Y-94905466D01*
X166787512Y-94834543D01*
X166823137Y-94773131D01*
X166886308Y-94740728D01*
X166909899Y-94738500D01*
X175192930Y-94738500D01*
X175211880Y-94739933D01*
X175226115Y-94742099D01*
X175226119Y-94742099D01*
X175233349Y-94743199D01*
X175240641Y-94742606D01*
X175240644Y-94742606D01*
X175286018Y-94738915D01*
X175296233Y-94738500D01*
X175304293Y-94738500D01*
X175317583Y-94736951D01*
X175332507Y-94735211D01*
X175336882Y-94734778D01*
X175402339Y-94729454D01*
X175402342Y-94729453D01*
X175409637Y-94728860D01*
X175416601Y-94726604D01*
X175422560Y-94725413D01*
X175428415Y-94724029D01*
X175435681Y-94723182D01*
X175504327Y-94698265D01*
X175508455Y-94696848D01*
X175570936Y-94676607D01*
X175570938Y-94676606D01*
X175577899Y-94674351D01*
X175584154Y-94670555D01*
X175589628Y-94668049D01*
X175595058Y-94665330D01*
X175601937Y-94662833D01*
X175636586Y-94640116D01*
X175662976Y-94622814D01*
X175666680Y-94620477D01*
X175729107Y-94582595D01*
X175737484Y-94575197D01*
X175737508Y-94575224D01*
X175740500Y-94572571D01*
X175743733Y-94569868D01*
X175749852Y-94565856D01*
X175803128Y-94509617D01*
X175805506Y-94507175D01*
X178288911Y-92023770D01*
X178303323Y-92011384D01*
X178314918Y-92002851D01*
X178314923Y-92002846D01*
X178320818Y-91998508D01*
X178325557Y-91992930D01*
X178325560Y-91992927D01*
X178355035Y-91958232D01*
X178361965Y-91950716D01*
X178367660Y-91945021D01*
X178385281Y-91922749D01*
X178388072Y-91919345D01*
X178430591Y-91869297D01*
X178430592Y-91869295D01*
X178435333Y-91863715D01*
X178438661Y-91857199D01*
X178442020Y-91852162D01*
X178445194Y-91847023D01*
X178449734Y-91841284D01*
X178480636Y-91775163D01*
X178482569Y-91771209D01*
X178486239Y-91764021D01*
X178515769Y-91706192D01*
X178517510Y-91699076D01*
X178519604Y-91693446D01*
X178521523Y-91687679D01*
X178524621Y-91681050D01*
X178539483Y-91609600D01*
X178540453Y-91605315D01*
X178556473Y-91539844D01*
X178557808Y-91534390D01*
X178558500Y-91523236D01*
X178558536Y-91523238D01*
X178558775Y-91519248D01*
X178559150Y-91515050D01*
X178560640Y-91507885D01*
X178558546Y-91430479D01*
X178558500Y-91427072D01*
X178558500Y-74997070D01*
X178559933Y-74978120D01*
X178562099Y-74963885D01*
X178562099Y-74963881D01*
X178563199Y-74956651D01*
X178559827Y-74915188D01*
X178558915Y-74903982D01*
X178558500Y-74893767D01*
X178558500Y-74885707D01*
X178555209Y-74857480D01*
X178554778Y-74853121D01*
X178549454Y-74787662D01*
X178549453Y-74787659D01*
X178548860Y-74780364D01*
X178546604Y-74773400D01*
X178545417Y-74767461D01*
X178544030Y-74761590D01*
X178543182Y-74754319D01*
X178540686Y-74747443D01*
X178540684Y-74747434D01*
X178518275Y-74685702D01*
X178516865Y-74681598D01*
X178494352Y-74612101D01*
X178490556Y-74605846D01*
X178488057Y-74600387D01*
X178485329Y-74594939D01*
X178482833Y-74588063D01*
X178442805Y-74527010D01*
X178440481Y-74523327D01*
X178405500Y-74465680D01*
X178405499Y-74465679D01*
X178402595Y-74460893D01*
X178395198Y-74452517D01*
X178395225Y-74452493D01*
X178392570Y-74449499D01*
X178389868Y-74446268D01*
X178385856Y-74440148D01*
X178329617Y-74386872D01*
X178327175Y-74384494D01*
X176128770Y-72186089D01*
X176116384Y-72171677D01*
X176107851Y-72160082D01*
X176107846Y-72160077D01*
X176103508Y-72154182D01*
X176097930Y-72149443D01*
X176097927Y-72149440D01*
X176063232Y-72119965D01*
X176055716Y-72113035D01*
X176050021Y-72107340D01*
X176040168Y-72099545D01*
X176027749Y-72089719D01*
X176024345Y-72086928D01*
X175974297Y-72044409D01*
X175974295Y-72044408D01*
X175968715Y-72039667D01*
X175962199Y-72036339D01*
X175957150Y-72032972D01*
X175952021Y-72029805D01*
X175946284Y-72025266D01*
X175880125Y-71994345D01*
X175876225Y-71992439D01*
X175811192Y-71959231D01*
X175804084Y-71957492D01*
X175798441Y-71955393D01*
X175792678Y-71953476D01*
X175786050Y-71950378D01*
X175714583Y-71935513D01*
X175710299Y-71934543D01*
X175691733Y-71930000D01*
X175639390Y-71917192D01*
X175633788Y-71916844D01*
X175633785Y-71916844D01*
X175628236Y-71916500D01*
X175628238Y-71916464D01*
X175624245Y-71916225D01*
X175620053Y-71915851D01*
X175612885Y-71914360D01*
X175546675Y-71916151D01*
X175535479Y-71916454D01*
X175532072Y-71916500D01*
X174432739Y-71916500D01*
X174364618Y-71896498D01*
X174323346Y-71853023D01*
X174248535Y-71722131D01*
X174213518Y-71660864D01*
X174200438Y-71644271D01*
X174111937Y-71532009D01*
X174047105Y-71449769D01*
X173851317Y-71265591D01*
X173846330Y-71262131D01*
X173775547Y-71213027D01*
X173730977Y-71157764D01*
X173723360Y-71087177D01*
X173755115Y-71023678D01*
X173816158Y-70987426D01*
X173847367Y-70983500D01*
X174058134Y-70983500D01*
X174120316Y-70976745D01*
X174256705Y-70925615D01*
X174373261Y-70838261D01*
X174460615Y-70721705D01*
X174511745Y-70585316D01*
X174518500Y-70523134D01*
X174518500Y-67826866D01*
X174511745Y-67764684D01*
X174460615Y-67628295D01*
X174373261Y-67511739D01*
X174256705Y-67424385D01*
X174120316Y-67373255D01*
X174058134Y-67366500D01*
X173594500Y-67366500D01*
X173526379Y-67346498D01*
X173479886Y-67292842D01*
X173468500Y-67240500D01*
X173468500Y-66187620D01*
X173472111Y-66157672D01*
X173476473Y-66139844D01*
X173477808Y-66134390D01*
X173478500Y-66123236D01*
X173478536Y-66123238D01*
X173478775Y-66119245D01*
X173479149Y-66115053D01*
X173480640Y-66107885D01*
X173478546Y-66030479D01*
X173478500Y-66027072D01*
X173478500Y-64837069D01*
X173479933Y-64818118D01*
X173482099Y-64803883D01*
X173482099Y-64803881D01*
X173483199Y-64796651D01*
X173478915Y-64743982D01*
X173478500Y-64733767D01*
X173478500Y-64725707D01*
X173475211Y-64697493D01*
X173474778Y-64693118D01*
X173469454Y-64627661D01*
X173469453Y-64627658D01*
X173468860Y-64620363D01*
X173466604Y-64613399D01*
X173465413Y-64607440D01*
X173464029Y-64601585D01*
X173463182Y-64594319D01*
X173438265Y-64525673D01*
X173436848Y-64521545D01*
X173416607Y-64459064D01*
X173416606Y-64459062D01*
X173414351Y-64452101D01*
X173410554Y-64445844D01*
X173407507Y-64439189D01*
X173407964Y-64438980D01*
X173403147Y-64428928D01*
X173402833Y-64428063D01*
X173402832Y-64428061D01*
X173402830Y-64428056D01*
X173405806Y-64426976D01*
X173395704Y-64371062D01*
X173422857Y-64305463D01*
X173481165Y-64264958D01*
X173520985Y-64258500D01*
X182513629Y-64258500D01*
X182581750Y-64278502D01*
G37*
%TD.AperFunction*%
%TA.AperFunction,NonConductor*%
G36*
X190442121Y-60980002D02*
G01*
X190488614Y-61033658D01*
X190500000Y-61086000D01*
X190500000Y-109094000D01*
X190479998Y-109162121D01*
X190426342Y-109208614D01*
X190374000Y-109220000D01*
X91566000Y-109220000D01*
X91497879Y-109199998D01*
X91451386Y-109146342D01*
X91440000Y-109094000D01*
X91440000Y-100295469D01*
X97647095Y-100295469D01*
X97647392Y-100300622D01*
X97647392Y-100300625D01*
X97653043Y-100398629D01*
X97660427Y-100526697D01*
X97661564Y-100531743D01*
X97661565Y-100531749D01*
X97693741Y-100674523D01*
X97711346Y-100752642D01*
X97713288Y-100757424D01*
X97713289Y-100757428D01*
X97788467Y-100942568D01*
X97798484Y-100967237D01*
X97919501Y-101164719D01*
X98071147Y-101339784D01*
X98249349Y-101487730D01*
X98449322Y-101604584D01*
X98665694Y-101687209D01*
X98670760Y-101688240D01*
X98670761Y-101688240D01*
X98723846Y-101699040D01*
X98892656Y-101733385D01*
X99023324Y-101738176D01*
X99118949Y-101741683D01*
X99118953Y-101741683D01*
X99124113Y-101741872D01*
X99129233Y-101741216D01*
X99129235Y-101741216D01*
X99202270Y-101731860D01*
X99353847Y-101712442D01*
X99358795Y-101710957D01*
X99358802Y-101710956D01*
X99570747Y-101647369D01*
X99575690Y-101645886D01*
X99586419Y-101640630D01*
X99779049Y-101546262D01*
X99779052Y-101546260D01*
X99783684Y-101543991D01*
X99972243Y-101409494D01*
X100136303Y-101246005D01*
X100139319Y-101241808D01*
X100139326Y-101241800D01*
X100226960Y-101119844D01*
X100282954Y-101076196D01*
X100353658Y-101069750D01*
X100416622Y-101102553D01*
X100436715Y-101127536D01*
X100456800Y-101160313D01*
X100456804Y-101160318D01*
X100459501Y-101164719D01*
X100611147Y-101339784D01*
X100789349Y-101487730D01*
X100989322Y-101604584D01*
X101205694Y-101687209D01*
X101210760Y-101688240D01*
X101210761Y-101688240D01*
X101263846Y-101699040D01*
X101432656Y-101733385D01*
X101563324Y-101738176D01*
X101658949Y-101741683D01*
X101658953Y-101741683D01*
X101664113Y-101741872D01*
X101669233Y-101741216D01*
X101669235Y-101741216D01*
X101742270Y-101731860D01*
X101893847Y-101712442D01*
X101898795Y-101710957D01*
X101898802Y-101710956D01*
X102110747Y-101647369D01*
X102115690Y-101645886D01*
X102126419Y-101640630D01*
X102319049Y-101546262D01*
X102319052Y-101546260D01*
X102323684Y-101543991D01*
X102512243Y-101409494D01*
X102676303Y-101246005D01*
X102679319Y-101241808D01*
X102679326Y-101241800D01*
X102766960Y-101119844D01*
X102822954Y-101076196D01*
X102893658Y-101069750D01*
X102956622Y-101102553D01*
X102976715Y-101127536D01*
X102996800Y-101160313D01*
X102996804Y-101160318D01*
X102999501Y-101164719D01*
X103151147Y-101339784D01*
X103329349Y-101487730D01*
X103529322Y-101604584D01*
X103745694Y-101687209D01*
X103750760Y-101688240D01*
X103750761Y-101688240D01*
X103803846Y-101699040D01*
X103972656Y-101733385D01*
X104103324Y-101738176D01*
X104198949Y-101741683D01*
X104198953Y-101741683D01*
X104204113Y-101741872D01*
X104209233Y-101741216D01*
X104209235Y-101741216D01*
X104282270Y-101731860D01*
X104433847Y-101712442D01*
X104438795Y-101710957D01*
X104438802Y-101710956D01*
X104650747Y-101647369D01*
X104655690Y-101645886D01*
X104666419Y-101640630D01*
X104859049Y-101546262D01*
X104859052Y-101546260D01*
X104863684Y-101543991D01*
X105052243Y-101409494D01*
X105216303Y-101246005D01*
X105219319Y-101241808D01*
X105219326Y-101241800D01*
X105306960Y-101119844D01*
X105362954Y-101076196D01*
X105433658Y-101069750D01*
X105496622Y-101102553D01*
X105516715Y-101127536D01*
X105536800Y-101160313D01*
X105536804Y-101160318D01*
X105539501Y-101164719D01*
X105691147Y-101339784D01*
X105869349Y-101487730D01*
X106069322Y-101604584D01*
X106285694Y-101687209D01*
X106290760Y-101688240D01*
X106290761Y-101688240D01*
X106343846Y-101699040D01*
X106512656Y-101733385D01*
X106643324Y-101738176D01*
X106738949Y-101741683D01*
X106738953Y-101741683D01*
X106744113Y-101741872D01*
X106749233Y-101741216D01*
X106749235Y-101741216D01*
X106822270Y-101731860D01*
X106973847Y-101712442D01*
X106978795Y-101710957D01*
X106978802Y-101710956D01*
X107190747Y-101647369D01*
X107195690Y-101645886D01*
X107206419Y-101640630D01*
X107399049Y-101546262D01*
X107399052Y-101546260D01*
X107403684Y-101543991D01*
X107592243Y-101409494D01*
X107756303Y-101246005D01*
X107759319Y-101241808D01*
X107759326Y-101241800D01*
X107846960Y-101119844D01*
X107902954Y-101076196D01*
X107973658Y-101069750D01*
X108036622Y-101102553D01*
X108056715Y-101127536D01*
X108076800Y-101160313D01*
X108076804Y-101160318D01*
X108079501Y-101164719D01*
X108231147Y-101339784D01*
X108409349Y-101487730D01*
X108609322Y-101604584D01*
X108825694Y-101687209D01*
X108830760Y-101688240D01*
X108830761Y-101688240D01*
X108883846Y-101699040D01*
X109052656Y-101733385D01*
X109183324Y-101738176D01*
X109278949Y-101741683D01*
X109278953Y-101741683D01*
X109284113Y-101741872D01*
X109289233Y-101741216D01*
X109289235Y-101741216D01*
X109362270Y-101731860D01*
X109513847Y-101712442D01*
X109518795Y-101710957D01*
X109518802Y-101710956D01*
X109730747Y-101647369D01*
X109735690Y-101645886D01*
X109746419Y-101640630D01*
X109939049Y-101546262D01*
X109939052Y-101546260D01*
X109943684Y-101543991D01*
X110132243Y-101409494D01*
X110296303Y-101246005D01*
X110299319Y-101241808D01*
X110299326Y-101241800D01*
X110386960Y-101119844D01*
X110442954Y-101076196D01*
X110513658Y-101069750D01*
X110576622Y-101102553D01*
X110596715Y-101127536D01*
X110616800Y-101160313D01*
X110616804Y-101160318D01*
X110619501Y-101164719D01*
X110771147Y-101339784D01*
X110949349Y-101487730D01*
X111149322Y-101604584D01*
X111365694Y-101687209D01*
X111370760Y-101688240D01*
X111370761Y-101688240D01*
X111423846Y-101699040D01*
X111592656Y-101733385D01*
X111723324Y-101738176D01*
X111818949Y-101741683D01*
X111818953Y-101741683D01*
X111824113Y-101741872D01*
X111829233Y-101741216D01*
X111829235Y-101741216D01*
X111902270Y-101731860D01*
X112053847Y-101712442D01*
X112058795Y-101710957D01*
X112058802Y-101710956D01*
X112270747Y-101647369D01*
X112275690Y-101645886D01*
X112286419Y-101640630D01*
X112479049Y-101546262D01*
X112479052Y-101546260D01*
X112483684Y-101543991D01*
X112672243Y-101409494D01*
X112836303Y-101246005D01*
X112839319Y-101241808D01*
X112839326Y-101241800D01*
X112926960Y-101119844D01*
X112982954Y-101076196D01*
X113053658Y-101069750D01*
X113116622Y-101102553D01*
X113136715Y-101127536D01*
X113156800Y-101160313D01*
X113156804Y-101160318D01*
X113159501Y-101164719D01*
X113311147Y-101339784D01*
X113489349Y-101487730D01*
X113689322Y-101604584D01*
X113905694Y-101687209D01*
X113910760Y-101688240D01*
X113910761Y-101688240D01*
X113963846Y-101699040D01*
X114132656Y-101733385D01*
X114263324Y-101738176D01*
X114358949Y-101741683D01*
X114358953Y-101741683D01*
X114364113Y-101741872D01*
X114369233Y-101741216D01*
X114369235Y-101741216D01*
X114442270Y-101731860D01*
X114593847Y-101712442D01*
X114598795Y-101710957D01*
X114598802Y-101710956D01*
X114810747Y-101647369D01*
X114815690Y-101645886D01*
X114826419Y-101640630D01*
X115019049Y-101546262D01*
X115019052Y-101546260D01*
X115023684Y-101543991D01*
X115212243Y-101409494D01*
X115376303Y-101246005D01*
X115379319Y-101241808D01*
X115379326Y-101241800D01*
X115466960Y-101119844D01*
X115522954Y-101076196D01*
X115593658Y-101069750D01*
X115656622Y-101102553D01*
X115676715Y-101127536D01*
X115696800Y-101160313D01*
X115696804Y-101160318D01*
X115699501Y-101164719D01*
X115851147Y-101339784D01*
X116029349Y-101487730D01*
X116229322Y-101604584D01*
X116445694Y-101687209D01*
X116450760Y-101688240D01*
X116450761Y-101688240D01*
X116503846Y-101699040D01*
X116672656Y-101733385D01*
X116803324Y-101738176D01*
X116898949Y-101741683D01*
X116898953Y-101741683D01*
X116904113Y-101741872D01*
X116909233Y-101741216D01*
X116909235Y-101741216D01*
X116982270Y-101731860D01*
X117133847Y-101712442D01*
X117138795Y-101710957D01*
X117138802Y-101710956D01*
X117350747Y-101647369D01*
X117355690Y-101645886D01*
X117366419Y-101640630D01*
X117559049Y-101546262D01*
X117559052Y-101546260D01*
X117563684Y-101543991D01*
X117752243Y-101409494D01*
X117916303Y-101246005D01*
X117919319Y-101241808D01*
X117919326Y-101241800D01*
X118006960Y-101119844D01*
X118062954Y-101076196D01*
X118133658Y-101069750D01*
X118196622Y-101102553D01*
X118216715Y-101127536D01*
X118236800Y-101160313D01*
X118236804Y-101160318D01*
X118239501Y-101164719D01*
X118391147Y-101339784D01*
X118569349Y-101487730D01*
X118769322Y-101604584D01*
X118985694Y-101687209D01*
X118990760Y-101688240D01*
X118990761Y-101688240D01*
X119043846Y-101699040D01*
X119212656Y-101733385D01*
X119343324Y-101738176D01*
X119438949Y-101741683D01*
X119438953Y-101741683D01*
X119444113Y-101741872D01*
X119449233Y-101741216D01*
X119449235Y-101741216D01*
X119522270Y-101731860D01*
X119673847Y-101712442D01*
X119678795Y-101710957D01*
X119678802Y-101710956D01*
X119890747Y-101647369D01*
X119895690Y-101645886D01*
X119906419Y-101640630D01*
X120099049Y-101546262D01*
X120099052Y-101546260D01*
X120103684Y-101543991D01*
X120292243Y-101409494D01*
X120456303Y-101246005D01*
X120459319Y-101241808D01*
X120459326Y-101241800D01*
X120546960Y-101119844D01*
X120602954Y-101076196D01*
X120673658Y-101069750D01*
X120736622Y-101102553D01*
X120756715Y-101127536D01*
X120776800Y-101160313D01*
X120776804Y-101160318D01*
X120779501Y-101164719D01*
X120931147Y-101339784D01*
X121065639Y-101451441D01*
X121109349Y-101487730D01*
X121108295Y-101488999D01*
X121148047Y-101538715D01*
X121157039Y-101576273D01*
X121161085Y-101626019D01*
X121161500Y-101636233D01*
X121161500Y-101644293D01*
X121161925Y-101647937D01*
X121164789Y-101672507D01*
X121165222Y-101676882D01*
X121170360Y-101740046D01*
X121171140Y-101749637D01*
X121173396Y-101756601D01*
X121174587Y-101762560D01*
X121175971Y-101768415D01*
X121176818Y-101775681D01*
X121201735Y-101844327D01*
X121203152Y-101848455D01*
X121207096Y-101860628D01*
X121225649Y-101917899D01*
X121229445Y-101924154D01*
X121231951Y-101929628D01*
X121234670Y-101935058D01*
X121237167Y-101941937D01*
X121241180Y-101948057D01*
X121241180Y-101948058D01*
X121277186Y-102002976D01*
X121279523Y-102006680D01*
X121317405Y-102069107D01*
X121321121Y-102073315D01*
X121321122Y-102073316D01*
X121324803Y-102077484D01*
X121324776Y-102077508D01*
X121327429Y-102080500D01*
X121330132Y-102083733D01*
X121334144Y-102089852D01*
X121339456Y-102094884D01*
X121390383Y-102143128D01*
X121392825Y-102145506D01*
X123876230Y-104628911D01*
X123888616Y-104643323D01*
X123897149Y-104654918D01*
X123897154Y-104654923D01*
X123901492Y-104660818D01*
X123907070Y-104665557D01*
X123907073Y-104665560D01*
X123941768Y-104695035D01*
X123949284Y-104701965D01*
X123954979Y-104707660D01*
X123957861Y-104709940D01*
X123977251Y-104725281D01*
X123980655Y-104728072D01*
X124030703Y-104770591D01*
X124036285Y-104775333D01*
X124042801Y-104778661D01*
X124047838Y-104782020D01*
X124052977Y-104785194D01*
X124058716Y-104789734D01*
X124065349Y-104792834D01*
X124124837Y-104820636D01*
X124128791Y-104822569D01*
X124193808Y-104855769D01*
X124200924Y-104857510D01*
X124206554Y-104859604D01*
X124212321Y-104861523D01*
X124218950Y-104864621D01*
X124226110Y-104866110D01*
X124226112Y-104866111D01*
X124290396Y-104879482D01*
X124294680Y-104880452D01*
X124365610Y-104897808D01*
X124371212Y-104898156D01*
X124371215Y-104898156D01*
X124376764Y-104898500D01*
X124376762Y-104898536D01*
X124380752Y-104898775D01*
X124384950Y-104899150D01*
X124392115Y-104900640D01*
X124469520Y-104898546D01*
X124472928Y-104898500D01*
X153947235Y-104898500D01*
X153966185Y-104899933D01*
X153980420Y-104902099D01*
X153980424Y-104902099D01*
X153987654Y-104903199D01*
X153994946Y-104902606D01*
X153994949Y-104902606D01*
X154040323Y-104898915D01*
X154050538Y-104898500D01*
X154058598Y-104898500D01*
X154075985Y-104896473D01*
X154086812Y-104895211D01*
X154091187Y-104894778D01*
X154156644Y-104889454D01*
X154156647Y-104889453D01*
X154163942Y-104888860D01*
X154170906Y-104886604D01*
X154176865Y-104885413D01*
X154182720Y-104884029D01*
X154189986Y-104883182D01*
X154258632Y-104858265D01*
X154262760Y-104856848D01*
X154325241Y-104836607D01*
X154325243Y-104836606D01*
X154332204Y-104834351D01*
X154338459Y-104830555D01*
X154343933Y-104828049D01*
X154349363Y-104825330D01*
X154356242Y-104822833D01*
X154401998Y-104792834D01*
X154417281Y-104782814D01*
X154420985Y-104780477D01*
X154483412Y-104742595D01*
X154491789Y-104735197D01*
X154491813Y-104735224D01*
X154494805Y-104732571D01*
X154498038Y-104729868D01*
X154504157Y-104725856D01*
X154557433Y-104669617D01*
X154559811Y-104667175D01*
X156263911Y-102963075D01*
X156278323Y-102950689D01*
X156289918Y-102942156D01*
X156289923Y-102942151D01*
X156295818Y-102937813D01*
X156300557Y-102932235D01*
X156300560Y-102932232D01*
X156330035Y-102897537D01*
X156336965Y-102890021D01*
X156342661Y-102884325D01*
X156344924Y-102881464D01*
X156344929Y-102881459D01*
X156360293Y-102862039D01*
X156363082Y-102858638D01*
X156379076Y-102839812D01*
X156410333Y-102803020D01*
X156413659Y-102796507D01*
X156417020Y-102791468D01*
X156420196Y-102786326D01*
X156424734Y-102780589D01*
X156455655Y-102714430D01*
X156457561Y-102710530D01*
X156473511Y-102679294D01*
X156490769Y-102645497D01*
X156492508Y-102638388D01*
X156494604Y-102632754D01*
X156496523Y-102626984D01*
X156499622Y-102620355D01*
X156501635Y-102610681D01*
X156514490Y-102548876D01*
X156515461Y-102544587D01*
X156523464Y-102511882D01*
X156532808Y-102473695D01*
X156533500Y-102462541D01*
X156533535Y-102462543D01*
X156533775Y-102458571D01*
X156534152Y-102454350D01*
X156535641Y-102447190D01*
X156533546Y-102369763D01*
X156533500Y-102366355D01*
X156533500Y-97304052D01*
X156553502Y-97235931D01*
X156586332Y-97201473D01*
X156683039Y-97132493D01*
X156683042Y-97132491D01*
X156687243Y-97129494D01*
X156851303Y-96966005D01*
X156854319Y-96961808D01*
X156854326Y-96961800D01*
X156941960Y-96839844D01*
X156997954Y-96796196D01*
X157068658Y-96789750D01*
X157131622Y-96822553D01*
X157151715Y-96847536D01*
X157171800Y-96880313D01*
X157171806Y-96880321D01*
X157174501Y-96884719D01*
X157326147Y-97059784D01*
X157503517Y-97207039D01*
X157504349Y-97207730D01*
X157504206Y-97207902D01*
X157547101Y-97261570D01*
X157556500Y-97309321D01*
X157556500Y-102367930D01*
X157555067Y-102386880D01*
X157551801Y-102408349D01*
X157552394Y-102415641D01*
X157552394Y-102415644D01*
X157556085Y-102461018D01*
X157556500Y-102471233D01*
X157556500Y-102479293D01*
X157556925Y-102482937D01*
X157559789Y-102507507D01*
X157560222Y-102511882D01*
X157563058Y-102546742D01*
X157566140Y-102584637D01*
X157568396Y-102591601D01*
X157569587Y-102597560D01*
X157570971Y-102603415D01*
X157571818Y-102610681D01*
X157596735Y-102679327D01*
X157598152Y-102683455D01*
X157620649Y-102752899D01*
X157624445Y-102759154D01*
X157626951Y-102764628D01*
X157629670Y-102770058D01*
X157632167Y-102776937D01*
X157636180Y-102783057D01*
X157636180Y-102783058D01*
X157672186Y-102837976D01*
X157674523Y-102841680D01*
X157712405Y-102904107D01*
X157716121Y-102908315D01*
X157716122Y-102908316D01*
X157719803Y-102912484D01*
X157719776Y-102912508D01*
X157722429Y-102915500D01*
X157725132Y-102918733D01*
X157729144Y-102924852D01*
X157742826Y-102937813D01*
X157785383Y-102978128D01*
X157787825Y-102980506D01*
X159436230Y-104628911D01*
X159448616Y-104643323D01*
X159457149Y-104654918D01*
X159457154Y-104654923D01*
X159461492Y-104660818D01*
X159467070Y-104665557D01*
X159467073Y-104665560D01*
X159501768Y-104695035D01*
X159509284Y-104701965D01*
X159514979Y-104707660D01*
X159517861Y-104709940D01*
X159537251Y-104725281D01*
X159540655Y-104728072D01*
X159590703Y-104770591D01*
X159596285Y-104775333D01*
X159602801Y-104778661D01*
X159607850Y-104782028D01*
X159612979Y-104785195D01*
X159618716Y-104789734D01*
X159684875Y-104820655D01*
X159688769Y-104822558D01*
X159753808Y-104855769D01*
X159760916Y-104857508D01*
X159766559Y-104859607D01*
X159772322Y-104861524D01*
X159778950Y-104864622D01*
X159850393Y-104879482D01*
X159850412Y-104879486D01*
X159854696Y-104880456D01*
X159925610Y-104897808D01*
X159931212Y-104898156D01*
X159931215Y-104898156D01*
X159936764Y-104898500D01*
X159936762Y-104898536D01*
X159940755Y-104898775D01*
X159944947Y-104899149D01*
X159952115Y-104900640D01*
X160029520Y-104898546D01*
X160032928Y-104898500D01*
X182812930Y-104898500D01*
X182831880Y-104899933D01*
X182846115Y-104902099D01*
X182846119Y-104902099D01*
X182853349Y-104903199D01*
X182860641Y-104902606D01*
X182860644Y-104902606D01*
X182906018Y-104898915D01*
X182916233Y-104898500D01*
X182924293Y-104898500D01*
X182941680Y-104896473D01*
X182952507Y-104895211D01*
X182956882Y-104894778D01*
X183022339Y-104889454D01*
X183022342Y-104889453D01*
X183029637Y-104888860D01*
X183036601Y-104886604D01*
X183042560Y-104885413D01*
X183048415Y-104884029D01*
X183055681Y-104883182D01*
X183124327Y-104858265D01*
X183128455Y-104856848D01*
X183190936Y-104836607D01*
X183190938Y-104836606D01*
X183197899Y-104834351D01*
X183204154Y-104830555D01*
X183209628Y-104828049D01*
X183215058Y-104825330D01*
X183221937Y-104822833D01*
X183267693Y-104792834D01*
X183282976Y-104782814D01*
X183286680Y-104780477D01*
X183349107Y-104742595D01*
X183357484Y-104735197D01*
X183357508Y-104735224D01*
X183360500Y-104732571D01*
X183363733Y-104729868D01*
X183369852Y-104725856D01*
X183423128Y-104669617D01*
X183425506Y-104667175D01*
X185908911Y-102183770D01*
X185923323Y-102171384D01*
X185934918Y-102162851D01*
X185934923Y-102162846D01*
X185940818Y-102158508D01*
X185945557Y-102152930D01*
X185945560Y-102152927D01*
X185975035Y-102118232D01*
X185981965Y-102110716D01*
X185987660Y-102105021D01*
X185999661Y-102089852D01*
X186005281Y-102082749D01*
X186008072Y-102079345D01*
X186050591Y-102029297D01*
X186050592Y-102029295D01*
X186055333Y-102023715D01*
X186058661Y-102017199D01*
X186062020Y-102012162D01*
X186065194Y-102007023D01*
X186069734Y-102001284D01*
X186100636Y-101935163D01*
X186102569Y-101931209D01*
X186112921Y-101910936D01*
X186135769Y-101866192D01*
X186137510Y-101859076D01*
X186139604Y-101853446D01*
X186141523Y-101847679D01*
X186144621Y-101841050D01*
X186147396Y-101827712D01*
X186159482Y-101769604D01*
X186160453Y-101765315D01*
X186161172Y-101762376D01*
X186177808Y-101694390D01*
X186178500Y-101683236D01*
X186178536Y-101683238D01*
X186178775Y-101679248D01*
X186179150Y-101675050D01*
X186180640Y-101667885D01*
X186178546Y-101590479D01*
X186178500Y-101587072D01*
X186178500Y-66107063D01*
X186179933Y-66088114D01*
X186182097Y-66073886D01*
X186183198Y-66066651D01*
X186178915Y-66013990D01*
X186178500Y-66003777D01*
X186178500Y-65995707D01*
X186178078Y-65992087D01*
X186178077Y-65992069D01*
X186175208Y-65967461D01*
X186174775Y-65963086D01*
X186173724Y-65950156D01*
X186171073Y-65917571D01*
X186169454Y-65897661D01*
X186169453Y-65897658D01*
X186168860Y-65890363D01*
X186166604Y-65883399D01*
X186165413Y-65877440D01*
X186164029Y-65871585D01*
X186163182Y-65864319D01*
X186138265Y-65795673D01*
X186136848Y-65791545D01*
X186116607Y-65729064D01*
X186116606Y-65729062D01*
X186114351Y-65722101D01*
X186110555Y-65715846D01*
X186108049Y-65710372D01*
X186105330Y-65704942D01*
X186102833Y-65698063D01*
X186062809Y-65637016D01*
X186060472Y-65633312D01*
X186025509Y-65575693D01*
X186025505Y-65575688D01*
X186022595Y-65570892D01*
X186015197Y-65562516D01*
X186015223Y-65562493D01*
X186012574Y-65559503D01*
X186009866Y-65556264D01*
X186005856Y-65550148D01*
X186000549Y-65545121D01*
X186000546Y-65545117D01*
X185949617Y-65496872D01*
X185947175Y-65494494D01*
X183463770Y-63011089D01*
X183451384Y-62996677D01*
X183442851Y-62985082D01*
X183442846Y-62985077D01*
X183438508Y-62979182D01*
X183432930Y-62974443D01*
X183432927Y-62974440D01*
X183398232Y-62944965D01*
X183390716Y-62938035D01*
X183385021Y-62932340D01*
X183378880Y-62927482D01*
X183362749Y-62914719D01*
X183359345Y-62911928D01*
X183309297Y-62869409D01*
X183309295Y-62869408D01*
X183303715Y-62864667D01*
X183297199Y-62861339D01*
X183292150Y-62857972D01*
X183287021Y-62854805D01*
X183281284Y-62850266D01*
X183215125Y-62819345D01*
X183211225Y-62817439D01*
X183146192Y-62784231D01*
X183139084Y-62782492D01*
X183133441Y-62780393D01*
X183127678Y-62778476D01*
X183121050Y-62775378D01*
X183049583Y-62760513D01*
X183045299Y-62759543D01*
X183010958Y-62751140D01*
X182974390Y-62742192D01*
X182968788Y-62741844D01*
X182968785Y-62741844D01*
X182963236Y-62741500D01*
X182963238Y-62741464D01*
X182959245Y-62741225D01*
X182955053Y-62740851D01*
X182947885Y-62739360D01*
X182887225Y-62741001D01*
X182870479Y-62741454D01*
X182867072Y-62741500D01*
X171537941Y-62741500D01*
X171526740Y-62741001D01*
X171525050Y-62740850D01*
X171517885Y-62739360D01*
X171446767Y-62741284D01*
X171440479Y-62741454D01*
X171437072Y-62741500D01*
X99916614Y-62741500D01*
X99897666Y-62740067D01*
X99890325Y-62738950D01*
X99883428Y-62737901D01*
X99883426Y-62737901D01*
X99876196Y-62736801D01*
X99868904Y-62737394D01*
X99868901Y-62737394D01*
X99823527Y-62741085D01*
X99813312Y-62741500D01*
X99805252Y-62741500D01*
X99791962Y-62743049D01*
X99777038Y-62744789D01*
X99772663Y-62745222D01*
X99707206Y-62750546D01*
X99707203Y-62750547D01*
X99699908Y-62751140D01*
X99692944Y-62753396D01*
X99686985Y-62754587D01*
X99681130Y-62755971D01*
X99673864Y-62756818D01*
X99605218Y-62781735D01*
X99601090Y-62783152D01*
X99538609Y-62803393D01*
X99538607Y-62803394D01*
X99531646Y-62805649D01*
X99525391Y-62809445D01*
X99519917Y-62811951D01*
X99514487Y-62814670D01*
X99507608Y-62817167D01*
X99446561Y-62857191D01*
X99442872Y-62859518D01*
X99434388Y-62864667D01*
X99385238Y-62894491D01*
X99385233Y-62894495D01*
X99380437Y-62897405D01*
X99372061Y-62904803D01*
X99372038Y-62904777D01*
X99369048Y-62907426D01*
X99365809Y-62910134D01*
X99359693Y-62914144D01*
X99354666Y-62919451D01*
X99354662Y-62919454D01*
X99306417Y-62970383D01*
X99304039Y-62972825D01*
X98571089Y-63705775D01*
X98556677Y-63718161D01*
X98545082Y-63726694D01*
X98545077Y-63726699D01*
X98539182Y-63731037D01*
X98534443Y-63736615D01*
X98534440Y-63736618D01*
X98504965Y-63771313D01*
X98498035Y-63778829D01*
X98492340Y-63784524D01*
X98490060Y-63787406D01*
X98474719Y-63806796D01*
X98471928Y-63810200D01*
X98429409Y-63860248D01*
X98424667Y-63865830D01*
X98421339Y-63872346D01*
X98417972Y-63877395D01*
X98414805Y-63882524D01*
X98410266Y-63888261D01*
X98379345Y-63954420D01*
X98377442Y-63958314D01*
X98344231Y-64023353D01*
X98342492Y-64030461D01*
X98340393Y-64036104D01*
X98338476Y-64041867D01*
X98335378Y-64048495D01*
X98333888Y-64055657D01*
X98333888Y-64055658D01*
X98320514Y-64119957D01*
X98319544Y-64124241D01*
X98302192Y-64195155D01*
X98301500Y-64206309D01*
X98301464Y-64206307D01*
X98301225Y-64210300D01*
X98300851Y-64214492D01*
X98299360Y-64221660D01*
X98300531Y-64264958D01*
X98301454Y-64299066D01*
X98301500Y-64302473D01*
X98301500Y-64735707D01*
X98281498Y-64803828D01*
X98227842Y-64850321D01*
X98219730Y-64853689D01*
X98192861Y-64863762D01*
X98138295Y-64884218D01*
X98021739Y-64971572D01*
X97934385Y-65088128D01*
X97883255Y-65224517D01*
X97876500Y-65286699D01*
X97876500Y-66732967D01*
X97883255Y-66795149D01*
X97934385Y-66931538D01*
X98021739Y-67048094D01*
X98138295Y-67135448D01*
X98146703Y-67138600D01*
X98219730Y-67165977D01*
X98276494Y-67208619D01*
X98301194Y-67275181D01*
X98301500Y-67283959D01*
X98301500Y-71135127D01*
X98281498Y-71203248D01*
X98251154Y-71235886D01*
X98121655Y-71333117D01*
X98118083Y-71336855D01*
X98000797Y-71459588D01*
X97961639Y-71500564D01*
X97958730Y-71504829D01*
X97958724Y-71504837D01*
X97943152Y-71527665D01*
X97831119Y-71691899D01*
X97733602Y-71901981D01*
X97671707Y-72125169D01*
X97647095Y-72355469D01*
X97647392Y-72360622D01*
X97647392Y-72360625D01*
X97653067Y-72459041D01*
X97660427Y-72586697D01*
X97661564Y-72591743D01*
X97661565Y-72591749D01*
X97693741Y-72734523D01*
X97711346Y-72812642D01*
X97713288Y-72817424D01*
X97713289Y-72817428D01*
X97796540Y-73022450D01*
X97798484Y-73027237D01*
X97919501Y-73224719D01*
X98071147Y-73399784D01*
X98249349Y-73547730D01*
X98449322Y-73664584D01*
X98665694Y-73747209D01*
X98670760Y-73748240D01*
X98670761Y-73748240D01*
X98723846Y-73759040D01*
X98892656Y-73793385D01*
X99023324Y-73798176D01*
X99118949Y-73801683D01*
X99118953Y-73801683D01*
X99124113Y-73801872D01*
X99129233Y-73801216D01*
X99129235Y-73801216D01*
X99202270Y-73791860D01*
X99353847Y-73772442D01*
X99358795Y-73770957D01*
X99358802Y-73770956D01*
X99570747Y-73707369D01*
X99575690Y-73705886D01*
X99656236Y-73666427D01*
X99779049Y-73606262D01*
X99779052Y-73606260D01*
X99783684Y-73603991D01*
X99972243Y-73469494D01*
X100136303Y-73306005D01*
X100139319Y-73301808D01*
X100139326Y-73301800D01*
X100226960Y-73179844D01*
X100282954Y-73136196D01*
X100353658Y-73129750D01*
X100416622Y-73162553D01*
X100436715Y-73187536D01*
X100456800Y-73220313D01*
X100456804Y-73220318D01*
X100459501Y-73224719D01*
X100611147Y-73399784D01*
X100789349Y-73547730D01*
X100989322Y-73664584D01*
X101205694Y-73747209D01*
X101210760Y-73748240D01*
X101210761Y-73748240D01*
X101263846Y-73759040D01*
X101432656Y-73793385D01*
X101563324Y-73798176D01*
X101658949Y-73801683D01*
X101658953Y-73801683D01*
X101664113Y-73801872D01*
X101669233Y-73801216D01*
X101669235Y-73801216D01*
X101742270Y-73791860D01*
X101893847Y-73772442D01*
X101898795Y-73770957D01*
X101898802Y-73770956D01*
X102110747Y-73707369D01*
X102115690Y-73705886D01*
X102196236Y-73666427D01*
X102319049Y-73606262D01*
X102319052Y-73606260D01*
X102323684Y-73603991D01*
X102512243Y-73469494D01*
X102676303Y-73306005D01*
X102679319Y-73301808D01*
X102679326Y-73301800D01*
X102766960Y-73179844D01*
X102822954Y-73136196D01*
X102893658Y-73129750D01*
X102956622Y-73162553D01*
X102976715Y-73187536D01*
X102996800Y-73220313D01*
X102996804Y-73220318D01*
X102999501Y-73224719D01*
X103151147Y-73399784D01*
X103329349Y-73547730D01*
X103529322Y-73664584D01*
X103745694Y-73747209D01*
X103750760Y-73748240D01*
X103750761Y-73748240D01*
X103803846Y-73759040D01*
X103972656Y-73793385D01*
X104103324Y-73798176D01*
X104198949Y-73801683D01*
X104198953Y-73801683D01*
X104204113Y-73801872D01*
X104209233Y-73801216D01*
X104209235Y-73801216D01*
X104282270Y-73791860D01*
X104433847Y-73772442D01*
X104438795Y-73770957D01*
X104438802Y-73770956D01*
X104650747Y-73707369D01*
X104655690Y-73705886D01*
X104736236Y-73666427D01*
X104859049Y-73606262D01*
X104859052Y-73606260D01*
X104863684Y-73603991D01*
X105052243Y-73469494D01*
X105216303Y-73306005D01*
X105219319Y-73301808D01*
X105219326Y-73301800D01*
X105306960Y-73179844D01*
X105362954Y-73136196D01*
X105433658Y-73129750D01*
X105496622Y-73162553D01*
X105516715Y-73187536D01*
X105536800Y-73220313D01*
X105536804Y-73220318D01*
X105539501Y-73224719D01*
X105691147Y-73399784D01*
X105869349Y-73547730D01*
X106069322Y-73664584D01*
X106285694Y-73747209D01*
X106290760Y-73748240D01*
X106290761Y-73748240D01*
X106343846Y-73759040D01*
X106512656Y-73793385D01*
X106643324Y-73798176D01*
X106738949Y-73801683D01*
X106738953Y-73801683D01*
X106744113Y-73801872D01*
X106749233Y-73801216D01*
X106749235Y-73801216D01*
X106822270Y-73791860D01*
X106973847Y-73772442D01*
X106978795Y-73770957D01*
X106978802Y-73770956D01*
X107190747Y-73707369D01*
X107195690Y-73705886D01*
X107276236Y-73666427D01*
X107399049Y-73606262D01*
X107399052Y-73606260D01*
X107403684Y-73603991D01*
X107592243Y-73469494D01*
X107756303Y-73306005D01*
X107759319Y-73301808D01*
X107759326Y-73301800D01*
X107846960Y-73179844D01*
X107902954Y-73136196D01*
X107973658Y-73129750D01*
X108036622Y-73162553D01*
X108056715Y-73187536D01*
X108076800Y-73220313D01*
X108076804Y-73220318D01*
X108079501Y-73224719D01*
X108231147Y-73399784D01*
X108409349Y-73547730D01*
X108609322Y-73664584D01*
X108825694Y-73747209D01*
X108830760Y-73748240D01*
X108830761Y-73748240D01*
X108883846Y-73759040D01*
X109052656Y-73793385D01*
X109183324Y-73798176D01*
X109278949Y-73801683D01*
X109278953Y-73801683D01*
X109284113Y-73801872D01*
X109289233Y-73801216D01*
X109289235Y-73801216D01*
X109362270Y-73791860D01*
X109513847Y-73772442D01*
X109518795Y-73770957D01*
X109518802Y-73770956D01*
X109730747Y-73707369D01*
X109735690Y-73705886D01*
X109816236Y-73666427D01*
X109939049Y-73606262D01*
X109939052Y-73606260D01*
X109943684Y-73603991D01*
X110132243Y-73469494D01*
X110296303Y-73306005D01*
X110299319Y-73301808D01*
X110299326Y-73301800D01*
X110386960Y-73179844D01*
X110442954Y-73136196D01*
X110513658Y-73129750D01*
X110576622Y-73162553D01*
X110596715Y-73187536D01*
X110616800Y-73220313D01*
X110616804Y-73220318D01*
X110619501Y-73224719D01*
X110771147Y-73399784D01*
X110949349Y-73547730D01*
X111149322Y-73664584D01*
X111365694Y-73747209D01*
X111370760Y-73748240D01*
X111370761Y-73748240D01*
X111423846Y-73759040D01*
X111592656Y-73793385D01*
X111723324Y-73798176D01*
X111818949Y-73801683D01*
X111818953Y-73801683D01*
X111824113Y-73801872D01*
X111829233Y-73801216D01*
X111829235Y-73801216D01*
X111902270Y-73791860D01*
X112053847Y-73772442D01*
X112058795Y-73770957D01*
X112058802Y-73770956D01*
X112270747Y-73707369D01*
X112275690Y-73705886D01*
X112356236Y-73666427D01*
X112479049Y-73606262D01*
X112479052Y-73606260D01*
X112483684Y-73603991D01*
X112672243Y-73469494D01*
X112836303Y-73306005D01*
X112839319Y-73301808D01*
X112839326Y-73301800D01*
X112926960Y-73179844D01*
X112982954Y-73136196D01*
X113053658Y-73129750D01*
X113116622Y-73162553D01*
X113136715Y-73187536D01*
X113156800Y-73220313D01*
X113156804Y-73220318D01*
X113159501Y-73224719D01*
X113311147Y-73399784D01*
X113489349Y-73547730D01*
X113689322Y-73664584D01*
X113905694Y-73747209D01*
X113910760Y-73748240D01*
X113910761Y-73748240D01*
X113963846Y-73759040D01*
X114132656Y-73793385D01*
X114263324Y-73798176D01*
X114358949Y-73801683D01*
X114358953Y-73801683D01*
X114364113Y-73801872D01*
X114369233Y-73801216D01*
X114369235Y-73801216D01*
X114442270Y-73791860D01*
X114593847Y-73772442D01*
X114598795Y-73770957D01*
X114598802Y-73770956D01*
X114810747Y-73707369D01*
X114815690Y-73705886D01*
X114896236Y-73666427D01*
X115019049Y-73606262D01*
X115019052Y-73606260D01*
X115023684Y-73603991D01*
X115212243Y-73469494D01*
X115376303Y-73306005D01*
X115379319Y-73301808D01*
X115379326Y-73301800D01*
X115466960Y-73179844D01*
X115522954Y-73136196D01*
X115593658Y-73129750D01*
X115656622Y-73162553D01*
X115676715Y-73187536D01*
X115696800Y-73220313D01*
X115696804Y-73220318D01*
X115699501Y-73224719D01*
X115851147Y-73399784D01*
X116029349Y-73547730D01*
X116229322Y-73664584D01*
X116445694Y-73747209D01*
X116450760Y-73748240D01*
X116450761Y-73748240D01*
X116503846Y-73759040D01*
X116672656Y-73793385D01*
X116803324Y-73798176D01*
X116898949Y-73801683D01*
X116898953Y-73801683D01*
X116904113Y-73801872D01*
X116909233Y-73801216D01*
X116909235Y-73801216D01*
X116982270Y-73791860D01*
X117133847Y-73772442D01*
X117138795Y-73770957D01*
X117138802Y-73770956D01*
X117350747Y-73707369D01*
X117355690Y-73705886D01*
X117436236Y-73666427D01*
X117559049Y-73606262D01*
X117559052Y-73606260D01*
X117563684Y-73603991D01*
X117752243Y-73469494D01*
X117916303Y-73306005D01*
X117919319Y-73301808D01*
X117919326Y-73301800D01*
X118006960Y-73179844D01*
X118062954Y-73136196D01*
X118133658Y-73129750D01*
X118196622Y-73162553D01*
X118216715Y-73187536D01*
X118236800Y-73220313D01*
X118236804Y-73220318D01*
X118239501Y-73224719D01*
X118391147Y-73399784D01*
X118569349Y-73547730D01*
X118769322Y-73664584D01*
X118985694Y-73747209D01*
X118990760Y-73748240D01*
X118990761Y-73748240D01*
X119043846Y-73759040D01*
X119212656Y-73793385D01*
X119343324Y-73798176D01*
X119438949Y-73801683D01*
X119438953Y-73801683D01*
X119444113Y-73801872D01*
X119449233Y-73801216D01*
X119449235Y-73801216D01*
X119522270Y-73791860D01*
X119673847Y-73772442D01*
X119678795Y-73770957D01*
X119678802Y-73770956D01*
X119890747Y-73707369D01*
X119895690Y-73705886D01*
X119976236Y-73666427D01*
X120099049Y-73606262D01*
X120099052Y-73606260D01*
X120103684Y-73603991D01*
X120292243Y-73469494D01*
X120456303Y-73306005D01*
X120459319Y-73301808D01*
X120459326Y-73301800D01*
X120546960Y-73179844D01*
X120602954Y-73136196D01*
X120673658Y-73129750D01*
X120736622Y-73162553D01*
X120756715Y-73187536D01*
X120776800Y-73220313D01*
X120776804Y-73220318D01*
X120779501Y-73224719D01*
X120931147Y-73399784D01*
X121109349Y-73547730D01*
X121309322Y-73664584D01*
X121525694Y-73747209D01*
X121530760Y-73748240D01*
X121530761Y-73748240D01*
X121583846Y-73759040D01*
X121752656Y-73793385D01*
X121883324Y-73798176D01*
X121978949Y-73801683D01*
X121978953Y-73801683D01*
X121984113Y-73801872D01*
X121989233Y-73801216D01*
X121989235Y-73801216D01*
X122062270Y-73791860D01*
X122213847Y-73772442D01*
X122218795Y-73770957D01*
X122218802Y-73770956D01*
X122430747Y-73707369D01*
X122435690Y-73705886D01*
X122516236Y-73666427D01*
X122639049Y-73606262D01*
X122639052Y-73606260D01*
X122643684Y-73603991D01*
X122832243Y-73469494D01*
X122996303Y-73306005D01*
X122999319Y-73301808D01*
X122999326Y-73301800D01*
X123086960Y-73179844D01*
X123142954Y-73136196D01*
X123213658Y-73129750D01*
X123276622Y-73162553D01*
X123296715Y-73187536D01*
X123316800Y-73220313D01*
X123316804Y-73220318D01*
X123319501Y-73224719D01*
X123471147Y-73399784D01*
X123649349Y-73547730D01*
X123849322Y-73664584D01*
X124065694Y-73747209D01*
X124070760Y-73748240D01*
X124070761Y-73748240D01*
X124123846Y-73759040D01*
X124292656Y-73793385D01*
X124423324Y-73798176D01*
X124518949Y-73801683D01*
X124518953Y-73801683D01*
X124524113Y-73801872D01*
X124529233Y-73801216D01*
X124529235Y-73801216D01*
X124602270Y-73791860D01*
X124753847Y-73772442D01*
X124758795Y-73770957D01*
X124758802Y-73770956D01*
X124970747Y-73707369D01*
X124975690Y-73705886D01*
X125056236Y-73666427D01*
X125179049Y-73606262D01*
X125179052Y-73606260D01*
X125183684Y-73603991D01*
X125372243Y-73469494D01*
X125536303Y-73306005D01*
X125539319Y-73301808D01*
X125539326Y-73301800D01*
X125626960Y-73179844D01*
X125682954Y-73136196D01*
X125753658Y-73129750D01*
X125816622Y-73162553D01*
X125836715Y-73187536D01*
X125856800Y-73220313D01*
X125856804Y-73220318D01*
X125859501Y-73224719D01*
X126011147Y-73399784D01*
X126189349Y-73547730D01*
X126389322Y-73664584D01*
X126605694Y-73747209D01*
X126610760Y-73748240D01*
X126610761Y-73748240D01*
X126663846Y-73759040D01*
X126832656Y-73793385D01*
X126963324Y-73798176D01*
X127058949Y-73801683D01*
X127058953Y-73801683D01*
X127064113Y-73801872D01*
X127069233Y-73801216D01*
X127069235Y-73801216D01*
X127142270Y-73791860D01*
X127293847Y-73772442D01*
X127298795Y-73770957D01*
X127298802Y-73770956D01*
X127510747Y-73707369D01*
X127515690Y-73705886D01*
X127596236Y-73666427D01*
X127719049Y-73606262D01*
X127719052Y-73606260D01*
X127723684Y-73603991D01*
X127912243Y-73469494D01*
X128076303Y-73306005D01*
X128079319Y-73301808D01*
X128079326Y-73301800D01*
X128166960Y-73179844D01*
X128222954Y-73136196D01*
X128293658Y-73129750D01*
X128356622Y-73162553D01*
X128376715Y-73187536D01*
X128396800Y-73220313D01*
X128396804Y-73220318D01*
X128399501Y-73224719D01*
X128551147Y-73399784D01*
X128729349Y-73547730D01*
X128929322Y-73664584D01*
X129145694Y-73747209D01*
X129150760Y-73748240D01*
X129150761Y-73748240D01*
X129203846Y-73759040D01*
X129372656Y-73793385D01*
X129503324Y-73798176D01*
X129598949Y-73801683D01*
X129598953Y-73801683D01*
X129604113Y-73801872D01*
X129609233Y-73801216D01*
X129609235Y-73801216D01*
X129682270Y-73791860D01*
X129833847Y-73772442D01*
X129838795Y-73770957D01*
X129838802Y-73770956D01*
X130050747Y-73707369D01*
X130055690Y-73705886D01*
X130136236Y-73666427D01*
X130259049Y-73606262D01*
X130259052Y-73606260D01*
X130263684Y-73603991D01*
X130452243Y-73469494D01*
X130616303Y-73306005D01*
X130619319Y-73301808D01*
X130619326Y-73301800D01*
X130706960Y-73179844D01*
X130762954Y-73136196D01*
X130833658Y-73129750D01*
X130896622Y-73162553D01*
X130916715Y-73187536D01*
X130936800Y-73220313D01*
X130936804Y-73220318D01*
X130939501Y-73224719D01*
X131091147Y-73399784D01*
X131269349Y-73547730D01*
X131469322Y-73664584D01*
X131685694Y-73747209D01*
X131690760Y-73748240D01*
X131690761Y-73748240D01*
X131743846Y-73759040D01*
X131912656Y-73793385D01*
X132043324Y-73798176D01*
X132138949Y-73801683D01*
X132138953Y-73801683D01*
X132144113Y-73801872D01*
X132149233Y-73801216D01*
X132149235Y-73801216D01*
X132222270Y-73791860D01*
X132373847Y-73772442D01*
X132378795Y-73770957D01*
X132378802Y-73770956D01*
X132590747Y-73707369D01*
X132595690Y-73705886D01*
X132676236Y-73666427D01*
X132799049Y-73606262D01*
X132799052Y-73606260D01*
X132803684Y-73603991D01*
X132992243Y-73469494D01*
X133156303Y-73306005D01*
X133159319Y-73301808D01*
X133159326Y-73301800D01*
X133246960Y-73179844D01*
X133302954Y-73136196D01*
X133373658Y-73129750D01*
X133436622Y-73162553D01*
X133456715Y-73187536D01*
X133476800Y-73220313D01*
X133476804Y-73220318D01*
X133479501Y-73224719D01*
X133631147Y-73399784D01*
X133809349Y-73547730D01*
X134009322Y-73664584D01*
X134225694Y-73747209D01*
X134230760Y-73748240D01*
X134230761Y-73748240D01*
X134283846Y-73759040D01*
X134452656Y-73793385D01*
X134583324Y-73798176D01*
X134678949Y-73801683D01*
X134678953Y-73801683D01*
X134684113Y-73801872D01*
X134689233Y-73801216D01*
X134689235Y-73801216D01*
X134762270Y-73791860D01*
X134913847Y-73772442D01*
X134918795Y-73770957D01*
X134918802Y-73770956D01*
X135130747Y-73707369D01*
X135135690Y-73705886D01*
X135216236Y-73666427D01*
X135339049Y-73606262D01*
X135339052Y-73606260D01*
X135343684Y-73603991D01*
X135532243Y-73469494D01*
X135696303Y-73306005D01*
X135709069Y-73288240D01*
X135745680Y-73237289D01*
X135831458Y-73117917D01*
X135845088Y-73090340D01*
X135931784Y-72914922D01*
X135931785Y-72914920D01*
X135934078Y-72910280D01*
X136001408Y-72688671D01*
X136031640Y-72459041D01*
X136033327Y-72390000D01*
X136020276Y-72231256D01*
X136014773Y-72164318D01*
X136014772Y-72164312D01*
X136014349Y-72159167D01*
X135982651Y-72032972D01*
X135959184Y-71939544D01*
X135959183Y-71939540D01*
X135957925Y-71934533D01*
X135954496Y-71926646D01*
X135867630Y-71726868D01*
X135867628Y-71726865D01*
X135865570Y-71722131D01*
X135739764Y-71527665D01*
X135702190Y-71486371D01*
X135637418Y-71415188D01*
X135583887Y-71356358D01*
X135579836Y-71353159D01*
X135579832Y-71353155D01*
X135406177Y-71216011D01*
X135406172Y-71216008D01*
X135402123Y-71212810D01*
X135397607Y-71210317D01*
X135397604Y-71210315D01*
X135203879Y-71103373D01*
X135203875Y-71103371D01*
X135199355Y-71100876D01*
X135194486Y-71099152D01*
X135194482Y-71099150D01*
X134985903Y-71025288D01*
X134985899Y-71025287D01*
X134981028Y-71023562D01*
X134975935Y-71022655D01*
X134975932Y-71022654D01*
X134758095Y-70983851D01*
X134758089Y-70983850D01*
X134753006Y-70982945D01*
X134680096Y-70982054D01*
X134526581Y-70980179D01*
X134526579Y-70980179D01*
X134521411Y-70980116D01*
X134292464Y-71015150D01*
X134072314Y-71087106D01*
X134067726Y-71089494D01*
X134067722Y-71089496D01*
X133905253Y-71174072D01*
X133866872Y-71194052D01*
X133862739Y-71197155D01*
X133862736Y-71197157D01*
X133685790Y-71330012D01*
X133681655Y-71333117D01*
X133678083Y-71336855D01*
X133560797Y-71459588D01*
X133521639Y-71500564D01*
X133454306Y-71599271D01*
X133399397Y-71644271D01*
X133328872Y-71652442D01*
X133265125Y-71621188D01*
X133244428Y-71596705D01*
X133202571Y-71532004D01*
X133199764Y-71527665D01*
X133162190Y-71486371D01*
X133097418Y-71415188D01*
X133043887Y-71356358D01*
X133039836Y-71353159D01*
X133039832Y-71353155D01*
X132866177Y-71216011D01*
X132866172Y-71216008D01*
X132862123Y-71212810D01*
X132857607Y-71210317D01*
X132857604Y-71210315D01*
X132663879Y-71103373D01*
X132663875Y-71103371D01*
X132659355Y-71100876D01*
X132654486Y-71099152D01*
X132654482Y-71099150D01*
X132445903Y-71025288D01*
X132445899Y-71025287D01*
X132441028Y-71023562D01*
X132435935Y-71022655D01*
X132435932Y-71022654D01*
X132218095Y-70983851D01*
X132218089Y-70983850D01*
X132213006Y-70982945D01*
X132140096Y-70982054D01*
X131986581Y-70980179D01*
X131986579Y-70980179D01*
X131981411Y-70980116D01*
X131752464Y-71015150D01*
X131532314Y-71087106D01*
X131527726Y-71089494D01*
X131527722Y-71089496D01*
X131365253Y-71174072D01*
X131326872Y-71194052D01*
X131322739Y-71197155D01*
X131322736Y-71197157D01*
X131145790Y-71330012D01*
X131141655Y-71333117D01*
X131138083Y-71336855D01*
X131020797Y-71459588D01*
X130981639Y-71500564D01*
X130914306Y-71599271D01*
X130859397Y-71644271D01*
X130788872Y-71652442D01*
X130725125Y-71621188D01*
X130704428Y-71596705D01*
X130662571Y-71532004D01*
X130659764Y-71527665D01*
X130622190Y-71486371D01*
X130557418Y-71415188D01*
X130503887Y-71356358D01*
X130499836Y-71353159D01*
X130499832Y-71353155D01*
X130326177Y-71216011D01*
X130326172Y-71216008D01*
X130322123Y-71212810D01*
X130317607Y-71210317D01*
X130317604Y-71210315D01*
X130123879Y-71103373D01*
X130123875Y-71103371D01*
X130119355Y-71100876D01*
X130114486Y-71099152D01*
X130114482Y-71099150D01*
X129905903Y-71025288D01*
X129905899Y-71025287D01*
X129901028Y-71023562D01*
X129895935Y-71022655D01*
X129895932Y-71022654D01*
X129678095Y-70983851D01*
X129678089Y-70983850D01*
X129673006Y-70982945D01*
X129600096Y-70982054D01*
X129446581Y-70980179D01*
X129446579Y-70980179D01*
X129441411Y-70980116D01*
X129212464Y-71015150D01*
X128992314Y-71087106D01*
X128987726Y-71089494D01*
X128987722Y-71089496D01*
X128825253Y-71174072D01*
X128786872Y-71194052D01*
X128782739Y-71197155D01*
X128782736Y-71197157D01*
X128605790Y-71330012D01*
X128601655Y-71333117D01*
X128598083Y-71336855D01*
X128480797Y-71459588D01*
X128441639Y-71500564D01*
X128374306Y-71599271D01*
X128319397Y-71644271D01*
X128248872Y-71652442D01*
X128185125Y-71621188D01*
X128164428Y-71596705D01*
X128122571Y-71532004D01*
X128119764Y-71527665D01*
X128082190Y-71486371D01*
X128017418Y-71415188D01*
X127963887Y-71356358D01*
X127959836Y-71353159D01*
X127959832Y-71353155D01*
X127786177Y-71216011D01*
X127786172Y-71216008D01*
X127782123Y-71212810D01*
X127777607Y-71210317D01*
X127777604Y-71210315D01*
X127583879Y-71103373D01*
X127583875Y-71103371D01*
X127579355Y-71100876D01*
X127574486Y-71099152D01*
X127574482Y-71099150D01*
X127365903Y-71025288D01*
X127365899Y-71025287D01*
X127361028Y-71023562D01*
X127355935Y-71022655D01*
X127355932Y-71022654D01*
X127138095Y-70983851D01*
X127138089Y-70983850D01*
X127133006Y-70982945D01*
X127060096Y-70982054D01*
X126906581Y-70980179D01*
X126906579Y-70980179D01*
X126901411Y-70980116D01*
X126672464Y-71015150D01*
X126452314Y-71087106D01*
X126447726Y-71089494D01*
X126447722Y-71089496D01*
X126285253Y-71174072D01*
X126246872Y-71194052D01*
X126242739Y-71197155D01*
X126242736Y-71197157D01*
X126065790Y-71330012D01*
X126061655Y-71333117D01*
X126058083Y-71336855D01*
X125940797Y-71459588D01*
X125901639Y-71500564D01*
X125834306Y-71599271D01*
X125779397Y-71644271D01*
X125708872Y-71652442D01*
X125645125Y-71621188D01*
X125624428Y-71596705D01*
X125582571Y-71532004D01*
X125579764Y-71527665D01*
X125542190Y-71486371D01*
X125477418Y-71415188D01*
X125423887Y-71356358D01*
X125419836Y-71353159D01*
X125419832Y-71353155D01*
X125246177Y-71216011D01*
X125246172Y-71216008D01*
X125242123Y-71212810D01*
X125237607Y-71210317D01*
X125237604Y-71210315D01*
X125043879Y-71103373D01*
X125043875Y-71103371D01*
X125039355Y-71100876D01*
X125034486Y-71099152D01*
X125034482Y-71099150D01*
X124825903Y-71025288D01*
X124825899Y-71025287D01*
X124821028Y-71023562D01*
X124815935Y-71022655D01*
X124815932Y-71022654D01*
X124598095Y-70983851D01*
X124598089Y-70983850D01*
X124593006Y-70982945D01*
X124520096Y-70982054D01*
X124366581Y-70980179D01*
X124366579Y-70980179D01*
X124361411Y-70980116D01*
X124132464Y-71015150D01*
X123912314Y-71087106D01*
X123907726Y-71089494D01*
X123907722Y-71089496D01*
X123745253Y-71174072D01*
X123706872Y-71194052D01*
X123702739Y-71197155D01*
X123702736Y-71197157D01*
X123525790Y-71330012D01*
X123521655Y-71333117D01*
X123518083Y-71336855D01*
X123400797Y-71459588D01*
X123361639Y-71500564D01*
X123294306Y-71599271D01*
X123239397Y-71644271D01*
X123168872Y-71652442D01*
X123105125Y-71621188D01*
X123084428Y-71596705D01*
X123042571Y-71532004D01*
X123039764Y-71527665D01*
X123002190Y-71486371D01*
X122937418Y-71415188D01*
X122883887Y-71356358D01*
X122879836Y-71353159D01*
X122879832Y-71353155D01*
X122706177Y-71216011D01*
X122706172Y-71216008D01*
X122702123Y-71212810D01*
X122697607Y-71210317D01*
X122697604Y-71210315D01*
X122503879Y-71103373D01*
X122503875Y-71103371D01*
X122499355Y-71100876D01*
X122494486Y-71099152D01*
X122494482Y-71099150D01*
X122285903Y-71025288D01*
X122285899Y-71025287D01*
X122281028Y-71023562D01*
X122275935Y-71022655D01*
X122275932Y-71022654D01*
X122058095Y-70983851D01*
X122058089Y-70983850D01*
X122053006Y-70982945D01*
X121980096Y-70982054D01*
X121826581Y-70980179D01*
X121826579Y-70980179D01*
X121821411Y-70980116D01*
X121592464Y-71015150D01*
X121372314Y-71087106D01*
X121367726Y-71089494D01*
X121367722Y-71089496D01*
X121205253Y-71174072D01*
X121166872Y-71194052D01*
X121162739Y-71197155D01*
X121162736Y-71197157D01*
X120985790Y-71330012D01*
X120981655Y-71333117D01*
X120978083Y-71336855D01*
X120860797Y-71459588D01*
X120821639Y-71500564D01*
X120754306Y-71599271D01*
X120699397Y-71644271D01*
X120628872Y-71652442D01*
X120565125Y-71621188D01*
X120544428Y-71596705D01*
X120502571Y-71532004D01*
X120499764Y-71527665D01*
X120462190Y-71486371D01*
X120397418Y-71415188D01*
X120343887Y-71356358D01*
X120339836Y-71353159D01*
X120339832Y-71353155D01*
X120166177Y-71216011D01*
X120166172Y-71216008D01*
X120162123Y-71212810D01*
X120157607Y-71210317D01*
X120157604Y-71210315D01*
X119963879Y-71103373D01*
X119963875Y-71103371D01*
X119959355Y-71100876D01*
X119954486Y-71099152D01*
X119954482Y-71099150D01*
X119745903Y-71025288D01*
X119745899Y-71025287D01*
X119741028Y-71023562D01*
X119735935Y-71022655D01*
X119735932Y-71022654D01*
X119518095Y-70983851D01*
X119518089Y-70983850D01*
X119513006Y-70982945D01*
X119440096Y-70982054D01*
X119286581Y-70980179D01*
X119286579Y-70980179D01*
X119281411Y-70980116D01*
X119052464Y-71015150D01*
X118832314Y-71087106D01*
X118827726Y-71089494D01*
X118827722Y-71089496D01*
X118665253Y-71174072D01*
X118626872Y-71194052D01*
X118622739Y-71197155D01*
X118622736Y-71197157D01*
X118445790Y-71330012D01*
X118441655Y-71333117D01*
X118438083Y-71336855D01*
X118320797Y-71459588D01*
X118281639Y-71500564D01*
X118214306Y-71599271D01*
X118159397Y-71644271D01*
X118088872Y-71652442D01*
X118025125Y-71621188D01*
X118004428Y-71596705D01*
X117962571Y-71532004D01*
X117959764Y-71527665D01*
X117922190Y-71486371D01*
X117857418Y-71415188D01*
X117803887Y-71356358D01*
X117799836Y-71353159D01*
X117799832Y-71353155D01*
X117626177Y-71216011D01*
X117626172Y-71216008D01*
X117622123Y-71212810D01*
X117617607Y-71210317D01*
X117617604Y-71210315D01*
X117423879Y-71103373D01*
X117423875Y-71103371D01*
X117419355Y-71100876D01*
X117414486Y-71099152D01*
X117414482Y-71099150D01*
X117205903Y-71025288D01*
X117205899Y-71025287D01*
X117201028Y-71023562D01*
X117195935Y-71022655D01*
X117195932Y-71022654D01*
X116978095Y-70983851D01*
X116978089Y-70983850D01*
X116973006Y-70982945D01*
X116900096Y-70982054D01*
X116746581Y-70980179D01*
X116746579Y-70980179D01*
X116741411Y-70980116D01*
X116512464Y-71015150D01*
X116292314Y-71087106D01*
X116287726Y-71089494D01*
X116287722Y-71089496D01*
X116125253Y-71174072D01*
X116086872Y-71194052D01*
X116082739Y-71197155D01*
X116082736Y-71197157D01*
X115905790Y-71330012D01*
X115901655Y-71333117D01*
X115898083Y-71336855D01*
X115780797Y-71459588D01*
X115741639Y-71500564D01*
X115674306Y-71599271D01*
X115619397Y-71644271D01*
X115548872Y-71652442D01*
X115485125Y-71621188D01*
X115464428Y-71596705D01*
X115422571Y-71532004D01*
X115419764Y-71527665D01*
X115382190Y-71486371D01*
X115317418Y-71415188D01*
X115263887Y-71356358D01*
X115259836Y-71353159D01*
X115259832Y-71353155D01*
X115086177Y-71216011D01*
X115086172Y-71216008D01*
X115082123Y-71212810D01*
X115077607Y-71210317D01*
X115077604Y-71210315D01*
X114883879Y-71103373D01*
X114883875Y-71103371D01*
X114879355Y-71100876D01*
X114874486Y-71099152D01*
X114874482Y-71099150D01*
X114665903Y-71025288D01*
X114665899Y-71025287D01*
X114661028Y-71023562D01*
X114655935Y-71022655D01*
X114655932Y-71022654D01*
X114438095Y-70983851D01*
X114438089Y-70983850D01*
X114433006Y-70982945D01*
X114360096Y-70982054D01*
X114206581Y-70980179D01*
X114206579Y-70980179D01*
X114201411Y-70980116D01*
X113972464Y-71015150D01*
X113752314Y-71087106D01*
X113747726Y-71089494D01*
X113747722Y-71089496D01*
X113585253Y-71174072D01*
X113546872Y-71194052D01*
X113542739Y-71197155D01*
X113542736Y-71197157D01*
X113365790Y-71330012D01*
X113361655Y-71333117D01*
X113358083Y-71336855D01*
X113240797Y-71459588D01*
X113201639Y-71500564D01*
X113134306Y-71599271D01*
X113079397Y-71644271D01*
X113008872Y-71652442D01*
X112945125Y-71621188D01*
X112924428Y-71596705D01*
X112882571Y-71532004D01*
X112879764Y-71527665D01*
X112842190Y-71486371D01*
X112777418Y-71415188D01*
X112723887Y-71356358D01*
X112719836Y-71353159D01*
X112719832Y-71353155D01*
X112546177Y-71216011D01*
X112546172Y-71216008D01*
X112542123Y-71212810D01*
X112537607Y-71210317D01*
X112537604Y-71210315D01*
X112343879Y-71103373D01*
X112343875Y-71103371D01*
X112339355Y-71100876D01*
X112334486Y-71099152D01*
X112334482Y-71099150D01*
X112125903Y-71025288D01*
X112125899Y-71025287D01*
X112121028Y-71023562D01*
X112115935Y-71022655D01*
X112115932Y-71022654D01*
X111898095Y-70983851D01*
X111898089Y-70983850D01*
X111893006Y-70982945D01*
X111820096Y-70982054D01*
X111666581Y-70980179D01*
X111666579Y-70980179D01*
X111661411Y-70980116D01*
X111432464Y-71015150D01*
X111212314Y-71087106D01*
X111207726Y-71089494D01*
X111207722Y-71089496D01*
X111045253Y-71174072D01*
X111006872Y-71194052D01*
X111002739Y-71197155D01*
X111002736Y-71197157D01*
X110825790Y-71330012D01*
X110821655Y-71333117D01*
X110818083Y-71336855D01*
X110700797Y-71459588D01*
X110661639Y-71500564D01*
X110594306Y-71599271D01*
X110539397Y-71644271D01*
X110468872Y-71652442D01*
X110405125Y-71621188D01*
X110384428Y-71596705D01*
X110342571Y-71532004D01*
X110339764Y-71527665D01*
X110302190Y-71486371D01*
X110237418Y-71415188D01*
X110183887Y-71356358D01*
X110179836Y-71353159D01*
X110179832Y-71353155D01*
X110006177Y-71216011D01*
X110006172Y-71216008D01*
X110002123Y-71212810D01*
X109997607Y-71210317D01*
X109997604Y-71210315D01*
X109803879Y-71103373D01*
X109803875Y-71103371D01*
X109799355Y-71100876D01*
X109794486Y-71099152D01*
X109794482Y-71099150D01*
X109585903Y-71025288D01*
X109585899Y-71025287D01*
X109581028Y-71023562D01*
X109575935Y-71022655D01*
X109575932Y-71022654D01*
X109358095Y-70983851D01*
X109358089Y-70983850D01*
X109353006Y-70982945D01*
X109280096Y-70982054D01*
X109126581Y-70980179D01*
X109126579Y-70980179D01*
X109121411Y-70980116D01*
X108892464Y-71015150D01*
X108672314Y-71087106D01*
X108667726Y-71089494D01*
X108667722Y-71089496D01*
X108505253Y-71174072D01*
X108466872Y-71194052D01*
X108462739Y-71197155D01*
X108462736Y-71197157D01*
X108285790Y-71330012D01*
X108281655Y-71333117D01*
X108278083Y-71336855D01*
X108160797Y-71459588D01*
X108121639Y-71500564D01*
X108054306Y-71599271D01*
X107999397Y-71644271D01*
X107928872Y-71652442D01*
X107865125Y-71621188D01*
X107844428Y-71596705D01*
X107802571Y-71532004D01*
X107799764Y-71527665D01*
X107762190Y-71486371D01*
X107697418Y-71415188D01*
X107643887Y-71356358D01*
X107639836Y-71353159D01*
X107639832Y-71353155D01*
X107466177Y-71216011D01*
X107466172Y-71216008D01*
X107462123Y-71212810D01*
X107457607Y-71210317D01*
X107457604Y-71210315D01*
X107263879Y-71103373D01*
X107263875Y-71103371D01*
X107259355Y-71100876D01*
X107254486Y-71099152D01*
X107254482Y-71099150D01*
X107045903Y-71025288D01*
X107045899Y-71025287D01*
X107041028Y-71023562D01*
X107035935Y-71022655D01*
X107035932Y-71022654D01*
X106818095Y-70983851D01*
X106818089Y-70983850D01*
X106813006Y-70982945D01*
X106740096Y-70982054D01*
X106586581Y-70980179D01*
X106586579Y-70980179D01*
X106581411Y-70980116D01*
X106352464Y-71015150D01*
X106132314Y-71087106D01*
X106127726Y-71089494D01*
X106127722Y-71089496D01*
X105965253Y-71174072D01*
X105926872Y-71194052D01*
X105922739Y-71197155D01*
X105922736Y-71197157D01*
X105745790Y-71330012D01*
X105741655Y-71333117D01*
X105738083Y-71336855D01*
X105620797Y-71459588D01*
X105581639Y-71500564D01*
X105514306Y-71599271D01*
X105459397Y-71644271D01*
X105388872Y-71652442D01*
X105325125Y-71621188D01*
X105304428Y-71596705D01*
X105262571Y-71532004D01*
X105259764Y-71527665D01*
X105222190Y-71486371D01*
X105157418Y-71415188D01*
X105103887Y-71356358D01*
X105099836Y-71353159D01*
X105099832Y-71353155D01*
X104926177Y-71216011D01*
X104926172Y-71216008D01*
X104922123Y-71212810D01*
X104917607Y-71210317D01*
X104917604Y-71210315D01*
X104723879Y-71103373D01*
X104723875Y-71103371D01*
X104719355Y-71100876D01*
X104714486Y-71099152D01*
X104714482Y-71099150D01*
X104505903Y-71025288D01*
X104505899Y-71025287D01*
X104501028Y-71023562D01*
X104495935Y-71022655D01*
X104495932Y-71022654D01*
X104278095Y-70983851D01*
X104278089Y-70983850D01*
X104273006Y-70982945D01*
X104200096Y-70982054D01*
X104046581Y-70980179D01*
X104046579Y-70980179D01*
X104041411Y-70980116D01*
X103812464Y-71015150D01*
X103592314Y-71087106D01*
X103587726Y-71089494D01*
X103587722Y-71089496D01*
X103425253Y-71174072D01*
X103386872Y-71194052D01*
X103382739Y-71197155D01*
X103382736Y-71197157D01*
X103205790Y-71330012D01*
X103201655Y-71333117D01*
X103198083Y-71336855D01*
X103080797Y-71459588D01*
X103041639Y-71500564D01*
X102974306Y-71599271D01*
X102919397Y-71644271D01*
X102848872Y-71652442D01*
X102785125Y-71621188D01*
X102764428Y-71596705D01*
X102722571Y-71532004D01*
X102719764Y-71527665D01*
X102682190Y-71486371D01*
X102617418Y-71415188D01*
X102563887Y-71356358D01*
X102559836Y-71353159D01*
X102559832Y-71353155D01*
X102406408Y-71231989D01*
X102365345Y-71174072D01*
X102358500Y-71133107D01*
X102358500Y-68647069D01*
X102359933Y-68628118D01*
X102362099Y-68613883D01*
X102362099Y-68613881D01*
X102363199Y-68606651D01*
X102361380Y-68584279D01*
X102358915Y-68553982D01*
X102358500Y-68543767D01*
X102358500Y-68535707D01*
X102355211Y-68507493D01*
X102354778Y-68503118D01*
X102349454Y-68437661D01*
X102349453Y-68437658D01*
X102348860Y-68430363D01*
X102346604Y-68423399D01*
X102345413Y-68417440D01*
X102344029Y-68411585D01*
X102343182Y-68404319D01*
X102318265Y-68335673D01*
X102316848Y-68331545D01*
X102296607Y-68269064D01*
X102296606Y-68269062D01*
X102294351Y-68262101D01*
X102290555Y-68255846D01*
X102288049Y-68250372D01*
X102285330Y-68244942D01*
X102282833Y-68238063D01*
X102242809Y-68177016D01*
X102240472Y-68173312D01*
X102205509Y-68115693D01*
X102205505Y-68115688D01*
X102202595Y-68110892D01*
X102195197Y-68102516D01*
X102195223Y-68102493D01*
X102192574Y-68099503D01*
X102189866Y-68096264D01*
X102185856Y-68090148D01*
X102180549Y-68085121D01*
X102180546Y-68085117D01*
X102129617Y-68036872D01*
X102127175Y-68034494D01*
X101855405Y-67762724D01*
X101821379Y-67700412D01*
X101818500Y-67673629D01*
X101818500Y-66977522D01*
X101838502Y-66909401D01*
X101863931Y-66880648D01*
X101896008Y-66853970D01*
X101900446Y-66850279D01*
X101930816Y-66813764D01*
X101989752Y-66774180D01*
X102027689Y-66768333D01*
X102473462Y-66768333D01*
X102541583Y-66788335D01*
X102562557Y-66805238D01*
X104826230Y-69068911D01*
X104838616Y-69083323D01*
X104847149Y-69094918D01*
X104847154Y-69094923D01*
X104851492Y-69100818D01*
X104857070Y-69105557D01*
X104857073Y-69105560D01*
X104891768Y-69135035D01*
X104899284Y-69141965D01*
X104904979Y-69147660D01*
X104907861Y-69149940D01*
X104927251Y-69165281D01*
X104930655Y-69168072D01*
X104980703Y-69210591D01*
X104986285Y-69215333D01*
X104992801Y-69218661D01*
X104997850Y-69222028D01*
X105002979Y-69225195D01*
X105008716Y-69229734D01*
X105074875Y-69260655D01*
X105078769Y-69262558D01*
X105143808Y-69295769D01*
X105150916Y-69297508D01*
X105156559Y-69299607D01*
X105162322Y-69301524D01*
X105168950Y-69304622D01*
X105176112Y-69306112D01*
X105176113Y-69306112D01*
X105240412Y-69319486D01*
X105244696Y-69320456D01*
X105315610Y-69337808D01*
X105321212Y-69338156D01*
X105321215Y-69338156D01*
X105326764Y-69338500D01*
X105326762Y-69338536D01*
X105330755Y-69338775D01*
X105334947Y-69339149D01*
X105342115Y-69340640D01*
X105419520Y-69338546D01*
X105422928Y-69338500D01*
X157113629Y-69338500D01*
X157181750Y-69358502D01*
X157202724Y-69375405D01*
X157524595Y-69697276D01*
X157558621Y-69759588D01*
X157561500Y-69786371D01*
X157561500Y-70675127D01*
X157541498Y-70743248D01*
X157511153Y-70775887D01*
X157428079Y-70838261D01*
X157381655Y-70873117D01*
X157378083Y-70876855D01*
X157237776Y-71023678D01*
X157221639Y-71040564D01*
X157218725Y-71044836D01*
X157218724Y-71044837D01*
X157172653Y-71112374D01*
X157091119Y-71231899D01*
X156993602Y-71441981D01*
X156931707Y-71665169D01*
X156907095Y-71895469D01*
X156907392Y-71900622D01*
X156907392Y-71900625D01*
X156913067Y-71999041D01*
X156920427Y-72126697D01*
X156921564Y-72131743D01*
X156921565Y-72131749D01*
X156953741Y-72274523D01*
X156971346Y-72352642D01*
X156973288Y-72357424D01*
X156973289Y-72357428D01*
X157013190Y-72455691D01*
X157058484Y-72567237D01*
X157179501Y-72764719D01*
X157331147Y-72939784D01*
X157509349Y-73087730D01*
X157709322Y-73204584D01*
X157925694Y-73287209D01*
X157930760Y-73288240D01*
X157930761Y-73288240D01*
X157983846Y-73299040D01*
X158152656Y-73333385D01*
X158283324Y-73338176D01*
X158378949Y-73341683D01*
X158378953Y-73341683D01*
X158384113Y-73341872D01*
X158389233Y-73341216D01*
X158389235Y-73341216D01*
X158462270Y-73331860D01*
X158613847Y-73312442D01*
X158618795Y-73310957D01*
X158618802Y-73310956D01*
X158830747Y-73247369D01*
X158835690Y-73245886D01*
X158863690Y-73232169D01*
X159039049Y-73146262D01*
X159039052Y-73146260D01*
X159043684Y-73143991D01*
X159232243Y-73009494D01*
X159396303Y-72846005D01*
X159531458Y-72657917D01*
X159578641Y-72562450D01*
X159631784Y-72454922D01*
X159631785Y-72454920D01*
X159634078Y-72450280D01*
X159701408Y-72228671D01*
X159731640Y-71999041D01*
X159731801Y-71992439D01*
X159733245Y-71933365D01*
X159733245Y-71933361D01*
X159733327Y-71930000D01*
X159726557Y-71847658D01*
X159714773Y-71704318D01*
X159714772Y-71704312D01*
X159714349Y-71699167D01*
X159663525Y-71496827D01*
X159659184Y-71479544D01*
X159659183Y-71479540D01*
X159657925Y-71474533D01*
X159648752Y-71453437D01*
X159567630Y-71266868D01*
X159567628Y-71266865D01*
X159565570Y-71262131D01*
X159439764Y-71067665D01*
X159430204Y-71057158D01*
X159362675Y-70982945D01*
X159283887Y-70896358D01*
X159279836Y-70893159D01*
X159279832Y-70893155D01*
X159126408Y-70771989D01*
X159085345Y-70714072D01*
X159078500Y-70673107D01*
X159078500Y-69487063D01*
X159079933Y-69468114D01*
X159083198Y-69446651D01*
X159086202Y-69447108D01*
X159104220Y-69392760D01*
X159159449Y-69348148D01*
X159207803Y-69338500D01*
X162193629Y-69338500D01*
X162261750Y-69358502D01*
X162282724Y-69375405D01*
X164304595Y-71397276D01*
X164338621Y-71459588D01*
X164341500Y-71486371D01*
X164341500Y-75833629D01*
X164321498Y-75901750D01*
X164304595Y-75922724D01*
X157826089Y-82401230D01*
X157811677Y-82413616D01*
X157800082Y-82422149D01*
X157800077Y-82422154D01*
X157794182Y-82426492D01*
X157789443Y-82432070D01*
X157789440Y-82432073D01*
X157759965Y-82466768D01*
X157753035Y-82474284D01*
X157747340Y-82479979D01*
X157745060Y-82482861D01*
X157729719Y-82502251D01*
X157726928Y-82505655D01*
X157684409Y-82555703D01*
X157679667Y-82561285D01*
X157676339Y-82567801D01*
X157672972Y-82572850D01*
X157669805Y-82577979D01*
X157665266Y-82583716D01*
X157634345Y-82649875D01*
X157632442Y-82653769D01*
X157599231Y-82718808D01*
X157597492Y-82725916D01*
X157595393Y-82731559D01*
X157593476Y-82737322D01*
X157590378Y-82743950D01*
X157588888Y-82751112D01*
X157588888Y-82751113D01*
X157575514Y-82815412D01*
X157574544Y-82819696D01*
X157557192Y-82890610D01*
X157556500Y-82901764D01*
X157556464Y-82901762D01*
X157556225Y-82905755D01*
X157555851Y-82909947D01*
X157554360Y-82917115D01*
X157554558Y-82924432D01*
X157556454Y-82994521D01*
X157556500Y-82997928D01*
X157556500Y-87175127D01*
X157536498Y-87243248D01*
X157506154Y-87275886D01*
X157376655Y-87373117D01*
X157216639Y-87540564D01*
X157149306Y-87639271D01*
X157094397Y-87684271D01*
X157023872Y-87692442D01*
X156960125Y-87661188D01*
X156939428Y-87636705D01*
X156897571Y-87572004D01*
X156894764Y-87567665D01*
X156738887Y-87396358D01*
X156734836Y-87393159D01*
X156734832Y-87393155D01*
X156561177Y-87256011D01*
X156561172Y-87256008D01*
X156557123Y-87252810D01*
X156552607Y-87250317D01*
X156552604Y-87250315D01*
X156358879Y-87143373D01*
X156358875Y-87143371D01*
X156354355Y-87140876D01*
X156349486Y-87139152D01*
X156349482Y-87139150D01*
X156140903Y-87065288D01*
X156140899Y-87065287D01*
X156136028Y-87063562D01*
X156130935Y-87062655D01*
X156130932Y-87062654D01*
X155913095Y-87023851D01*
X155913089Y-87023850D01*
X155908006Y-87022945D01*
X155835096Y-87022054D01*
X155681581Y-87020179D01*
X155681579Y-87020179D01*
X155676411Y-87020116D01*
X155447464Y-87055150D01*
X155227314Y-87127106D01*
X155222726Y-87129494D01*
X155222722Y-87129496D01*
X155135066Y-87175127D01*
X155021872Y-87234052D01*
X155017739Y-87237155D01*
X155017736Y-87237157D01*
X154966153Y-87275887D01*
X154836655Y-87373117D01*
X154676639Y-87540564D01*
X154609306Y-87639271D01*
X154554397Y-87684271D01*
X154483872Y-87692442D01*
X154420125Y-87661188D01*
X154399428Y-87636705D01*
X154357571Y-87572004D01*
X154354764Y-87567665D01*
X154198887Y-87396358D01*
X154194836Y-87393159D01*
X154194832Y-87393155D01*
X154021177Y-87256011D01*
X154021172Y-87256008D01*
X154017123Y-87252810D01*
X154012607Y-87250317D01*
X154012604Y-87250315D01*
X153818879Y-87143373D01*
X153818875Y-87143371D01*
X153814355Y-87140876D01*
X153809486Y-87139152D01*
X153809482Y-87139150D01*
X153600903Y-87065288D01*
X153600899Y-87065287D01*
X153596028Y-87063562D01*
X153590935Y-87062655D01*
X153590932Y-87062654D01*
X153373095Y-87023851D01*
X153373089Y-87023850D01*
X153368006Y-87022945D01*
X153295096Y-87022054D01*
X153141581Y-87020179D01*
X153141579Y-87020179D01*
X153136411Y-87020116D01*
X152907464Y-87055150D01*
X152687314Y-87127106D01*
X152682726Y-87129494D01*
X152682722Y-87129496D01*
X152595066Y-87175127D01*
X152481872Y-87234052D01*
X152477739Y-87237155D01*
X152477736Y-87237157D01*
X152426153Y-87275887D01*
X152296655Y-87373117D01*
X152136639Y-87540564D01*
X152069306Y-87639271D01*
X152014397Y-87684271D01*
X151943872Y-87692442D01*
X151880125Y-87661188D01*
X151859428Y-87636705D01*
X151817571Y-87572004D01*
X151814764Y-87567665D01*
X151658887Y-87396358D01*
X151654836Y-87393159D01*
X151654832Y-87393155D01*
X151481177Y-87256011D01*
X151481172Y-87256008D01*
X151477123Y-87252810D01*
X151472607Y-87250317D01*
X151472604Y-87250315D01*
X151278879Y-87143373D01*
X151278875Y-87143371D01*
X151274355Y-87140876D01*
X151269486Y-87139152D01*
X151269482Y-87139150D01*
X151060903Y-87065288D01*
X151060899Y-87065287D01*
X151056028Y-87063562D01*
X151050935Y-87062655D01*
X151050932Y-87062654D01*
X150833095Y-87023851D01*
X150833089Y-87023850D01*
X150828006Y-87022945D01*
X150755096Y-87022054D01*
X150601581Y-87020179D01*
X150601579Y-87020179D01*
X150596411Y-87020116D01*
X150367464Y-87055150D01*
X150147314Y-87127106D01*
X150142726Y-87129494D01*
X150142722Y-87129496D01*
X150055066Y-87175127D01*
X149941872Y-87234052D01*
X149937739Y-87237155D01*
X149937736Y-87237157D01*
X149886153Y-87275887D01*
X149756655Y-87373117D01*
X149596639Y-87540564D01*
X149593730Y-87544829D01*
X149593724Y-87544837D01*
X149578152Y-87567665D01*
X149466119Y-87731899D01*
X149368602Y-87941981D01*
X149306707Y-88165169D01*
X149282095Y-88395469D01*
X149282392Y-88400622D01*
X149282392Y-88400625D01*
X149288067Y-88499041D01*
X149295427Y-88626697D01*
X149296564Y-88631743D01*
X149296565Y-88631749D01*
X149328741Y-88774523D01*
X149346346Y-88852642D01*
X149348288Y-88857424D01*
X149348289Y-88857428D01*
X149423467Y-89042568D01*
X149433484Y-89067237D01*
X149554501Y-89264719D01*
X149706147Y-89439784D01*
X149884349Y-89587730D01*
X150084322Y-89704584D01*
X150300694Y-89787209D01*
X150305760Y-89788240D01*
X150305761Y-89788240D01*
X150358846Y-89799040D01*
X150527656Y-89833385D01*
X150658324Y-89838176D01*
X150753949Y-89841683D01*
X150753953Y-89841683D01*
X150759113Y-89841872D01*
X150764233Y-89841216D01*
X150764235Y-89841216D01*
X150837270Y-89831860D01*
X150988847Y-89812442D01*
X150993795Y-89810957D01*
X150993802Y-89810956D01*
X151205747Y-89747369D01*
X151210690Y-89745886D01*
X151291236Y-89706427D01*
X151414049Y-89646262D01*
X151414052Y-89646260D01*
X151418684Y-89643991D01*
X151607243Y-89509494D01*
X151771303Y-89346005D01*
X151774319Y-89341808D01*
X151774326Y-89341800D01*
X151861960Y-89219844D01*
X151917954Y-89176196D01*
X151988658Y-89169750D01*
X152051622Y-89202553D01*
X152071715Y-89227536D01*
X152091800Y-89260313D01*
X152091804Y-89260318D01*
X152094501Y-89264719D01*
X152246147Y-89439784D01*
X152424349Y-89587730D01*
X152624322Y-89704584D01*
X152840694Y-89787209D01*
X152845760Y-89788240D01*
X152845761Y-89788240D01*
X152898846Y-89799040D01*
X153067656Y-89833385D01*
X153198324Y-89838176D01*
X153293949Y-89841683D01*
X153293953Y-89841683D01*
X153299113Y-89841872D01*
X153304233Y-89841216D01*
X153304235Y-89841216D01*
X153377270Y-89831860D01*
X153528847Y-89812442D01*
X153533795Y-89810957D01*
X153533802Y-89810956D01*
X153745747Y-89747369D01*
X153750690Y-89745886D01*
X153831236Y-89706427D01*
X153954049Y-89646262D01*
X153954052Y-89646260D01*
X153958684Y-89643991D01*
X154147243Y-89509494D01*
X154311303Y-89346005D01*
X154314319Y-89341808D01*
X154314326Y-89341800D01*
X154401960Y-89219844D01*
X154457954Y-89176196D01*
X154528658Y-89169750D01*
X154591622Y-89202553D01*
X154611715Y-89227536D01*
X154631800Y-89260313D01*
X154631804Y-89260318D01*
X154634501Y-89264719D01*
X154786147Y-89439784D01*
X154964349Y-89587730D01*
X155164322Y-89704584D01*
X155380694Y-89787209D01*
X155385760Y-89788240D01*
X155385761Y-89788240D01*
X155438846Y-89799040D01*
X155607656Y-89833385D01*
X155738324Y-89838176D01*
X155833949Y-89841683D01*
X155833953Y-89841683D01*
X155839113Y-89841872D01*
X155844233Y-89841216D01*
X155844235Y-89841216D01*
X155917270Y-89831860D01*
X156068847Y-89812442D01*
X156073795Y-89810957D01*
X156073802Y-89810956D01*
X156285747Y-89747369D01*
X156290690Y-89745886D01*
X156371236Y-89706427D01*
X156494049Y-89646262D01*
X156494052Y-89646260D01*
X156498684Y-89643991D01*
X156687243Y-89509494D01*
X156851303Y-89346005D01*
X156854319Y-89341808D01*
X156854326Y-89341800D01*
X156941960Y-89219844D01*
X156997954Y-89176196D01*
X157068658Y-89169750D01*
X157131622Y-89202553D01*
X157151715Y-89227536D01*
X157171800Y-89260313D01*
X157171804Y-89260318D01*
X157174501Y-89264719D01*
X157326147Y-89439784D01*
X157504349Y-89587730D01*
X157704322Y-89704584D01*
X157920694Y-89787209D01*
X157925760Y-89788240D01*
X157925761Y-89788240D01*
X157978846Y-89799040D01*
X158147656Y-89833385D01*
X158278324Y-89838176D01*
X158373949Y-89841683D01*
X158373953Y-89841683D01*
X158379113Y-89841872D01*
X158384233Y-89841216D01*
X158384235Y-89841216D01*
X158457270Y-89831860D01*
X158608847Y-89812442D01*
X158613795Y-89810957D01*
X158613802Y-89810956D01*
X158825747Y-89747369D01*
X158830690Y-89745886D01*
X158911236Y-89706427D01*
X159034049Y-89646262D01*
X159034052Y-89646260D01*
X159038684Y-89643991D01*
X159227243Y-89509494D01*
X159391303Y-89346005D01*
X159394319Y-89341808D01*
X159394326Y-89341800D01*
X159481960Y-89219844D01*
X159537954Y-89176196D01*
X159608658Y-89169750D01*
X159671622Y-89202553D01*
X159691715Y-89227536D01*
X159711800Y-89260313D01*
X159711804Y-89260318D01*
X159714501Y-89264719D01*
X159866147Y-89439784D01*
X160044349Y-89587730D01*
X160244322Y-89704584D01*
X160460694Y-89787209D01*
X160465760Y-89788240D01*
X160465761Y-89788240D01*
X160518846Y-89799040D01*
X160687656Y-89833385D01*
X160818324Y-89838176D01*
X160913949Y-89841683D01*
X160913953Y-89841683D01*
X160919113Y-89841872D01*
X160924233Y-89841216D01*
X160924235Y-89841216D01*
X160997270Y-89831860D01*
X161148847Y-89812442D01*
X161153795Y-89810957D01*
X161153802Y-89810956D01*
X161365747Y-89747369D01*
X161370690Y-89745886D01*
X161451236Y-89706427D01*
X161574049Y-89646262D01*
X161574052Y-89646260D01*
X161578684Y-89643991D01*
X161767243Y-89509494D01*
X161931303Y-89346005D01*
X161934319Y-89341808D01*
X161934326Y-89341800D01*
X162021960Y-89219844D01*
X162077954Y-89176196D01*
X162148658Y-89169750D01*
X162211622Y-89202553D01*
X162231715Y-89227536D01*
X162251800Y-89260313D01*
X162251804Y-89260318D01*
X162254501Y-89264719D01*
X162406147Y-89439784D01*
X162584349Y-89587730D01*
X162784322Y-89704584D01*
X163000694Y-89787209D01*
X163005760Y-89788240D01*
X163005761Y-89788240D01*
X163058846Y-89799040D01*
X163227656Y-89833385D01*
X163358324Y-89838176D01*
X163453949Y-89841683D01*
X163453953Y-89841683D01*
X163459113Y-89841872D01*
X163464233Y-89841216D01*
X163464235Y-89841216D01*
X163537270Y-89831860D01*
X163688847Y-89812442D01*
X163693795Y-89810957D01*
X163693802Y-89810956D01*
X163905747Y-89747369D01*
X163910690Y-89745886D01*
X163991236Y-89706427D01*
X164114049Y-89646262D01*
X164114052Y-89646260D01*
X164118684Y-89643991D01*
X164307243Y-89509494D01*
X164471303Y-89346005D01*
X164474319Y-89341808D01*
X164474326Y-89341800D01*
X164561960Y-89219844D01*
X164617954Y-89176196D01*
X164688658Y-89169750D01*
X164751622Y-89202553D01*
X164771715Y-89227536D01*
X164791800Y-89260313D01*
X164791804Y-89260318D01*
X164794501Y-89264719D01*
X164946147Y-89439784D01*
X165124349Y-89587730D01*
X165324322Y-89704584D01*
X165540694Y-89787209D01*
X165545760Y-89788240D01*
X165545761Y-89788240D01*
X165598846Y-89799040D01*
X165767656Y-89833385D01*
X165898324Y-89838176D01*
X165993949Y-89841683D01*
X165993953Y-89841683D01*
X165999113Y-89841872D01*
X166004233Y-89841216D01*
X166004235Y-89841216D01*
X166077270Y-89831860D01*
X166228847Y-89812442D01*
X166233795Y-89810957D01*
X166233802Y-89810956D01*
X166445747Y-89747369D01*
X166450690Y-89745886D01*
X166531236Y-89706427D01*
X166654049Y-89646262D01*
X166654052Y-89646260D01*
X166658684Y-89643991D01*
X166847243Y-89509494D01*
X167011303Y-89346005D01*
X167146458Y-89157917D01*
X167193641Y-89062450D01*
X167246784Y-88954922D01*
X167246785Y-88954920D01*
X167249078Y-88950280D01*
X167316408Y-88728671D01*
X167346640Y-88499041D01*
X167348327Y-88430000D01*
X167342032Y-88353434D01*
X167329773Y-88204318D01*
X167329772Y-88204312D01*
X167329349Y-88199167D01*
X167272925Y-87974533D01*
X167270866Y-87969797D01*
X167182630Y-87766868D01*
X167182628Y-87766865D01*
X167180570Y-87762131D01*
X167054764Y-87567665D01*
X166898887Y-87396358D01*
X166894836Y-87393159D01*
X166894832Y-87393155D01*
X166721177Y-87256011D01*
X166721172Y-87256008D01*
X166717123Y-87252810D01*
X166712607Y-87250317D01*
X166712604Y-87250315D01*
X166518879Y-87143373D01*
X166518875Y-87143371D01*
X166514355Y-87140876D01*
X166509486Y-87139152D01*
X166509482Y-87139150D01*
X166300903Y-87065288D01*
X166300899Y-87065287D01*
X166296028Y-87063562D01*
X166290935Y-87062655D01*
X166290932Y-87062654D01*
X166073095Y-87023851D01*
X166073089Y-87023850D01*
X166068006Y-87022945D01*
X165995096Y-87022054D01*
X165841581Y-87020179D01*
X165841579Y-87020179D01*
X165836411Y-87020116D01*
X165607464Y-87055150D01*
X165387314Y-87127106D01*
X165382726Y-87129494D01*
X165382722Y-87129496D01*
X165295066Y-87175127D01*
X165181872Y-87234052D01*
X165177739Y-87237155D01*
X165177736Y-87237157D01*
X165126153Y-87275887D01*
X164996655Y-87373117D01*
X164836639Y-87540564D01*
X164769306Y-87639271D01*
X164714397Y-87684271D01*
X164643872Y-87692442D01*
X164580125Y-87661188D01*
X164559428Y-87636705D01*
X164517571Y-87572004D01*
X164514764Y-87567665D01*
X164358887Y-87396358D01*
X164354836Y-87393159D01*
X164354832Y-87393155D01*
X164181177Y-87256011D01*
X164181172Y-87256008D01*
X164177123Y-87252810D01*
X164172607Y-87250317D01*
X164172604Y-87250315D01*
X163978879Y-87143373D01*
X163978875Y-87143371D01*
X163974355Y-87140876D01*
X163969486Y-87139152D01*
X163969482Y-87139150D01*
X163760903Y-87065288D01*
X163760899Y-87065287D01*
X163756028Y-87063562D01*
X163750935Y-87062655D01*
X163750932Y-87062654D01*
X163533095Y-87023851D01*
X163533089Y-87023850D01*
X163528006Y-87022945D01*
X163455096Y-87022054D01*
X163301581Y-87020179D01*
X163301579Y-87020179D01*
X163296411Y-87020116D01*
X163067464Y-87055150D01*
X162847314Y-87127106D01*
X162842726Y-87129494D01*
X162842722Y-87129496D01*
X162755066Y-87175127D01*
X162641872Y-87234052D01*
X162637739Y-87237155D01*
X162637736Y-87237157D01*
X162586153Y-87275887D01*
X162456655Y-87373117D01*
X162296639Y-87540564D01*
X162229306Y-87639271D01*
X162174397Y-87684271D01*
X162103872Y-87692442D01*
X162040125Y-87661188D01*
X162019428Y-87636705D01*
X161977571Y-87572004D01*
X161974764Y-87567665D01*
X161818887Y-87396358D01*
X161814836Y-87393159D01*
X161814832Y-87393155D01*
X161641177Y-87256011D01*
X161641172Y-87256008D01*
X161637123Y-87252810D01*
X161632607Y-87250317D01*
X161632604Y-87250315D01*
X161438879Y-87143373D01*
X161438875Y-87143371D01*
X161434355Y-87140876D01*
X161429486Y-87139152D01*
X161429482Y-87139150D01*
X161220903Y-87065288D01*
X161220899Y-87065287D01*
X161216028Y-87063562D01*
X161210935Y-87062655D01*
X161210932Y-87062654D01*
X160993095Y-87023851D01*
X160993089Y-87023850D01*
X160988006Y-87022945D01*
X160915096Y-87022054D01*
X160761581Y-87020179D01*
X160761579Y-87020179D01*
X160756411Y-87020116D01*
X160527464Y-87055150D01*
X160307314Y-87127106D01*
X160302726Y-87129494D01*
X160302722Y-87129496D01*
X160215066Y-87175127D01*
X160101872Y-87234052D01*
X160097739Y-87237155D01*
X160097736Y-87237157D01*
X160046153Y-87275887D01*
X159916655Y-87373117D01*
X159756639Y-87540564D01*
X159689306Y-87639271D01*
X159634397Y-87684271D01*
X159563872Y-87692442D01*
X159500125Y-87661188D01*
X159479428Y-87636705D01*
X159437571Y-87572004D01*
X159434764Y-87567665D01*
X159278887Y-87396358D01*
X159274836Y-87393159D01*
X159274832Y-87393155D01*
X159121408Y-87271989D01*
X159080345Y-87214072D01*
X159073500Y-87173107D01*
X159073500Y-83351371D01*
X159093502Y-83283250D01*
X159110405Y-83262276D01*
X165010905Y-77361776D01*
X165073217Y-77327750D01*
X165144032Y-77332815D01*
X165189095Y-77361776D01*
X168326230Y-80498911D01*
X168338616Y-80513323D01*
X168347149Y-80524918D01*
X168347154Y-80524923D01*
X168351492Y-80530818D01*
X168357070Y-80535557D01*
X168357073Y-80535560D01*
X168391768Y-80565035D01*
X168399284Y-80571965D01*
X168404980Y-80577661D01*
X168407841Y-80579924D01*
X168407846Y-80579929D01*
X168427266Y-80595293D01*
X168430667Y-80598082D01*
X168486285Y-80645333D01*
X168492798Y-80648659D01*
X168497837Y-80652020D01*
X168502979Y-80655196D01*
X168508716Y-80659734D01*
X168574875Y-80690655D01*
X168578769Y-80692558D01*
X168643808Y-80725769D01*
X168650917Y-80727508D01*
X168656551Y-80729604D01*
X168662321Y-80731523D01*
X168668950Y-80734622D01*
X168676113Y-80736112D01*
X168676116Y-80736113D01*
X168726830Y-80746661D01*
X168740435Y-80749491D01*
X168744701Y-80750457D01*
X168815610Y-80767808D01*
X168821212Y-80768156D01*
X168821215Y-80768156D01*
X168826764Y-80768500D01*
X168826762Y-80768535D01*
X168830734Y-80768775D01*
X168834955Y-80769152D01*
X168842115Y-80770641D01*
X168919542Y-80768546D01*
X168922950Y-80768500D01*
X171382930Y-80768500D01*
X171401880Y-80769933D01*
X171416115Y-80772099D01*
X171416119Y-80772099D01*
X171423349Y-80773199D01*
X171430641Y-80772606D01*
X171430644Y-80772606D01*
X171476018Y-80768915D01*
X171486233Y-80768500D01*
X171494293Y-80768500D01*
X171511680Y-80766473D01*
X171522507Y-80765211D01*
X171526882Y-80764778D01*
X171592339Y-80759454D01*
X171592342Y-80759453D01*
X171599637Y-80758860D01*
X171606601Y-80756604D01*
X171612560Y-80755413D01*
X171618415Y-80754029D01*
X171625681Y-80753182D01*
X171694327Y-80728265D01*
X171698455Y-80726848D01*
X171760936Y-80706607D01*
X171760938Y-80706606D01*
X171767899Y-80704351D01*
X171774154Y-80700555D01*
X171779628Y-80698049D01*
X171785058Y-80695330D01*
X171791937Y-80692833D01*
X171798058Y-80688820D01*
X171852976Y-80652814D01*
X171856680Y-80650477D01*
X171919107Y-80612595D01*
X171927484Y-80605197D01*
X171927508Y-80605224D01*
X171930500Y-80602571D01*
X171933733Y-80599868D01*
X171939852Y-80595856D01*
X171993128Y-80539617D01*
X171995506Y-80537175D01*
X173198911Y-79333770D01*
X173213323Y-79321384D01*
X173224918Y-79312851D01*
X173224923Y-79312846D01*
X173230818Y-79308508D01*
X173235557Y-79302930D01*
X173235560Y-79302927D01*
X173265035Y-79268232D01*
X173271965Y-79260716D01*
X173277660Y-79255021D01*
X173295281Y-79232749D01*
X173298072Y-79229345D01*
X173340591Y-79179297D01*
X173340592Y-79179295D01*
X173345333Y-79173715D01*
X173348661Y-79167199D01*
X173352028Y-79162150D01*
X173355195Y-79157021D01*
X173359734Y-79151284D01*
X173390655Y-79085125D01*
X173392561Y-79081225D01*
X173425769Y-79016192D01*
X173427508Y-79009084D01*
X173429607Y-79003441D01*
X173431524Y-78997678D01*
X173434622Y-78991050D01*
X173449487Y-78919583D01*
X173450457Y-78915299D01*
X173466473Y-78849845D01*
X173467808Y-78844390D01*
X173468500Y-78833236D01*
X173468536Y-78833238D01*
X173468775Y-78829245D01*
X173469149Y-78825053D01*
X173470640Y-78817885D01*
X173468546Y-78740479D01*
X173468500Y-78737072D01*
X173468500Y-77900564D01*
X173488502Y-77832443D01*
X173539706Y-77789084D01*
X173538967Y-77787664D01*
X173543119Y-77785502D01*
X173547414Y-77783657D01*
X173666071Y-77710230D01*
X173772017Y-77644669D01*
X173772021Y-77644666D01*
X173775990Y-77642210D01*
X173981149Y-77468530D01*
X174158382Y-77266434D01*
X174303797Y-77040361D01*
X174414199Y-76795278D01*
X174451209Y-76664051D01*
X174485893Y-76541072D01*
X174485894Y-76541069D01*
X174487163Y-76536568D01*
X174505043Y-76396019D01*
X174520688Y-76273045D01*
X174520688Y-76273041D01*
X174521086Y-76269915D01*
X174523571Y-76175000D01*
X174503650Y-75906937D01*
X174502619Y-75902379D01*
X174445361Y-75649331D01*
X174445360Y-75649326D01*
X174444327Y-75644763D01*
X174346902Y-75394238D01*
X174213518Y-75160864D01*
X174200777Y-75144701D01*
X174141059Y-75068950D01*
X174047105Y-74949769D01*
X173851317Y-74765591D01*
X173694751Y-74656976D01*
X173634299Y-74615039D01*
X173634296Y-74615037D01*
X173630457Y-74612374D01*
X173587882Y-74591378D01*
X173480698Y-74538521D01*
X173428449Y-74490453D01*
X173410482Y-74421767D01*
X173432501Y-74354271D01*
X173486688Y-74309747D01*
X173543120Y-74285502D01*
X173543122Y-74285501D01*
X173547414Y-74283657D01*
X173666071Y-74210230D01*
X173772017Y-74144669D01*
X173772021Y-74144666D01*
X173775990Y-74142210D01*
X173981149Y-73968530D01*
X174158382Y-73766434D01*
X174264798Y-73600993D01*
X174301272Y-73544287D01*
X174301274Y-73544284D01*
X174303797Y-73540361D01*
X174318487Y-73507750D01*
X174364702Y-73453855D01*
X174433369Y-73433500D01*
X175178629Y-73433500D01*
X175246750Y-73453502D01*
X175267724Y-73470405D01*
X177004595Y-75207276D01*
X177038621Y-75269588D01*
X177041500Y-75296371D01*
X177041500Y-91073629D01*
X177021498Y-91141750D01*
X177004595Y-91162724D01*
X174982724Y-93184595D01*
X174920412Y-93218621D01*
X174893629Y-93221500D01*
X155372070Y-93221500D01*
X155353120Y-93220067D01*
X155338885Y-93217901D01*
X155338881Y-93217901D01*
X155331651Y-93216801D01*
X155324359Y-93217394D01*
X155324356Y-93217394D01*
X155278982Y-93221085D01*
X155268767Y-93221500D01*
X155260707Y-93221500D01*
X155247417Y-93223049D01*
X155232493Y-93224789D01*
X155228118Y-93225222D01*
X155162661Y-93230546D01*
X155162658Y-93230547D01*
X155155363Y-93231140D01*
X155148399Y-93233396D01*
X155142440Y-93234587D01*
X155136585Y-93235971D01*
X155129319Y-93236818D01*
X155060673Y-93261735D01*
X155056545Y-93263152D01*
X154994064Y-93283393D01*
X154994062Y-93283394D01*
X154987101Y-93285649D01*
X154980846Y-93289445D01*
X154975372Y-93291951D01*
X154969942Y-93294670D01*
X154963063Y-93297167D01*
X154956943Y-93301180D01*
X154956942Y-93301180D01*
X154902024Y-93337186D01*
X154898320Y-93339523D01*
X154835893Y-93377405D01*
X154827516Y-93384803D01*
X154827492Y-93384776D01*
X154824500Y-93387429D01*
X154821267Y-93390132D01*
X154815148Y-93394144D01*
X154810116Y-93399456D01*
X154761872Y-93450383D01*
X154759494Y-93452825D01*
X153585407Y-94626912D01*
X153523095Y-94660938D01*
X153474216Y-94661864D01*
X153373095Y-94643851D01*
X153373089Y-94643850D01*
X153368006Y-94642945D01*
X153295096Y-94642054D01*
X153141581Y-94640179D01*
X153141579Y-94640179D01*
X153136411Y-94640116D01*
X152907464Y-94675150D01*
X152687314Y-94747106D01*
X152682726Y-94749494D01*
X152682722Y-94749496D01*
X152486461Y-94851663D01*
X152481872Y-94854052D01*
X152477739Y-94857155D01*
X152477736Y-94857157D01*
X152413395Y-94905466D01*
X152296655Y-94993117D01*
X152279170Y-95011414D01*
X152217646Y-95046844D01*
X152146733Y-95043387D01*
X152088947Y-95002141D01*
X152070094Y-94968592D01*
X152048768Y-94911705D01*
X152048767Y-94911703D01*
X152045615Y-94903295D01*
X151958261Y-94786739D01*
X151841705Y-94699385D01*
X151705316Y-94648255D01*
X151643134Y-94641500D01*
X149746866Y-94641500D01*
X149684684Y-94648255D01*
X149548295Y-94699385D01*
X149431739Y-94786739D01*
X149344385Y-94903295D01*
X149293255Y-95039684D01*
X149286500Y-95101866D01*
X149286500Y-95165500D01*
X149266498Y-95233621D01*
X149212842Y-95280114D01*
X149160500Y-95291500D01*
X147216371Y-95291500D01*
X147148250Y-95271498D01*
X147127276Y-95254595D01*
X145575405Y-93702724D01*
X145541379Y-93640412D01*
X145538500Y-93613629D01*
X145538500Y-75676371D01*
X145558502Y-75608250D01*
X145575405Y-75587276D01*
X147888966Y-73273715D01*
X147951278Y-73239689D01*
X147989036Y-73237289D01*
X148002873Y-73238500D01*
X148317127Y-73238500D01*
X148319844Y-73238262D01*
X148319851Y-73238262D01*
X148389491Y-73232169D01*
X148488087Y-73223543D01*
X148493400Y-73222119D01*
X148493402Y-73222119D01*
X148703933Y-73165707D01*
X148703935Y-73165706D01*
X148709243Y-73164284D01*
X148719168Y-73159656D01*
X148911762Y-73069849D01*
X148911767Y-73069846D01*
X148916749Y-73067523D01*
X149099179Y-72939784D01*
X149099789Y-72939357D01*
X149099792Y-72939355D01*
X149104300Y-72936198D01*
X149266198Y-72774300D01*
X149275989Y-72760318D01*
X149365700Y-72632197D01*
X149397523Y-72586749D01*
X149399846Y-72581767D01*
X149399849Y-72581762D01*
X149491961Y-72384225D01*
X149491961Y-72384224D01*
X149494284Y-72379243D01*
X149498172Y-72364735D01*
X149552119Y-72163402D01*
X149552119Y-72163400D01*
X149553543Y-72158087D01*
X149573498Y-71930000D01*
X149553543Y-71701913D01*
X149545073Y-71670301D01*
X149495707Y-71486067D01*
X149495706Y-71486065D01*
X149494284Y-71480757D01*
X149474020Y-71437301D01*
X149399849Y-71278238D01*
X149399846Y-71278233D01*
X149397523Y-71273251D01*
X149316658Y-71157764D01*
X149269357Y-71090211D01*
X149269355Y-71090208D01*
X149266198Y-71085700D01*
X149104300Y-70923802D01*
X149099792Y-70920645D01*
X149099789Y-70920643D01*
X148971881Y-70831081D01*
X148916749Y-70792477D01*
X148911767Y-70790154D01*
X148911762Y-70790151D01*
X148714225Y-70698039D01*
X148714224Y-70698039D01*
X148709243Y-70695716D01*
X148703935Y-70694294D01*
X148703933Y-70694293D01*
X148493402Y-70637881D01*
X148493400Y-70637881D01*
X148488087Y-70636457D01*
X148388520Y-70627746D01*
X148319851Y-70621738D01*
X148319844Y-70621738D01*
X148317127Y-70621500D01*
X148002873Y-70621500D01*
X148000156Y-70621738D01*
X148000149Y-70621738D01*
X147931480Y-70627746D01*
X147831913Y-70636457D01*
X147826600Y-70637881D01*
X147826598Y-70637881D01*
X147616067Y-70694293D01*
X147616065Y-70694294D01*
X147610757Y-70695716D01*
X147605776Y-70698039D01*
X147605775Y-70698039D01*
X147408238Y-70790151D01*
X147408233Y-70790154D01*
X147403251Y-70792477D01*
X147348119Y-70831081D01*
X147220211Y-70920643D01*
X147220208Y-70920645D01*
X147215700Y-70923802D01*
X147053802Y-71085700D01*
X147050645Y-71090208D01*
X147050643Y-71090211D01*
X147003342Y-71157764D01*
X146922477Y-71273251D01*
X146920154Y-71278233D01*
X146920151Y-71278238D01*
X146845980Y-71437301D01*
X146825716Y-71480757D01*
X146824294Y-71486065D01*
X146824293Y-71486067D01*
X146774927Y-71670301D01*
X146766457Y-71701913D01*
X146746502Y-71930000D01*
X146766457Y-72158087D01*
X146767882Y-72163406D01*
X146768836Y-72168814D01*
X146767046Y-72169130D01*
X146765538Y-72231989D01*
X146734623Y-72282696D01*
X144291089Y-74726230D01*
X144276677Y-74738616D01*
X144265082Y-74747149D01*
X144265077Y-74747154D01*
X144259182Y-74751492D01*
X144254443Y-74757070D01*
X144254440Y-74757073D01*
X144224965Y-74791768D01*
X144218035Y-74799284D01*
X144212340Y-74804979D01*
X144210060Y-74807861D01*
X144194719Y-74827251D01*
X144191928Y-74830655D01*
X144172842Y-74853121D01*
X144144667Y-74886285D01*
X144141339Y-74892801D01*
X144137972Y-74897850D01*
X144134805Y-74902979D01*
X144130266Y-74908716D01*
X144099345Y-74974875D01*
X144097442Y-74978769D01*
X144064231Y-75043808D01*
X144062492Y-75050916D01*
X144060393Y-75056559D01*
X144058476Y-75062322D01*
X144055378Y-75068950D01*
X144053888Y-75076112D01*
X144053888Y-75076113D01*
X144040514Y-75140412D01*
X144039544Y-75144696D01*
X144022192Y-75215610D01*
X144021500Y-75226764D01*
X144021464Y-75226762D01*
X144021225Y-75230755D01*
X144020851Y-75234947D01*
X144019360Y-75242115D01*
X144019558Y-75249432D01*
X144021454Y-75319521D01*
X144021500Y-75322928D01*
X144021500Y-93912930D01*
X144020067Y-93931880D01*
X144016801Y-93953349D01*
X144017394Y-93960641D01*
X144017394Y-93960644D01*
X144021085Y-94006018D01*
X144021500Y-94016233D01*
X144021500Y-94024293D01*
X144021925Y-94027937D01*
X144024789Y-94052507D01*
X144025222Y-94056882D01*
X144031140Y-94129637D01*
X144033396Y-94136601D01*
X144034587Y-94142560D01*
X144035971Y-94148415D01*
X144036818Y-94155681D01*
X144061735Y-94224327D01*
X144063152Y-94228455D01*
X144085649Y-94297899D01*
X144089445Y-94304154D01*
X144091951Y-94309628D01*
X144094670Y-94315058D01*
X144097167Y-94321937D01*
X144101180Y-94328057D01*
X144101180Y-94328058D01*
X144137186Y-94382976D01*
X144139523Y-94386680D01*
X144177405Y-94449107D01*
X144181121Y-94453315D01*
X144181122Y-94453316D01*
X144184803Y-94457484D01*
X144184776Y-94457508D01*
X144187429Y-94460500D01*
X144190132Y-94463733D01*
X144194144Y-94469852D01*
X144199456Y-94474884D01*
X144250383Y-94523128D01*
X144252825Y-94525506D01*
X146266230Y-96538911D01*
X146278616Y-96553323D01*
X146287149Y-96564918D01*
X146287154Y-96564923D01*
X146291492Y-96570818D01*
X146297070Y-96575557D01*
X146297073Y-96575560D01*
X146331768Y-96605035D01*
X146339284Y-96611965D01*
X146344979Y-96617660D01*
X146347861Y-96619940D01*
X146367251Y-96635281D01*
X146370655Y-96638072D01*
X146399489Y-96662568D01*
X146426285Y-96685333D01*
X146432801Y-96688661D01*
X146437850Y-96692028D01*
X146442979Y-96695195D01*
X146448716Y-96699734D01*
X146514875Y-96730655D01*
X146518769Y-96732558D01*
X146583808Y-96765769D01*
X146590916Y-96767508D01*
X146596559Y-96769607D01*
X146602322Y-96771524D01*
X146608950Y-96774622D01*
X146616112Y-96776112D01*
X146616113Y-96776112D01*
X146680412Y-96789486D01*
X146684696Y-96790456D01*
X146755610Y-96807808D01*
X146761212Y-96808156D01*
X146761215Y-96808156D01*
X146766764Y-96808500D01*
X146766762Y-96808536D01*
X146770755Y-96808775D01*
X146774947Y-96809149D01*
X146782115Y-96810640D01*
X146859520Y-96808546D01*
X146862928Y-96808500D01*
X149160500Y-96808500D01*
X149228621Y-96828502D01*
X149275114Y-96882158D01*
X149286500Y-96934500D01*
X149286500Y-96998134D01*
X149293255Y-97060316D01*
X149344385Y-97196705D01*
X149431739Y-97313261D01*
X149548295Y-97400615D01*
X149684684Y-97451745D01*
X149746866Y-97458500D01*
X149810500Y-97458500D01*
X149878621Y-97478502D01*
X149925114Y-97532158D01*
X149936500Y-97584500D01*
X149936500Y-100398629D01*
X149916498Y-100466750D01*
X149899595Y-100487724D01*
X148432263Y-101955056D01*
X148369951Y-101989082D01*
X148343168Y-101991961D01*
X134707070Y-101991961D01*
X134671715Y-101981580D01*
X134660741Y-101988077D01*
X134629697Y-101991961D01*
X132167070Y-101991961D01*
X132131715Y-101981580D01*
X132120741Y-101988077D01*
X132089697Y-101991961D01*
X129627070Y-101991961D01*
X129591715Y-101981580D01*
X129580741Y-101988077D01*
X129549697Y-101991961D01*
X127087070Y-101991961D01*
X127051715Y-101981580D01*
X127040741Y-101988077D01*
X127009697Y-101991961D01*
X125898757Y-101991961D01*
X125830636Y-101971959D01*
X125809662Y-101955056D01*
X125407328Y-101552722D01*
X125373302Y-101490410D01*
X125378367Y-101419595D01*
X125407482Y-101374378D01*
X125536303Y-101246005D01*
X125539319Y-101241808D01*
X125539326Y-101241800D01*
X125626960Y-101119844D01*
X125682954Y-101076196D01*
X125753658Y-101069750D01*
X125816622Y-101102553D01*
X125836715Y-101127536D01*
X125856800Y-101160313D01*
X125856804Y-101160318D01*
X125859501Y-101164719D01*
X126011147Y-101339784D01*
X126189349Y-101487730D01*
X126389322Y-101604584D01*
X126605694Y-101687209D01*
X126610760Y-101688240D01*
X126610761Y-101688240D01*
X126663846Y-101699040D01*
X126832656Y-101733385D01*
X127008519Y-101739833D01*
X127014314Y-101740046D01*
X127043973Y-101749949D01*
X127051572Y-101745065D01*
X127071060Y-101740982D01*
X127293847Y-101712442D01*
X127298795Y-101710957D01*
X127298802Y-101710956D01*
X127510747Y-101647369D01*
X127515690Y-101645886D01*
X127526419Y-101640630D01*
X127719049Y-101546262D01*
X127719052Y-101546260D01*
X127723684Y-101543991D01*
X127912243Y-101409494D01*
X128076303Y-101246005D01*
X128079319Y-101241808D01*
X128079326Y-101241800D01*
X128166960Y-101119844D01*
X128222954Y-101076196D01*
X128293658Y-101069750D01*
X128356622Y-101102553D01*
X128376715Y-101127536D01*
X128396800Y-101160313D01*
X128396804Y-101160318D01*
X128399501Y-101164719D01*
X128551147Y-101339784D01*
X128729349Y-101487730D01*
X128929322Y-101604584D01*
X129145694Y-101687209D01*
X129150760Y-101688240D01*
X129150761Y-101688240D01*
X129203846Y-101699040D01*
X129372656Y-101733385D01*
X129548519Y-101739833D01*
X129554314Y-101740046D01*
X129583973Y-101749949D01*
X129591572Y-101745065D01*
X129611060Y-101740982D01*
X129833847Y-101712442D01*
X129838795Y-101710957D01*
X129838802Y-101710956D01*
X130050747Y-101647369D01*
X130055690Y-101645886D01*
X130066419Y-101640630D01*
X130259049Y-101546262D01*
X130259052Y-101546260D01*
X130263684Y-101543991D01*
X130452243Y-101409494D01*
X130616303Y-101246005D01*
X130619319Y-101241808D01*
X130619326Y-101241800D01*
X130706960Y-101119844D01*
X130762954Y-101076196D01*
X130833658Y-101069750D01*
X130896622Y-101102553D01*
X130916715Y-101127536D01*
X130936800Y-101160313D01*
X130936804Y-101160318D01*
X130939501Y-101164719D01*
X131091147Y-101339784D01*
X131269349Y-101487730D01*
X131469322Y-101604584D01*
X131685694Y-101687209D01*
X131690760Y-101688240D01*
X131690761Y-101688240D01*
X131743846Y-101699040D01*
X131912656Y-101733385D01*
X132088519Y-101739833D01*
X132094314Y-101740046D01*
X132123973Y-101749949D01*
X132131572Y-101745065D01*
X132151060Y-101740982D01*
X132373847Y-101712442D01*
X132378795Y-101710957D01*
X132378802Y-101710956D01*
X132590747Y-101647369D01*
X132595690Y-101645886D01*
X132606419Y-101640630D01*
X132799049Y-101546262D01*
X132799052Y-101546260D01*
X132803684Y-101543991D01*
X132992243Y-101409494D01*
X133156303Y-101246005D01*
X133159319Y-101241808D01*
X133159326Y-101241800D01*
X133246960Y-101119844D01*
X133302954Y-101076196D01*
X133373658Y-101069750D01*
X133436622Y-101102553D01*
X133456715Y-101127536D01*
X133476800Y-101160313D01*
X133476804Y-101160318D01*
X133479501Y-101164719D01*
X133631147Y-101339784D01*
X133809349Y-101487730D01*
X134009322Y-101604584D01*
X134225694Y-101687209D01*
X134230760Y-101688240D01*
X134230761Y-101688240D01*
X134283846Y-101699040D01*
X134452656Y-101733385D01*
X134628519Y-101739833D01*
X134634314Y-101740046D01*
X134663973Y-101749949D01*
X134671572Y-101745065D01*
X134691060Y-101740982D01*
X134913847Y-101712442D01*
X134918795Y-101710957D01*
X134918802Y-101710956D01*
X135130747Y-101647369D01*
X135135690Y-101645886D01*
X135146419Y-101640630D01*
X135339049Y-101546262D01*
X135339052Y-101546260D01*
X135343684Y-101543991D01*
X135532243Y-101409494D01*
X135696303Y-101246005D01*
X135831458Y-101057917D01*
X135844667Y-101031192D01*
X135931784Y-100854922D01*
X135931785Y-100854920D01*
X135934078Y-100850280D01*
X136001408Y-100628671D01*
X136031640Y-100399041D01*
X136033327Y-100330000D01*
X136027032Y-100253434D01*
X136014773Y-100104318D01*
X136014772Y-100104312D01*
X136014349Y-100099167D01*
X135957925Y-99874533D01*
X135955866Y-99869797D01*
X135867630Y-99666868D01*
X135867628Y-99666865D01*
X135865570Y-99662131D01*
X135739764Y-99467665D01*
X135583887Y-99296358D01*
X135579836Y-99293159D01*
X135579832Y-99293155D01*
X135406177Y-99156011D01*
X135406172Y-99156008D01*
X135402123Y-99152810D01*
X135397607Y-99150317D01*
X135397604Y-99150315D01*
X135203879Y-99043373D01*
X135203875Y-99043371D01*
X135199355Y-99040876D01*
X135194486Y-99039152D01*
X135194482Y-99039150D01*
X134985903Y-98965288D01*
X134985899Y-98965287D01*
X134981028Y-98963562D01*
X134975935Y-98962655D01*
X134975932Y-98962654D01*
X134758095Y-98923851D01*
X134758089Y-98923850D01*
X134753006Y-98922945D01*
X134680096Y-98922054D01*
X134526581Y-98920179D01*
X134526579Y-98920179D01*
X134521411Y-98920116D01*
X134292464Y-98955150D01*
X134072314Y-99027106D01*
X134067726Y-99029494D01*
X134067722Y-99029496D01*
X134041065Y-99043373D01*
X133866872Y-99134052D01*
X133862739Y-99137155D01*
X133862736Y-99137157D01*
X133837625Y-99156011D01*
X133681655Y-99273117D01*
X133521639Y-99440564D01*
X133454306Y-99539271D01*
X133399397Y-99584271D01*
X133328872Y-99592442D01*
X133265125Y-99561188D01*
X133244428Y-99536705D01*
X133202571Y-99472004D01*
X133199764Y-99467665D01*
X133043887Y-99296358D01*
X133039836Y-99293159D01*
X133039832Y-99293155D01*
X132866177Y-99156011D01*
X132866172Y-99156008D01*
X132862123Y-99152810D01*
X132857607Y-99150317D01*
X132857604Y-99150315D01*
X132663879Y-99043373D01*
X132663875Y-99043371D01*
X132659355Y-99040876D01*
X132654486Y-99039152D01*
X132654482Y-99039150D01*
X132445903Y-98965288D01*
X132445899Y-98965287D01*
X132441028Y-98963562D01*
X132435935Y-98962655D01*
X132435932Y-98962654D01*
X132218095Y-98923851D01*
X132218089Y-98923850D01*
X132213006Y-98922945D01*
X132140096Y-98922054D01*
X131986581Y-98920179D01*
X131986579Y-98920179D01*
X131981411Y-98920116D01*
X131752464Y-98955150D01*
X131532314Y-99027106D01*
X131527726Y-99029494D01*
X131527722Y-99029496D01*
X131501065Y-99043373D01*
X131326872Y-99134052D01*
X131322739Y-99137155D01*
X131322736Y-99137157D01*
X131297625Y-99156011D01*
X131141655Y-99273117D01*
X130981639Y-99440564D01*
X130914306Y-99539271D01*
X130859397Y-99584271D01*
X130788872Y-99592442D01*
X130725125Y-99561188D01*
X130704428Y-99536705D01*
X130662571Y-99472004D01*
X130659764Y-99467665D01*
X130503887Y-99296358D01*
X130499836Y-99293159D01*
X130499832Y-99293155D01*
X130326177Y-99156011D01*
X130326172Y-99156008D01*
X130322123Y-99152810D01*
X130317607Y-99150317D01*
X130317604Y-99150315D01*
X130123879Y-99043373D01*
X130123875Y-99043371D01*
X130119355Y-99040876D01*
X130114486Y-99039152D01*
X130114482Y-99039150D01*
X129905903Y-98965288D01*
X129905899Y-98965287D01*
X129901028Y-98963562D01*
X129895935Y-98962655D01*
X129895932Y-98962654D01*
X129678095Y-98923851D01*
X129678089Y-98923850D01*
X129673006Y-98922945D01*
X129600096Y-98922054D01*
X129446581Y-98920179D01*
X129446579Y-98920179D01*
X129441411Y-98920116D01*
X129212464Y-98955150D01*
X128992314Y-99027106D01*
X128987726Y-99029494D01*
X128987722Y-99029496D01*
X128961065Y-99043373D01*
X128786872Y-99134052D01*
X128782739Y-99137155D01*
X128782736Y-99137157D01*
X128757625Y-99156011D01*
X128601655Y-99273117D01*
X128441639Y-99440564D01*
X128374306Y-99539271D01*
X128319397Y-99584271D01*
X128248872Y-99592442D01*
X128185125Y-99561188D01*
X128164428Y-99536705D01*
X128122571Y-99472004D01*
X128119764Y-99467665D01*
X127963887Y-99296358D01*
X127959836Y-99293159D01*
X127959832Y-99293155D01*
X127786177Y-99156011D01*
X127786172Y-99156008D01*
X127782123Y-99152810D01*
X127777607Y-99150317D01*
X127777604Y-99150315D01*
X127583879Y-99043373D01*
X127583875Y-99043371D01*
X127579355Y-99040876D01*
X127574486Y-99039152D01*
X127574482Y-99039150D01*
X127365903Y-98965288D01*
X127365899Y-98965287D01*
X127361028Y-98963562D01*
X127355935Y-98962655D01*
X127355932Y-98962654D01*
X127138095Y-98923851D01*
X127138089Y-98923850D01*
X127133006Y-98922945D01*
X127060096Y-98922054D01*
X126906581Y-98920179D01*
X126906579Y-98920179D01*
X126901411Y-98920116D01*
X126672464Y-98955150D01*
X126452314Y-99027106D01*
X126447726Y-99029494D01*
X126447722Y-99029496D01*
X126421065Y-99043373D01*
X126246872Y-99134052D01*
X126242739Y-99137155D01*
X126242736Y-99137157D01*
X126217625Y-99156011D01*
X126061655Y-99273117D01*
X125901639Y-99440564D01*
X125834306Y-99539271D01*
X125779397Y-99584271D01*
X125708872Y-99592442D01*
X125645125Y-99561188D01*
X125624428Y-99536705D01*
X125582571Y-99472004D01*
X125579764Y-99467665D01*
X125423887Y-99296358D01*
X125419836Y-99293159D01*
X125419832Y-99293155D01*
X125246177Y-99156011D01*
X125246172Y-99156008D01*
X125242123Y-99152810D01*
X125237607Y-99150317D01*
X125237604Y-99150315D01*
X125043879Y-99043373D01*
X125043875Y-99043371D01*
X125039355Y-99040876D01*
X125034486Y-99039152D01*
X125034482Y-99039150D01*
X124825903Y-98965288D01*
X124825899Y-98965287D01*
X124821028Y-98963562D01*
X124815935Y-98962655D01*
X124815932Y-98962654D01*
X124598095Y-98923851D01*
X124598089Y-98923850D01*
X124593006Y-98922945D01*
X124520096Y-98922054D01*
X124366581Y-98920179D01*
X124366579Y-98920179D01*
X124361411Y-98920116D01*
X124132464Y-98955150D01*
X123912314Y-99027106D01*
X123907726Y-99029494D01*
X123907722Y-99029496D01*
X123881065Y-99043373D01*
X123706872Y-99134052D01*
X123702739Y-99137155D01*
X123702736Y-99137157D01*
X123677625Y-99156011D01*
X123521655Y-99273117D01*
X123361639Y-99440564D01*
X123294306Y-99539271D01*
X123239397Y-99584271D01*
X123168872Y-99592442D01*
X123105125Y-99561188D01*
X123084428Y-99536705D01*
X123042571Y-99472004D01*
X123039764Y-99467665D01*
X122883887Y-99296358D01*
X122879836Y-99293159D01*
X122879832Y-99293155D01*
X122706177Y-99156011D01*
X122706172Y-99156008D01*
X122702123Y-99152810D01*
X122697607Y-99150317D01*
X122697604Y-99150315D01*
X122503879Y-99043373D01*
X122503875Y-99043371D01*
X122499355Y-99040876D01*
X122494486Y-99039152D01*
X122494482Y-99039150D01*
X122285903Y-98965288D01*
X122285899Y-98965287D01*
X122281028Y-98963562D01*
X122275935Y-98962655D01*
X122275932Y-98962654D01*
X122058095Y-98923851D01*
X122058089Y-98923850D01*
X122053006Y-98922945D01*
X121980096Y-98922054D01*
X121826581Y-98920179D01*
X121826579Y-98920179D01*
X121821411Y-98920116D01*
X121592464Y-98955150D01*
X121372314Y-99027106D01*
X121367726Y-99029494D01*
X121367722Y-99029496D01*
X121341065Y-99043373D01*
X121166872Y-99134052D01*
X121162739Y-99137155D01*
X121162736Y-99137157D01*
X121137625Y-99156011D01*
X120981655Y-99273117D01*
X120821639Y-99440564D01*
X120754306Y-99539271D01*
X120699397Y-99584271D01*
X120628872Y-99592442D01*
X120565125Y-99561188D01*
X120544428Y-99536705D01*
X120502571Y-99472004D01*
X120499764Y-99467665D01*
X120343887Y-99296358D01*
X120339836Y-99293159D01*
X120339832Y-99293155D01*
X120166177Y-99156011D01*
X120166172Y-99156008D01*
X120162123Y-99152810D01*
X120157607Y-99150317D01*
X120157604Y-99150315D01*
X119963879Y-99043373D01*
X119963875Y-99043371D01*
X119959355Y-99040876D01*
X119954486Y-99039152D01*
X119954482Y-99039150D01*
X119745903Y-98965288D01*
X119745899Y-98965287D01*
X119741028Y-98963562D01*
X119735935Y-98962655D01*
X119735932Y-98962654D01*
X119518095Y-98923851D01*
X119518089Y-98923850D01*
X119513006Y-98922945D01*
X119440096Y-98922054D01*
X119286581Y-98920179D01*
X119286579Y-98920179D01*
X119281411Y-98920116D01*
X119052464Y-98955150D01*
X118832314Y-99027106D01*
X118827726Y-99029494D01*
X118827722Y-99029496D01*
X118801065Y-99043373D01*
X118626872Y-99134052D01*
X118622739Y-99137155D01*
X118622736Y-99137157D01*
X118597625Y-99156011D01*
X118441655Y-99273117D01*
X118281639Y-99440564D01*
X118214306Y-99539271D01*
X118159397Y-99584271D01*
X118088872Y-99592442D01*
X118025125Y-99561188D01*
X118004428Y-99536705D01*
X117962571Y-99472004D01*
X117959764Y-99467665D01*
X117803887Y-99296358D01*
X117799836Y-99293159D01*
X117799832Y-99293155D01*
X117626177Y-99156011D01*
X117626172Y-99156008D01*
X117622123Y-99152810D01*
X117617607Y-99150317D01*
X117617604Y-99150315D01*
X117423879Y-99043373D01*
X117423875Y-99043371D01*
X117419355Y-99040876D01*
X117414486Y-99039152D01*
X117414482Y-99039150D01*
X117205903Y-98965288D01*
X117205899Y-98965287D01*
X117201028Y-98963562D01*
X117195935Y-98962655D01*
X117195932Y-98962654D01*
X116978095Y-98923851D01*
X116978089Y-98923850D01*
X116973006Y-98922945D01*
X116900096Y-98922054D01*
X116746581Y-98920179D01*
X116746579Y-98920179D01*
X116741411Y-98920116D01*
X116512464Y-98955150D01*
X116292314Y-99027106D01*
X116287726Y-99029494D01*
X116287722Y-99029496D01*
X116261065Y-99043373D01*
X116086872Y-99134052D01*
X116082739Y-99137155D01*
X116082736Y-99137157D01*
X116057625Y-99156011D01*
X115901655Y-99273117D01*
X115741639Y-99440564D01*
X115674306Y-99539271D01*
X115619397Y-99584271D01*
X115548872Y-99592442D01*
X115485125Y-99561188D01*
X115464428Y-99536705D01*
X115422571Y-99472004D01*
X115419764Y-99467665D01*
X115263887Y-99296358D01*
X115259836Y-99293159D01*
X115259832Y-99293155D01*
X115086177Y-99156011D01*
X115086172Y-99156008D01*
X115082123Y-99152810D01*
X115077607Y-99150317D01*
X115077604Y-99150315D01*
X114883879Y-99043373D01*
X114883875Y-99043371D01*
X114879355Y-99040876D01*
X114874486Y-99039152D01*
X114874482Y-99039150D01*
X114665903Y-98965288D01*
X114665899Y-98965287D01*
X114661028Y-98963562D01*
X114655935Y-98962655D01*
X114655932Y-98962654D01*
X114438095Y-98923851D01*
X114438089Y-98923850D01*
X114433006Y-98922945D01*
X114360096Y-98922054D01*
X114206581Y-98920179D01*
X114206579Y-98920179D01*
X114201411Y-98920116D01*
X113972464Y-98955150D01*
X113752314Y-99027106D01*
X113747726Y-99029494D01*
X113747722Y-99029496D01*
X113721065Y-99043373D01*
X113546872Y-99134052D01*
X113542739Y-99137155D01*
X113542736Y-99137157D01*
X113517625Y-99156011D01*
X113361655Y-99273117D01*
X113201639Y-99440564D01*
X113134306Y-99539271D01*
X113079397Y-99584271D01*
X113008872Y-99592442D01*
X112945125Y-99561188D01*
X112924428Y-99536705D01*
X112882571Y-99472004D01*
X112879764Y-99467665D01*
X112723887Y-99296358D01*
X112719836Y-99293159D01*
X112719832Y-99293155D01*
X112546177Y-99156011D01*
X112546172Y-99156008D01*
X112542123Y-99152810D01*
X112537607Y-99150317D01*
X112537604Y-99150315D01*
X112343879Y-99043373D01*
X112343875Y-99043371D01*
X112339355Y-99040876D01*
X112334486Y-99039152D01*
X112334482Y-99039150D01*
X112125903Y-98965288D01*
X112125899Y-98965287D01*
X112121028Y-98963562D01*
X112115935Y-98962655D01*
X112115932Y-98962654D01*
X111898095Y-98923851D01*
X111898089Y-98923850D01*
X111893006Y-98922945D01*
X111820096Y-98922054D01*
X111666581Y-98920179D01*
X111666579Y-98920179D01*
X111661411Y-98920116D01*
X111432464Y-98955150D01*
X111212314Y-99027106D01*
X111207726Y-99029494D01*
X111207722Y-99029496D01*
X111181065Y-99043373D01*
X111006872Y-99134052D01*
X111002739Y-99137155D01*
X111002736Y-99137157D01*
X110977625Y-99156011D01*
X110821655Y-99273117D01*
X110661639Y-99440564D01*
X110594306Y-99539271D01*
X110539397Y-99584271D01*
X110468872Y-99592442D01*
X110405125Y-99561188D01*
X110384428Y-99536705D01*
X110342571Y-99472004D01*
X110339764Y-99467665D01*
X110183887Y-99296358D01*
X110179836Y-99293159D01*
X110179832Y-99293155D01*
X110006177Y-99156011D01*
X110006172Y-99156008D01*
X110002123Y-99152810D01*
X109997607Y-99150317D01*
X109997604Y-99150315D01*
X109803879Y-99043373D01*
X109803875Y-99043371D01*
X109799355Y-99040876D01*
X109794486Y-99039152D01*
X109794482Y-99039150D01*
X109585903Y-98965288D01*
X109585899Y-98965287D01*
X109581028Y-98963562D01*
X109575935Y-98962655D01*
X109575932Y-98962654D01*
X109358095Y-98923851D01*
X109358089Y-98923850D01*
X109353006Y-98922945D01*
X109280096Y-98922054D01*
X109126581Y-98920179D01*
X109126579Y-98920179D01*
X109121411Y-98920116D01*
X108892464Y-98955150D01*
X108672314Y-99027106D01*
X108667726Y-99029494D01*
X108667722Y-99029496D01*
X108641065Y-99043373D01*
X108466872Y-99134052D01*
X108462739Y-99137155D01*
X108462736Y-99137157D01*
X108437625Y-99156011D01*
X108281655Y-99273117D01*
X108121639Y-99440564D01*
X108054306Y-99539271D01*
X107999397Y-99584271D01*
X107928872Y-99592442D01*
X107865125Y-99561188D01*
X107844428Y-99536705D01*
X107802571Y-99472004D01*
X107799764Y-99467665D01*
X107643887Y-99296358D01*
X107639836Y-99293159D01*
X107639832Y-99293155D01*
X107466177Y-99156011D01*
X107466172Y-99156008D01*
X107462123Y-99152810D01*
X107457607Y-99150317D01*
X107457604Y-99150315D01*
X107263879Y-99043373D01*
X107263875Y-99043371D01*
X107259355Y-99040876D01*
X107254486Y-99039152D01*
X107254482Y-99039150D01*
X107045903Y-98965288D01*
X107045899Y-98965287D01*
X107041028Y-98963562D01*
X107035935Y-98962655D01*
X107035932Y-98962654D01*
X106818095Y-98923851D01*
X106818089Y-98923850D01*
X106813006Y-98922945D01*
X106740096Y-98922054D01*
X106586581Y-98920179D01*
X106586579Y-98920179D01*
X106581411Y-98920116D01*
X106352464Y-98955150D01*
X106132314Y-99027106D01*
X106127726Y-99029494D01*
X106127722Y-99029496D01*
X106101065Y-99043373D01*
X105926872Y-99134052D01*
X105922739Y-99137155D01*
X105922736Y-99137157D01*
X105897625Y-99156011D01*
X105741655Y-99273117D01*
X105581639Y-99440564D01*
X105514306Y-99539271D01*
X105459397Y-99584271D01*
X105388872Y-99592442D01*
X105325125Y-99561188D01*
X105304428Y-99536705D01*
X105262571Y-99472004D01*
X105259764Y-99467665D01*
X105103887Y-99296358D01*
X105099836Y-99293159D01*
X105099832Y-99293155D01*
X104926177Y-99156011D01*
X104926172Y-99156008D01*
X104922123Y-99152810D01*
X104917607Y-99150317D01*
X104917604Y-99150315D01*
X104723879Y-99043373D01*
X104723875Y-99043371D01*
X104719355Y-99040876D01*
X104714486Y-99039152D01*
X104714482Y-99039150D01*
X104505903Y-98965288D01*
X104505899Y-98965287D01*
X104501028Y-98963562D01*
X104495935Y-98962655D01*
X104495932Y-98962654D01*
X104278095Y-98923851D01*
X104278089Y-98923850D01*
X104273006Y-98922945D01*
X104200096Y-98922054D01*
X104046581Y-98920179D01*
X104046579Y-98920179D01*
X104041411Y-98920116D01*
X103812464Y-98955150D01*
X103592314Y-99027106D01*
X103587726Y-99029494D01*
X103587722Y-99029496D01*
X103561065Y-99043373D01*
X103386872Y-99134052D01*
X103382739Y-99137155D01*
X103382736Y-99137157D01*
X103357625Y-99156011D01*
X103201655Y-99273117D01*
X103041639Y-99440564D01*
X102974306Y-99539271D01*
X102919397Y-99584271D01*
X102848872Y-99592442D01*
X102785125Y-99561188D01*
X102764428Y-99536705D01*
X102722571Y-99472004D01*
X102719764Y-99467665D01*
X102563887Y-99296358D01*
X102559836Y-99293159D01*
X102559832Y-99293155D01*
X102386177Y-99156011D01*
X102386172Y-99156008D01*
X102382123Y-99152810D01*
X102377607Y-99150317D01*
X102377604Y-99150315D01*
X102183879Y-99043373D01*
X102183875Y-99043371D01*
X102179355Y-99040876D01*
X102174486Y-99039152D01*
X102174482Y-99039150D01*
X101965903Y-98965288D01*
X101965899Y-98965287D01*
X101961028Y-98963562D01*
X101955935Y-98962655D01*
X101955932Y-98962654D01*
X101738095Y-98923851D01*
X101738089Y-98923850D01*
X101733006Y-98922945D01*
X101660096Y-98922054D01*
X101506581Y-98920179D01*
X101506579Y-98920179D01*
X101501411Y-98920116D01*
X101272464Y-98955150D01*
X101052314Y-99027106D01*
X101047726Y-99029494D01*
X101047722Y-99029496D01*
X101021065Y-99043373D01*
X100846872Y-99134052D01*
X100842739Y-99137155D01*
X100842736Y-99137157D01*
X100817625Y-99156011D01*
X100661655Y-99273117D01*
X100501639Y-99440564D01*
X100434306Y-99539271D01*
X100379397Y-99584271D01*
X100308872Y-99592442D01*
X100245125Y-99561188D01*
X100224428Y-99536705D01*
X100182571Y-99472004D01*
X100179764Y-99467665D01*
X100023887Y-99296358D01*
X100019836Y-99293159D01*
X100019832Y-99293155D01*
X99846177Y-99156011D01*
X99846172Y-99156008D01*
X99842123Y-99152810D01*
X99837607Y-99150317D01*
X99837604Y-99150315D01*
X99643879Y-99043373D01*
X99643875Y-99043371D01*
X99639355Y-99040876D01*
X99634486Y-99039152D01*
X99634482Y-99039150D01*
X99425903Y-98965288D01*
X99425899Y-98965287D01*
X99421028Y-98963562D01*
X99415935Y-98962655D01*
X99415932Y-98962654D01*
X99198095Y-98923851D01*
X99198089Y-98923850D01*
X99193006Y-98922945D01*
X99120096Y-98922054D01*
X98966581Y-98920179D01*
X98966579Y-98920179D01*
X98961411Y-98920116D01*
X98732464Y-98955150D01*
X98512314Y-99027106D01*
X98507726Y-99029494D01*
X98507722Y-99029496D01*
X98481065Y-99043373D01*
X98306872Y-99134052D01*
X98302739Y-99137155D01*
X98302736Y-99137157D01*
X98277625Y-99156011D01*
X98121655Y-99273117D01*
X97961639Y-99440564D01*
X97958730Y-99444829D01*
X97958724Y-99444837D01*
X97943152Y-99467665D01*
X97831119Y-99631899D01*
X97733602Y-99841981D01*
X97671707Y-100065169D01*
X97647095Y-100295469D01*
X91440000Y-100295469D01*
X91440000Y-61086000D01*
X91460002Y-61017879D01*
X91513658Y-60971386D01*
X91566000Y-60960000D01*
X190374000Y-60960000D01*
X190442121Y-60980002D01*
G37*
%TD.AperFunction*%
M02*
