M48
; DRILL file {KiCad (6.0.10)} date Fri Apr 28 14:23:13 2023
; FORMAT={-:-/ absolute / inch / decimal}
; #@! TF.CreationDate,2023-04-28T14:23:13-06:00
; #@! TF.GenerationSoftware,Kicad,Pcbnew,(6.0.10)
; #@! TF.FileFunction,Plated,1,2,PTH
FMAT,2
INCH
; #@! TA.AperFunction,Plated,PTH,ComponentDrill
T1C0.0315
; #@! TA.AperFunction,Plated,PTH,ComponentDrill
T2C0.0512
%
G90
G05
T1
X3.9Y-2.5988
X3.9Y-2.85
X3.9Y-3.95
X3.9787Y-2.5988
X4.0Y-2.85
X4.0Y-3.95
X4.1Y-2.85
X4.1Y-3.95
X4.2Y-2.85
X4.2Y-3.95
X4.3Y-2.85
X4.3Y-3.95
X4.4Y-2.85
X4.4Y-3.95
X4.5Y-2.85
X4.5Y-3.95
X4.6Y-2.85
X4.6Y-3.95
X4.7Y-2.85
X4.7Y-3.95
X4.8Y-2.85
X4.8Y-3.95
X4.9Y-2.85
X4.9Y-3.95
X5.0Y-2.85
X5.0Y-3.95
X5.1Y-2.85
X5.1Y-3.95
X5.2Y-2.85
X5.2Y-3.95
X5.3Y-2.85
X5.3Y-3.95
X5.8331Y-2.8319
X5.9329Y-3.4815
X5.9329Y-3.7815
X6.0329Y-3.4815
X6.0329Y-3.7815
X6.1329Y-3.4815
X6.1329Y-3.7815
X6.2329Y-3.4815
X6.2329Y-3.7815
X6.2331Y-2.8319
X6.3329Y-3.4815
X6.3329Y-3.7815
X6.4329Y-3.4815
X6.4329Y-3.7815
X6.5329Y-3.4815
X6.5329Y-3.7815
T2
X6.7996Y-2.7234
X6.7996Y-2.8612
X6.7996Y-2.999
T0
M30
