%TF.GenerationSoftware,KiCad,Pcbnew,(6.0.10)*%
%TF.CreationDate,2023-01-27T13:30:17-06:00*%
%TF.ProjectId,H2O-Esquem_tico_JDver2-KiCad,48324f2d-4573-4717-9565-6de17469636f,rev?*%
%TF.SameCoordinates,Original*%
%TF.FileFunction,Legend,Top*%
%TF.FilePolarity,Positive*%
%FSLAX46Y46*%
G04 Gerber Fmt 4.6, Leading zero omitted, Abs format (unit mm)*
G04 Created by KiCad (PCBNEW (6.0.10)) date 2023-01-27 13:30:17*
%MOMM*%
%LPD*%
G01*
G04 APERTURE LIST*
%ADD10C,0.150000*%
%ADD11C,0.120000*%
%ADD12C,1.524000*%
G04 APERTURE END LIST*
D10*
%TO.C,J8*%
X164707380Y-59653333D02*
X165421666Y-59653333D01*
X165564523Y-59700952D01*
X165659761Y-59796190D01*
X165707380Y-59939047D01*
X165707380Y-60034285D01*
X165135952Y-59034285D02*
X165088333Y-59129523D01*
X165040714Y-59177142D01*
X164945476Y-59224761D01*
X164897857Y-59224761D01*
X164802619Y-59177142D01*
X164755000Y-59129523D01*
X164707380Y-59034285D01*
X164707380Y-58843809D01*
X164755000Y-58748571D01*
X164802619Y-58700952D01*
X164897857Y-58653333D01*
X164945476Y-58653333D01*
X165040714Y-58700952D01*
X165088333Y-58748571D01*
X165135952Y-58843809D01*
X165135952Y-59034285D01*
X165183571Y-59129523D01*
X165231190Y-59177142D01*
X165326428Y-59224761D01*
X165516904Y-59224761D01*
X165612142Y-59177142D01*
X165659761Y-59129523D01*
X165707380Y-59034285D01*
X165707380Y-58843809D01*
X165659761Y-58748571D01*
X165612142Y-58700952D01*
X165516904Y-58653333D01*
X165326428Y-58653333D01*
X165231190Y-58700952D01*
X165183571Y-58748571D01*
X165135952Y-58843809D01*
%TO.C,U2*%
X135992380Y-79871904D02*
X136801904Y-79871904D01*
X136897142Y-79824285D01*
X136944761Y-79776666D01*
X136992380Y-79681428D01*
X136992380Y-79490952D01*
X136944761Y-79395714D01*
X136897142Y-79348095D01*
X136801904Y-79300476D01*
X135992380Y-79300476D01*
X136087619Y-78871904D02*
X136040000Y-78824285D01*
X135992380Y-78729047D01*
X135992380Y-78490952D01*
X136040000Y-78395714D01*
X136087619Y-78348095D01*
X136182857Y-78300476D01*
X136278095Y-78300476D01*
X136420952Y-78348095D01*
X136992380Y-78919523D01*
X136992380Y-78300476D01*
%TO.C,U1*%
X106132380Y-69341904D02*
X106941904Y-69341904D01*
X107037142Y-69294285D01*
X107084761Y-69246666D01*
X107132380Y-69151428D01*
X107132380Y-68960952D01*
X107084761Y-68865714D01*
X107037142Y-68818095D01*
X106941904Y-68770476D01*
X106132380Y-68770476D01*
X107132380Y-67770476D02*
X107132380Y-68341904D01*
X107132380Y-68056190D02*
X106132380Y-68056190D01*
X106275238Y-68151428D01*
X106370476Y-68246666D01*
X106418095Y-68341904D01*
X108720000Y-79748095D02*
X108672380Y-79843333D01*
X108672380Y-79986190D01*
X108720000Y-80129047D01*
X108815238Y-80224285D01*
X108910476Y-80271904D01*
X109100952Y-80319523D01*
X109243809Y-80319523D01*
X109434285Y-80271904D01*
X109529523Y-80224285D01*
X109624761Y-80129047D01*
X109672380Y-79986190D01*
X109672380Y-79890952D01*
X109624761Y-79748095D01*
X109577142Y-79700476D01*
X109243809Y-79700476D01*
X109243809Y-79890952D01*
X94432380Y-57697619D02*
X93956190Y-58030952D01*
X94432380Y-58269047D02*
X93432380Y-58269047D01*
X93432380Y-57888095D01*
X93480000Y-57792857D01*
X93527619Y-57745238D01*
X93622857Y-57697619D01*
X93765714Y-57697619D01*
X93860952Y-57745238D01*
X93908571Y-57792857D01*
X93956190Y-57888095D01*
X93956190Y-58269047D01*
X94384761Y-57316666D02*
X94432380Y-57173809D01*
X94432380Y-56935714D01*
X94384761Y-56840476D01*
X94337142Y-56792857D01*
X94241904Y-56745238D01*
X94146666Y-56745238D01*
X94051428Y-56792857D01*
X94003809Y-56840476D01*
X93956190Y-56935714D01*
X93908571Y-57126190D01*
X93860952Y-57221428D01*
X93813333Y-57269047D01*
X93718095Y-57316666D01*
X93622857Y-57316666D01*
X93527619Y-57269047D01*
X93480000Y-57221428D01*
X93432380Y-57126190D01*
X93432380Y-56888095D01*
X93480000Y-56745238D01*
X93432380Y-56459523D02*
X93432380Y-55888095D01*
X94432380Y-56173809D02*
X93432380Y-56173809D01*
X104544761Y-57935714D02*
X104592380Y-57792857D01*
X104592380Y-57554761D01*
X104544761Y-57459523D01*
X104497142Y-57411904D01*
X104401904Y-57364285D01*
X104306666Y-57364285D01*
X104211428Y-57411904D01*
X104163809Y-57459523D01*
X104116190Y-57554761D01*
X104068571Y-57745238D01*
X104020952Y-57840476D01*
X103973333Y-57888095D01*
X103878095Y-57935714D01*
X103782857Y-57935714D01*
X103687619Y-57888095D01*
X103640000Y-57840476D01*
X103592380Y-57745238D01*
X103592380Y-57507142D01*
X103640000Y-57364285D01*
X104592380Y-56935714D02*
X103592380Y-56935714D01*
X104592380Y-56364285D02*
X104020952Y-56792857D01*
X103592380Y-56364285D02*
X104163809Y-56935714D01*
X107084761Y-57959523D02*
X107132380Y-57816666D01*
X107132380Y-57578571D01*
X107084761Y-57483333D01*
X107037142Y-57435714D01*
X106941904Y-57388095D01*
X106846666Y-57388095D01*
X106751428Y-57435714D01*
X106703809Y-57483333D01*
X106656190Y-57578571D01*
X106608571Y-57769047D01*
X106560952Y-57864285D01*
X106513333Y-57911904D01*
X106418095Y-57959523D01*
X106322857Y-57959523D01*
X106227619Y-57911904D01*
X106180000Y-57864285D01*
X106132380Y-57769047D01*
X106132380Y-57530952D01*
X106180000Y-57388095D01*
X106132380Y-56769047D02*
X106132380Y-56578571D01*
X106180000Y-56483333D01*
X106275238Y-56388095D01*
X106465714Y-56340476D01*
X106799047Y-56340476D01*
X106989523Y-56388095D01*
X107084761Y-56483333D01*
X107132380Y-56578571D01*
X107132380Y-56769047D01*
X107084761Y-56864285D01*
X106989523Y-56959523D01*
X106799047Y-57007142D01*
X106465714Y-57007142D01*
X106275238Y-56959523D01*
X106180000Y-56864285D01*
X106132380Y-56769047D01*
X127452380Y-72032380D02*
X126976190Y-72365714D01*
X127452380Y-72603809D02*
X126452380Y-72603809D01*
X126452380Y-72222857D01*
X126500000Y-72127619D01*
X126547619Y-72080000D01*
X126642857Y-72032380D01*
X126785714Y-72032380D01*
X126880952Y-72080000D01*
X126928571Y-72127619D01*
X126976190Y-72222857D01*
X126976190Y-72603809D01*
X126928571Y-71270476D02*
X126928571Y-71603809D01*
X127452380Y-71603809D02*
X126452380Y-71603809D01*
X126452380Y-71127619D01*
X127166666Y-70032380D02*
X127166666Y-69556190D01*
X127452380Y-70127619D02*
X126452380Y-69794285D01*
X127452380Y-69460952D01*
X126785714Y-69127619D02*
X127452380Y-69127619D01*
X126880952Y-69127619D02*
X126833333Y-69080000D01*
X126785714Y-68984761D01*
X126785714Y-68841904D01*
X126833333Y-68746666D01*
X126928571Y-68699047D01*
X127452380Y-68699047D01*
X126785714Y-68365714D02*
X126785714Y-67984761D01*
X126452380Y-68222857D02*
X127309523Y-68222857D01*
X127404761Y-68175238D01*
X127452380Y-68080000D01*
X127452380Y-67984761D01*
X127404761Y-67270476D02*
X127452380Y-67365714D01*
X127452380Y-67556190D01*
X127404761Y-67651428D01*
X127309523Y-67699047D01*
X126928571Y-67699047D01*
X126833333Y-67651428D01*
X126785714Y-67556190D01*
X126785714Y-67365714D01*
X126833333Y-67270476D01*
X126928571Y-67222857D01*
X127023809Y-67222857D01*
X127119047Y-67699047D01*
X126785714Y-66794285D02*
X127452380Y-66794285D01*
X126880952Y-66794285D02*
X126833333Y-66746666D01*
X126785714Y-66651428D01*
X126785714Y-66508571D01*
X126833333Y-66413333D01*
X126928571Y-66365714D01*
X127452380Y-66365714D01*
X126785714Y-65889523D02*
X127452380Y-65889523D01*
X126880952Y-65889523D02*
X126833333Y-65841904D01*
X126785714Y-65746666D01*
X126785714Y-65603809D01*
X126833333Y-65508571D01*
X126928571Y-65460952D01*
X127452380Y-65460952D01*
X127452380Y-64556190D02*
X126928571Y-64556190D01*
X126833333Y-64603809D01*
X126785714Y-64699047D01*
X126785714Y-64889523D01*
X126833333Y-64984761D01*
X127404761Y-64556190D02*
X127452380Y-64651428D01*
X127452380Y-64889523D01*
X127404761Y-64984761D01*
X127309523Y-65032380D01*
X127214285Y-65032380D01*
X127119047Y-64984761D01*
X127071428Y-64889523D01*
X127071428Y-64651428D01*
X127023809Y-64556190D01*
X104592380Y-80748095D02*
X103592380Y-80748095D01*
X103592380Y-80510000D01*
X103640000Y-80367142D01*
X103735238Y-80271904D01*
X103830476Y-80224285D01*
X104020952Y-80176666D01*
X104163809Y-80176666D01*
X104354285Y-80224285D01*
X104449523Y-80271904D01*
X104544761Y-80367142D01*
X104592380Y-80510000D01*
X104592380Y-80748095D01*
X103592380Y-79319523D02*
X103592380Y-79510000D01*
X103640000Y-79605238D01*
X103687619Y-79652857D01*
X103830476Y-79748095D01*
X104020952Y-79795714D01*
X104401904Y-79795714D01*
X104497142Y-79748095D01*
X104544761Y-79700476D01*
X104592380Y-79605238D01*
X104592380Y-79414761D01*
X104544761Y-79319523D01*
X104497142Y-79271904D01*
X104401904Y-79224285D01*
X104163809Y-79224285D01*
X104068571Y-79271904D01*
X104020952Y-79319523D01*
X103973333Y-79414761D01*
X103973333Y-79605238D01*
X104020952Y-79700476D01*
X104068571Y-79748095D01*
X104163809Y-79795714D01*
X124626666Y-57864285D02*
X124626666Y-57388095D01*
X124912380Y-57959523D02*
X123912380Y-57626190D01*
X124912380Y-57292857D01*
X123912380Y-56769047D02*
X123912380Y-56673809D01*
X123960000Y-56578571D01*
X124007619Y-56530952D01*
X124102857Y-56483333D01*
X124293333Y-56435714D01*
X124531428Y-56435714D01*
X124721904Y-56483333D01*
X124817142Y-56530952D01*
X124864761Y-56578571D01*
X124912380Y-56673809D01*
X124912380Y-56769047D01*
X124864761Y-56864285D01*
X124817142Y-56911904D01*
X124721904Y-56959523D01*
X124531428Y-57007142D01*
X124293333Y-57007142D01*
X124102857Y-56959523D01*
X124007619Y-56911904D01*
X123960000Y-56864285D01*
X123912380Y-56769047D01*
X90940000Y-79748095D02*
X90892380Y-79843333D01*
X90892380Y-79986190D01*
X90940000Y-80129047D01*
X91035238Y-80224285D01*
X91130476Y-80271904D01*
X91320952Y-80319523D01*
X91463809Y-80319523D01*
X91654285Y-80271904D01*
X91749523Y-80224285D01*
X91844761Y-80129047D01*
X91892380Y-79986190D01*
X91892380Y-79890952D01*
X91844761Y-79748095D01*
X91797142Y-79700476D01*
X91463809Y-79700476D01*
X91463809Y-79890952D01*
X101100000Y-56888095D02*
X101052380Y-56983333D01*
X101052380Y-57126190D01*
X101100000Y-57269047D01*
X101195238Y-57364285D01*
X101290476Y-57411904D01*
X101480952Y-57459523D01*
X101623809Y-57459523D01*
X101814285Y-57411904D01*
X101909523Y-57364285D01*
X102004761Y-57269047D01*
X102052380Y-57126190D01*
X102052380Y-57030952D01*
X102004761Y-56888095D01*
X101957142Y-56840476D01*
X101623809Y-56840476D01*
X101623809Y-57030952D01*
X90940000Y-56888095D02*
X90892380Y-56983333D01*
X90892380Y-57126190D01*
X90940000Y-57269047D01*
X91035238Y-57364285D01*
X91130476Y-57411904D01*
X91320952Y-57459523D01*
X91463809Y-57459523D01*
X91654285Y-57411904D01*
X91749523Y-57364285D01*
X91844761Y-57269047D01*
X91892380Y-57126190D01*
X91892380Y-57030952D01*
X91844761Y-56888095D01*
X91797142Y-56840476D01*
X91463809Y-56840476D01*
X91463809Y-57030952D01*
X114704761Y-57911904D02*
X114752380Y-57769047D01*
X114752380Y-57530952D01*
X114704761Y-57435714D01*
X114657142Y-57388095D01*
X114561904Y-57340476D01*
X114466666Y-57340476D01*
X114371428Y-57388095D01*
X114323809Y-57435714D01*
X114276190Y-57530952D01*
X114228571Y-57721428D01*
X114180952Y-57816666D01*
X114133333Y-57864285D01*
X114038095Y-57911904D01*
X113942857Y-57911904D01*
X113847619Y-57864285D01*
X113800000Y-57816666D01*
X113752380Y-57721428D01*
X113752380Y-57483333D01*
X113800000Y-57340476D01*
X113847619Y-56959523D02*
X113800000Y-56911904D01*
X113752380Y-56816666D01*
X113752380Y-56578571D01*
X113800000Y-56483333D01*
X113847619Y-56435714D01*
X113942857Y-56388095D01*
X114038095Y-56388095D01*
X114180952Y-56435714D01*
X114752380Y-57007142D01*
X114752380Y-56388095D01*
X98512380Y-57911904D02*
X98512380Y-57292857D01*
X98893333Y-57626190D01*
X98893333Y-57483333D01*
X98940952Y-57388095D01*
X98988571Y-57340476D01*
X99083809Y-57292857D01*
X99321904Y-57292857D01*
X99417142Y-57340476D01*
X99464761Y-57388095D01*
X99512380Y-57483333D01*
X99512380Y-57769047D01*
X99464761Y-57864285D01*
X99417142Y-57911904D01*
X98512380Y-57007142D02*
X99512380Y-56673809D01*
X98512380Y-56340476D01*
X96448571Y-57888095D02*
X96448571Y-57554761D01*
X96972380Y-57411904D02*
X96972380Y-57888095D01*
X95972380Y-57888095D01*
X95972380Y-57411904D01*
X96972380Y-56983333D02*
X95972380Y-56983333D01*
X96972380Y-56411904D01*
X95972380Y-56411904D01*
X96972380Y-80176666D02*
X96496190Y-80510000D01*
X96972380Y-80748095D02*
X95972380Y-80748095D01*
X95972380Y-80367142D01*
X96020000Y-80271904D01*
X96067619Y-80224285D01*
X96162857Y-80176666D01*
X96305714Y-80176666D01*
X96400952Y-80224285D01*
X96448571Y-80271904D01*
X96496190Y-80367142D01*
X96496190Y-80748095D01*
X95972380Y-79843333D02*
X96972380Y-79176666D01*
X95972380Y-79176666D02*
X96972380Y-79843333D01*
X118832380Y-58007142D02*
X119832380Y-57673809D01*
X118832380Y-57340476D01*
X118832380Y-57007142D02*
X119641904Y-57007142D01*
X119737142Y-56959523D01*
X119784761Y-56911904D01*
X119832380Y-56816666D01*
X119832380Y-56626190D01*
X119784761Y-56530952D01*
X119737142Y-56483333D01*
X119641904Y-56435714D01*
X118832380Y-56435714D01*
X111212380Y-80771904D02*
X111212380Y-80152857D01*
X111593333Y-80486190D01*
X111593333Y-80343333D01*
X111640952Y-80248095D01*
X111688571Y-80200476D01*
X111783809Y-80152857D01*
X112021904Y-80152857D01*
X112117142Y-80200476D01*
X112164761Y-80248095D01*
X112212380Y-80343333D01*
X112212380Y-80629047D01*
X112164761Y-80724285D01*
X112117142Y-80771904D01*
X111212380Y-79867142D02*
X112212380Y-79533809D01*
X111212380Y-79200476D01*
X88352380Y-58245238D02*
X89352380Y-57911904D01*
X88352380Y-57578571D01*
X89352380Y-57245238D02*
X88352380Y-57245238D01*
X89352380Y-56769047D02*
X88352380Y-56769047D01*
X89352380Y-56197619D01*
X88352380Y-56197619D01*
X122372380Y-80748095D02*
X121372380Y-80748095D01*
X121372380Y-80510000D01*
X121420000Y-80367142D01*
X121515238Y-80271904D01*
X121610476Y-80224285D01*
X121800952Y-80176666D01*
X121943809Y-80176666D01*
X122134285Y-80224285D01*
X122229523Y-80271904D01*
X122324761Y-80367142D01*
X122372380Y-80510000D01*
X122372380Y-80748095D01*
X122372380Y-79224285D02*
X122372380Y-79795714D01*
X122372380Y-79510000D02*
X121372380Y-79510000D01*
X121515238Y-79605238D01*
X121610476Y-79700476D01*
X121658095Y-79795714D01*
X124912380Y-80748095D02*
X123912380Y-80748095D01*
X123912380Y-80510000D01*
X123960000Y-80367142D01*
X124055238Y-80271904D01*
X124150476Y-80224285D01*
X124340952Y-80176666D01*
X124483809Y-80176666D01*
X124674285Y-80224285D01*
X124769523Y-80271904D01*
X124864761Y-80367142D01*
X124912380Y-80510000D01*
X124912380Y-80748095D01*
X123912380Y-79557619D02*
X123912380Y-79462380D01*
X123960000Y-79367142D01*
X124007619Y-79319523D01*
X124102857Y-79271904D01*
X124293333Y-79224285D01*
X124531428Y-79224285D01*
X124721904Y-79271904D01*
X124817142Y-79319523D01*
X124864761Y-79367142D01*
X124912380Y-79462380D01*
X124912380Y-79557619D01*
X124864761Y-79652857D01*
X124817142Y-79700476D01*
X124721904Y-79748095D01*
X124531428Y-79795714D01*
X124293333Y-79795714D01*
X124102857Y-79748095D01*
X124007619Y-79700476D01*
X123960000Y-79652857D01*
X123912380Y-79557619D01*
X117292380Y-80748095D02*
X116292380Y-80748095D01*
X116292380Y-80510000D01*
X116340000Y-80367142D01*
X116435238Y-80271904D01*
X116530476Y-80224285D01*
X116720952Y-80176666D01*
X116863809Y-80176666D01*
X117054285Y-80224285D01*
X117149523Y-80271904D01*
X117244761Y-80367142D01*
X117292380Y-80510000D01*
X117292380Y-80748095D01*
X116292380Y-79843333D02*
X116292380Y-79224285D01*
X116673333Y-79557619D01*
X116673333Y-79414761D01*
X116720952Y-79319523D01*
X116768571Y-79271904D01*
X116863809Y-79224285D01*
X117101904Y-79224285D01*
X117197142Y-79271904D01*
X117244761Y-79319523D01*
X117292380Y-79414761D01*
X117292380Y-79700476D01*
X117244761Y-79795714D01*
X117197142Y-79843333D01*
X93432380Y-80771904D02*
X93432380Y-80200476D01*
X94432380Y-80486190D02*
X93432380Y-80486190D01*
X93432380Y-79962380D02*
X94432380Y-79295714D01*
X93432380Y-79295714D02*
X94432380Y-79962380D01*
X121420000Y-56888095D02*
X121372380Y-56983333D01*
X121372380Y-57126190D01*
X121420000Y-57269047D01*
X121515238Y-57364285D01*
X121610476Y-57411904D01*
X121800952Y-57459523D01*
X121943809Y-57459523D01*
X122134285Y-57411904D01*
X122229523Y-57364285D01*
X122324761Y-57269047D01*
X122372380Y-57126190D01*
X122372380Y-57030952D01*
X122324761Y-56888095D01*
X122277142Y-56840476D01*
X121943809Y-56840476D01*
X121943809Y-57030952D01*
X99512380Y-80748095D02*
X98512380Y-80748095D01*
X98512380Y-80510000D01*
X98560000Y-80367142D01*
X98655238Y-80271904D01*
X98750476Y-80224285D01*
X98940952Y-80176666D01*
X99083809Y-80176666D01*
X99274285Y-80224285D01*
X99369523Y-80271904D01*
X99464761Y-80367142D01*
X99512380Y-80510000D01*
X99512380Y-80748095D01*
X98940952Y-79605238D02*
X98893333Y-79700476D01*
X98845714Y-79748095D01*
X98750476Y-79795714D01*
X98702857Y-79795714D01*
X98607619Y-79748095D01*
X98560000Y-79700476D01*
X98512380Y-79605238D01*
X98512380Y-79414761D01*
X98560000Y-79319523D01*
X98607619Y-79271904D01*
X98702857Y-79224285D01*
X98750476Y-79224285D01*
X98845714Y-79271904D01*
X98893333Y-79319523D01*
X98940952Y-79414761D01*
X98940952Y-79605238D01*
X98988571Y-79700476D01*
X99036190Y-79748095D01*
X99131428Y-79795714D01*
X99321904Y-79795714D01*
X99417142Y-79748095D01*
X99464761Y-79700476D01*
X99512380Y-79605238D01*
X99512380Y-79414761D01*
X99464761Y-79319523D01*
X99417142Y-79271904D01*
X99321904Y-79224285D01*
X99131428Y-79224285D01*
X99036190Y-79271904D01*
X98988571Y-79319523D01*
X98940952Y-79414761D01*
X88352380Y-80771904D02*
X88352380Y-80152857D01*
X88733333Y-80486190D01*
X88733333Y-80343333D01*
X88780952Y-80248095D01*
X88828571Y-80200476D01*
X88923809Y-80152857D01*
X89161904Y-80152857D01*
X89257142Y-80200476D01*
X89304761Y-80248095D01*
X89352380Y-80343333D01*
X89352380Y-80629047D01*
X89304761Y-80724285D01*
X89257142Y-80771904D01*
X88352380Y-79867142D02*
X89352380Y-79533809D01*
X88352380Y-79200476D01*
X102052380Y-80748095D02*
X101052380Y-80748095D01*
X101052380Y-80510000D01*
X101100000Y-80367142D01*
X101195238Y-80271904D01*
X101290476Y-80224285D01*
X101480952Y-80176666D01*
X101623809Y-80176666D01*
X101814285Y-80224285D01*
X101909523Y-80271904D01*
X102004761Y-80367142D01*
X102052380Y-80510000D01*
X102052380Y-80748095D01*
X101052380Y-79843333D02*
X101052380Y-79176666D01*
X102052380Y-79605238D01*
X109624761Y-57935714D02*
X109672380Y-57792857D01*
X109672380Y-57554761D01*
X109624761Y-57459523D01*
X109577142Y-57411904D01*
X109481904Y-57364285D01*
X109386666Y-57364285D01*
X109291428Y-57411904D01*
X109243809Y-57459523D01*
X109196190Y-57554761D01*
X109148571Y-57745238D01*
X109100952Y-57840476D01*
X109053333Y-57888095D01*
X108958095Y-57935714D01*
X108862857Y-57935714D01*
X108767619Y-57888095D01*
X108720000Y-57840476D01*
X108672380Y-57745238D01*
X108672380Y-57507142D01*
X108720000Y-57364285D01*
X109577142Y-56364285D02*
X109624761Y-56411904D01*
X109672380Y-56554761D01*
X109672380Y-56650000D01*
X109624761Y-56792857D01*
X109529523Y-56888095D01*
X109434285Y-56935714D01*
X109243809Y-56983333D01*
X109100952Y-56983333D01*
X108910476Y-56935714D01*
X108815238Y-56888095D01*
X108720000Y-56792857D01*
X108672380Y-56650000D01*
X108672380Y-56554761D01*
X108720000Y-56411904D01*
X108767619Y-56364285D01*
X114752380Y-80748095D02*
X113752380Y-80748095D01*
X113752380Y-80510000D01*
X113800000Y-80367142D01*
X113895238Y-80271904D01*
X113990476Y-80224285D01*
X114180952Y-80176666D01*
X114323809Y-80176666D01*
X114514285Y-80224285D01*
X114609523Y-80271904D01*
X114704761Y-80367142D01*
X114752380Y-80510000D01*
X114752380Y-80748095D01*
X114085714Y-79319523D02*
X114752380Y-79319523D01*
X113704761Y-79557619D02*
X114419047Y-79795714D01*
X114419047Y-79176666D01*
X83272380Y-69841904D02*
X84081904Y-69841904D01*
X84177142Y-69794285D01*
X84224761Y-69746666D01*
X84272380Y-69651428D01*
X84272380Y-69460952D01*
X84224761Y-69365714D01*
X84177142Y-69318095D01*
X84081904Y-69270476D01*
X83272380Y-69270476D01*
X84224761Y-68841904D02*
X84272380Y-68699047D01*
X84272380Y-68460952D01*
X84224761Y-68365714D01*
X84177142Y-68318095D01*
X84081904Y-68270476D01*
X83986666Y-68270476D01*
X83891428Y-68318095D01*
X83843809Y-68365714D01*
X83796190Y-68460952D01*
X83748571Y-68651428D01*
X83700952Y-68746666D01*
X83653333Y-68794285D01*
X83558095Y-68841904D01*
X83462857Y-68841904D01*
X83367619Y-68794285D01*
X83320000Y-68746666D01*
X83272380Y-68651428D01*
X83272380Y-68413333D01*
X83320000Y-68270476D01*
X83748571Y-67508571D02*
X83796190Y-67365714D01*
X83843809Y-67318095D01*
X83939047Y-67270476D01*
X84081904Y-67270476D01*
X84177142Y-67318095D01*
X84224761Y-67365714D01*
X84272380Y-67460952D01*
X84272380Y-67841904D01*
X83272380Y-67841904D01*
X83272380Y-67508571D01*
X83320000Y-67413333D01*
X83367619Y-67365714D01*
X83462857Y-67318095D01*
X83558095Y-67318095D01*
X83653333Y-67365714D01*
X83700952Y-67413333D01*
X83748571Y-67508571D01*
X83748571Y-67841904D01*
X112164761Y-57911904D02*
X112212380Y-57769047D01*
X112212380Y-57530952D01*
X112164761Y-57435714D01*
X112117142Y-57388095D01*
X112021904Y-57340476D01*
X111926666Y-57340476D01*
X111831428Y-57388095D01*
X111783809Y-57435714D01*
X111736190Y-57530952D01*
X111688571Y-57721428D01*
X111640952Y-57816666D01*
X111593333Y-57864285D01*
X111498095Y-57911904D01*
X111402857Y-57911904D01*
X111307619Y-57864285D01*
X111260000Y-57816666D01*
X111212380Y-57721428D01*
X111212380Y-57483333D01*
X111260000Y-57340476D01*
X112212380Y-56388095D02*
X112212380Y-56959523D01*
X112212380Y-56673809D02*
X111212380Y-56673809D01*
X111355238Y-56769047D01*
X111450476Y-56864285D01*
X111498095Y-56959523D01*
X107132380Y-80748095D02*
X106132380Y-80748095D01*
X106132380Y-80510000D01*
X106180000Y-80367142D01*
X106275238Y-80271904D01*
X106370476Y-80224285D01*
X106560952Y-80176666D01*
X106703809Y-80176666D01*
X106894285Y-80224285D01*
X106989523Y-80271904D01*
X107084761Y-80367142D01*
X107132380Y-80510000D01*
X107132380Y-80748095D01*
X106132380Y-79271904D02*
X106132380Y-79748095D01*
X106608571Y-79795714D01*
X106560952Y-79748095D01*
X106513333Y-79652857D01*
X106513333Y-79414761D01*
X106560952Y-79319523D01*
X106608571Y-79271904D01*
X106703809Y-79224285D01*
X106941904Y-79224285D01*
X107037142Y-79271904D01*
X107084761Y-79319523D01*
X107132380Y-79414761D01*
X107132380Y-79652857D01*
X107084761Y-79748095D01*
X107037142Y-79795714D01*
X117244761Y-57911904D02*
X117292380Y-57769047D01*
X117292380Y-57530952D01*
X117244761Y-57435714D01*
X117197142Y-57388095D01*
X117101904Y-57340476D01*
X117006666Y-57340476D01*
X116911428Y-57388095D01*
X116863809Y-57435714D01*
X116816190Y-57530952D01*
X116768571Y-57721428D01*
X116720952Y-57816666D01*
X116673333Y-57864285D01*
X116578095Y-57911904D01*
X116482857Y-57911904D01*
X116387619Y-57864285D01*
X116340000Y-57816666D01*
X116292380Y-57721428D01*
X116292380Y-57483333D01*
X116340000Y-57340476D01*
X116292380Y-57007142D02*
X116292380Y-56388095D01*
X116673333Y-56721428D01*
X116673333Y-56578571D01*
X116720952Y-56483333D01*
X116768571Y-56435714D01*
X116863809Y-56388095D01*
X117101904Y-56388095D01*
X117197142Y-56435714D01*
X117244761Y-56483333D01*
X117292380Y-56578571D01*
X117292380Y-56864285D01*
X117244761Y-56959523D01*
X117197142Y-57007142D01*
X119832380Y-80748095D02*
X118832380Y-80748095D01*
X118832380Y-80510000D01*
X118880000Y-80367142D01*
X118975238Y-80271904D01*
X119070476Y-80224285D01*
X119260952Y-80176666D01*
X119403809Y-80176666D01*
X119594285Y-80224285D01*
X119689523Y-80271904D01*
X119784761Y-80367142D01*
X119832380Y-80510000D01*
X119832380Y-80748095D01*
X118927619Y-79795714D02*
X118880000Y-79748095D01*
X118832380Y-79652857D01*
X118832380Y-79414761D01*
X118880000Y-79319523D01*
X118927619Y-79271904D01*
X119022857Y-79224285D01*
X119118095Y-79224285D01*
X119260952Y-79271904D01*
X119832380Y-79843333D01*
X119832380Y-79224285D01*
%TO.C,1K8*%
X141697380Y-61930476D02*
X141697380Y-62501904D01*
X141697380Y-62216190D02*
X140697380Y-62216190D01*
X140840238Y-62311428D01*
X140935476Y-62406666D01*
X140983095Y-62501904D01*
X141697380Y-61501904D02*
X140697380Y-61501904D01*
X141697380Y-60930476D02*
X141125952Y-61359047D01*
X140697380Y-60930476D02*
X141268809Y-61501904D01*
X141125952Y-60359047D02*
X141078333Y-60454285D01*
X141030714Y-60501904D01*
X140935476Y-60549523D01*
X140887857Y-60549523D01*
X140792619Y-60501904D01*
X140745000Y-60454285D01*
X140697380Y-60359047D01*
X140697380Y-60168571D01*
X140745000Y-60073333D01*
X140792619Y-60025714D01*
X140887857Y-59978095D01*
X140935476Y-59978095D01*
X141030714Y-60025714D01*
X141078333Y-60073333D01*
X141125952Y-60168571D01*
X141125952Y-60359047D01*
X141173571Y-60454285D01*
X141221190Y-60501904D01*
X141316428Y-60549523D01*
X141506904Y-60549523D01*
X141602142Y-60501904D01*
X141649761Y-60454285D01*
X141697380Y-60359047D01*
X141697380Y-60168571D01*
X141649761Y-60073333D01*
X141602142Y-60025714D01*
X141506904Y-59978095D01*
X141316428Y-59978095D01*
X141221190Y-60025714D01*
X141173571Y-60073333D01*
X141125952Y-60168571D01*
D11*
%TO.C,J8*%
X151855000Y-67070000D02*
X152805000Y-67070000D01*
X152505000Y-67570000D02*
X154505000Y-67570000D01*
X151855000Y-51670000D02*
X151855000Y-67070000D01*
X164455000Y-51670000D02*
X151855000Y-51670000D01*
X164455000Y-67570000D02*
X164455000Y-51670000D01*
X152805000Y-67070000D02*
X152505000Y-67570000D01*
X154255000Y-67070000D02*
X159655000Y-67070000D01*
X154505000Y-67570000D02*
X154255000Y-67070000D01*
X159405000Y-67570000D02*
X164455000Y-67570000D01*
X159655000Y-67070000D02*
X159405000Y-67570000D01*
%TO.C,U2*%
X155440000Y-76460000D02*
X137540000Y-76460000D01*
X137540000Y-80110000D02*
X137540000Y-81760000D01*
X137540000Y-81760000D02*
X155440000Y-81760000D01*
X137540000Y-76460000D02*
X137540000Y-78110000D01*
X155440000Y-81760000D02*
X155440000Y-76460000D01*
X137540000Y-80110000D02*
G75*
G03*
X137540000Y-78110000I0J1000000D01*
G01*
D10*
%TO.C,U1*%
X87280000Y-64780000D02*
X87280000Y-72380000D01*
X123680000Y-74080000D02*
X123680000Y-63080000D01*
X123680000Y-63080000D02*
X130810000Y-63080000D01*
X130810000Y-74080000D02*
X123680000Y-74080000D01*
X130810000Y-82550000D02*
X130810000Y-54610000D01*
X81550000Y-64780000D02*
X87280000Y-64780000D01*
X82550000Y-64780000D02*
X82550000Y-54610000D01*
X129540000Y-53340000D02*
X83820000Y-53340000D01*
X82550000Y-82560000D02*
X82550000Y-72390000D01*
X129540000Y-83820000D02*
X83820000Y-83820000D01*
X87280000Y-72380000D02*
X81550000Y-72380000D01*
X81550000Y-72380000D02*
X81550000Y-64780000D01*
X129540000Y-83820000D02*
G75*
G03*
X130810000Y-82550000I0J1270000D01*
G01*
X83820000Y-53340000D02*
G75*
G03*
X82550000Y-54610000I-1J-1269999D01*
G01*
X82550000Y-82550000D02*
G75*
G03*
X83820000Y-83820000I1270000J0D01*
G01*
X130810000Y-54610000D02*
G75*
G03*
X129540000Y-53340000I-1269999J1D01*
G01*
X86886051Y-55880000D02*
G75*
G03*
X86886051Y-55880000I-1796051J0D01*
G01*
X86886051Y-81280000D02*
G75*
G03*
X86886051Y-81280000I-1796051J0D01*
G01*
X130066051Y-81280000D02*
G75*
G03*
X130066051Y-81280000I-1796051J0D01*
G01*
X130066051Y-55880000D02*
G75*
G03*
X130066051Y-55880000I-1796051J0D01*
G01*
D11*
%TO.C,1K8*%
X140245000Y-57970000D02*
X137505000Y-57970000D01*
X138875000Y-67820000D02*
X138875000Y-64510000D01*
X137505000Y-57970000D02*
X137505000Y-64510000D01*
X140245000Y-64510000D02*
X140245000Y-57970000D01*
X137505000Y-64510000D02*
X140245000Y-64510000D01*
X138875000Y-54660000D02*
X138875000Y-57970000D01*
%TD*%
D12*
%TO.C,U1*%
X124460000Y-54610000D03*
X121920000Y-54610000D03*
X119380000Y-54610000D03*
X116840000Y-54610000D03*
X114300000Y-54610000D03*
X111760000Y-54610000D03*
X109220000Y-54610000D03*
X106680000Y-54610000D03*
X104140000Y-54610000D03*
X101600000Y-54610000D03*
X99060000Y-54610000D03*
X96520000Y-54610000D03*
X93980000Y-54610000D03*
X91440000Y-54610000D03*
X88900000Y-54610000D03*
X88900000Y-82550000D03*
X91440000Y-82550000D03*
X93980000Y-82550000D03*
X96520000Y-82550000D03*
X99060000Y-82550000D03*
X101600000Y-82550000D03*
X104140000Y-82550000D03*
X106680000Y-82550000D03*
X109220000Y-82550000D03*
X111760000Y-82550000D03*
X114300000Y-82550000D03*
X116840000Y-82550000D03*
X119380000Y-82550000D03*
X121920000Y-82550000D03*
X124460000Y-82550000D03*
%TD*%
M02*
