%TF.GenerationSoftware,KiCad,Pcbnew,(6.0.10)*%
%TF.CreationDate,2023-01-27T13:30:17-06:00*%
%TF.ProjectId,H2O-Esquem_tico_JDver2-KiCad,48324f2d-4573-4717-9565-6de17469636f,rev?*%
%TF.SameCoordinates,Original*%
%TF.FileFunction,Soldermask,Bot*%
%TF.FilePolarity,Negative*%
%FSLAX46Y46*%
G04 Gerber Fmt 4.6, Leading zero omitted, Abs format (unit mm)*
G04 Created by KiCad (PCBNEW (6.0.10)) date 2023-01-27 13:30:17*
%MOMM*%
%LPD*%
G01*
G04 APERTURE LIST*
%ADD10R,3.960000X1.980000*%
%ADD11O,3.960000X1.980000*%
%ADD12R,1.600000X1.600000*%
%ADD13O,1.600000X1.600000*%
%ADD14C,1.524000*%
%ADD15C,1.600000*%
G04 APERTURE END LIST*
D10*
%TO.C,J8*%
X158155000Y-54320000D03*
D11*
X158155000Y-59320000D03*
X158155000Y-64320000D03*
%TD*%
D12*
%TO.C,U2*%
X138870000Y-82920000D03*
D13*
X141410000Y-82920000D03*
X143950000Y-82920000D03*
X146490000Y-82920000D03*
X149030000Y-82920000D03*
X151570000Y-82920000D03*
X154110000Y-82920000D03*
X154110000Y-75300000D03*
X151570000Y-75300000D03*
X149030000Y-75300000D03*
X146490000Y-75300000D03*
X143950000Y-75300000D03*
X141410000Y-75300000D03*
X138870000Y-75300000D03*
%TD*%
D14*
%TO.C,U1*%
X124460000Y-54610000D03*
X121920000Y-54610000D03*
X119380000Y-54610000D03*
X114300000Y-54610000D03*
X111760000Y-54610000D03*
X109220000Y-54610000D03*
X106680000Y-54610000D03*
X104140000Y-54610000D03*
X101600000Y-54610000D03*
X99060000Y-54610000D03*
X96520000Y-54610000D03*
X93980000Y-54610000D03*
X91440000Y-54610000D03*
X88900000Y-54610000D03*
X88900000Y-82550000D03*
X91440000Y-82550000D03*
X93980000Y-82550000D03*
X96520000Y-82550000D03*
X99060000Y-82550000D03*
X101600000Y-82550000D03*
X104140000Y-82550000D03*
X106680000Y-82550000D03*
X109220000Y-82550000D03*
X111760000Y-82550000D03*
X114300000Y-82550000D03*
X116840000Y-82550000D03*
X119380000Y-82550000D03*
X121920000Y-82550000D03*
X124460000Y-82550000D03*
%TD*%
D15*
%TO.C,1K8*%
X138875000Y-53620000D03*
D13*
X138875000Y-68860000D03*
%TD*%
M02*
