M48
; DRILL file {KiCad (6.0.10)} date Fri Jan 27 14:06:13 2023
; FORMAT={-:-/ absolute / inch / decimal}
; #@! TF.CreationDate,2023-01-27T14:06:13-06:00
; #@! TF.GenerationSoftware,Kicad,Pcbnew,(6.0.10)
; #@! TF.FileFunction,Plated,1,2,PTH
FMAT,2
INCH
; #@! TA.AperFunction,Plated,PTH,ComponentDrill
T1C0.0312
; #@! TA.AperFunction,Plated,PTH,ComponentDrill
T2C0.0315
; #@! TA.AperFunction,Plated,PTH,ComponentDrill
T3C0.0520
%
G90
G05
T1
X3.5Y-2.15
X3.5Y-3.25
X3.6Y-2.15
X3.6Y-3.25
X3.7Y-2.15
X3.7Y-3.25
X3.8Y-2.15
X3.8Y-3.25
X3.9Y-2.15
X3.9Y-3.25
X4.0Y-2.15
X4.0Y-3.25
X4.1Y-2.15
X4.1Y-3.25
X4.2Y-2.15
X4.2Y-3.25
X4.3Y-2.15
X4.3Y-3.25
X4.4Y-2.15
X4.4Y-3.25
X4.5Y-2.15
X4.5Y-3.25
X4.6Y-2.15
X4.6Y-3.25
X4.7Y-2.15
X4.7Y-3.25
X4.8Y-2.15
X4.8Y-3.25
X4.9Y-2.15
X4.9Y-3.25
T2
X5.4673Y-2.9646
X5.4673Y-3.2646
X5.4675Y-2.111
X5.4675Y-2.711
X5.5673Y-2.9646
X5.5673Y-3.2646
X5.6673Y-2.9646
X5.6673Y-3.2646
X5.7673Y-2.9646
X5.7673Y-3.2646
X5.8673Y-2.9646
X5.8673Y-3.2646
X5.9673Y-2.9646
X5.9673Y-3.2646
X6.0673Y-2.9646
X6.0673Y-3.2646
T3
X6.2266Y-2.1386
X6.2266Y-2.3354
X6.2266Y-2.5323
T0
M30
